<svg width="99" height="31" viewBox="0 0 99 31" fill="none" xmlns="http://www.w3.org/2000/svg">
<g clip-path="url(#clip0)">
<path d="M24.2043 8.72012C23.9423 8.97846 23.9423 9.36597 24.2043 9.55973C24.4664 9.81807 24.8594 9.81807 25.0559 9.55973C25.3179 9.30139 25.3179 8.91388 25.0559 8.72012C24.7939 8.46178 24.4009 8.46178 24.2043 8.72012Z" fill="#FEFEFE"/>
<path d="M30.2309 8.33203H27.6107L26.9556 9.10705C26.8246 9.23622 26.8901 9.30081 27.0211 9.36539L27.8727 9.75291L30.2964 8.65496C30.493 8.59037 30.4275 8.33203 30.2309 8.33203ZM20.4705 20.9907H17.2606C16.4091 21.5074 16.147 21.6366 15.0334 22.0887C14.9679 22.0887 14.9024 22.2178 14.9679 22.2824L17.8502 30.2264H19.4879L16.8676 22.9283C18.5708 22.9283 22.6977 22.4762 24.9249 18.924C24.2043 19.9574 22.5667 20.9907 20.4705 20.9907ZM25.0559 9.55915C24.7939 9.81749 24.4009 9.81749 24.2043 9.55915C23.9423 9.30081 23.9423 8.9133 24.2043 8.71954C24.4664 8.4612 24.8594 8.4612 25.0559 8.71954C24.5319 8.20286 23.6803 8.20286 23.2217 8.71954C22.7632 9.23622 22.6977 10.0112 23.2217 10.5279C23.7458 11.0446 24.5974 11.0446 25.0559 10.5279C25.5145 10.0112 25.58 9.23622 25.0559 8.71954C25.2524 8.97788 25.2524 9.30081 25.0559 9.55915ZM18.7018 24.0262L20.929 30.2264H22.5667L20.2084 23.7033C19.8154 23.8325 19.2913 23.8971 18.7018 24.0262ZM20.929 16.276C21.1255 16.0177 21.2565 15.7593 21.4531 15.4364C21.3876 15.3718 21.322 15.4364 21.2565 15.501C17.9157 18.9886 14.7059 19.4407 12.2166 19.4407H8.41725C8.28623 19.4407 8.22073 19.3115 8.28623 19.1823C11.234 15.1781 14.4439 12.0134 16.8676 10.0112L10.5135 15.2426C9.98941 15.6302 9.39985 15.8885 8.61377 15.8885H0.621963C0.425443 15.8885 0.49095 16.0822 0.49095 16.2114C1.015 17.8906 2.58716 19.4407 5.20742 19.4407L3.30773 21.3136C3.24223 21.3782 3.24223 21.572 3.43875 21.572H10.579C15.6885 21.572 18.8983 19.3761 20.929 16.276Z" fill="#00985F"/>
<path d="M92.1999 30.2268H98.03V12.4659H92.1999V18.989H86.6974V12.4659H80.8673V30.2268H86.6974V23.5099H92.1999V30.2268ZM23.2215 10.5283C22.6974 10.0116 22.6974 9.23663 23.2215 8.71994C23.7455 8.20326 24.5971 8.20326 25.0557 8.71994C25.5142 9.23663 25.5797 10.0116 25.0557 10.5283C24.5316 11.045 23.68 11.045 23.2215 10.5283ZM24.8592 18.9244C27.0864 15.3722 27.8725 9.75331 27.8725 9.75331L27.0209 9.3658C26.8899 9.30121 26.8899 9.23663 26.9554 9.10746L27.6104 8.33243C27.2174 7.55741 25.7762 6.26571 23.68 6.26571C22.4354 6.26571 21.3218 6.58863 20.3392 7.23449C20.3392 7.23449 18.8981 8.20326 16.8673 9.94706C14.4436 12.0138 11.2338 15.1139 8.28598 19.1182C8.22048 19.2473 8.28598 19.3765 8.41699 19.3765H12.2164C14.7056 19.3765 17.9155 18.9244 21.2563 15.4368C21.3218 15.3722 21.3873 15.3722 21.4528 15.3722C21.5183 15.4368 21.5183 15.5014 21.5183 15.566C20.9943 16.8577 19.6841 19.3765 17.2604 20.9265H20.4702C22.6319 20.9265 24.2041 19.9578 24.8592 18.9244ZM21.5838 23.187L24.0731 30.1622H31.1478C29.7066 25.835 28.1345 21.8307 26.6278 18.1494C25.4487 20.6682 24.3351 21.8953 21.5838 23.187ZM0.0976562 30.2268H7.23788L9.66162 22.7995H2.71792C1.86633 24.9954 1.01475 27.4496 0.0976562 30.2268ZM9.72713 14.2743L13.33 11.3679C14.1161 9.30121 14.9021 7.23449 15.6882 5.49069C16.0813 6.39488 16.4743 7.36366 16.8673 8.33243C18.8325 6.7178 20.0772 5.74903 21.7148 5.29693C20.7322 3.16562 20.0117 1.61558 19.6841 0.969727H11.6923C11.0373 2.3906 8.4825 7.622 5.4692 14.6618H8.35149C8.94105 14.6618 9.39959 14.5972 9.72713 14.2743ZM53.8786 28.2247L54.2716 30.1622H58.9881V12.4659H53.158V24.8016C52.6339 25.3829 51.6514 26.0288 50.7343 26.0288C49.0966 26.0288 48.245 25.1246 48.245 23.4454V12.4659H42.4149V24.8016C41.8909 25.3829 40.7773 26.0288 39.7947 26.0288C38.288 26.0288 37.4364 25.1246 37.4364 23.4454V12.4659H31.6063V24.2204C31.6063 28.483 33.506 30.6143 37.4364 30.6143C40.2532 30.6143 41.9564 29.581 43.2665 28.2247C44.1836 29.8393 45.8213 30.6143 48.245 30.6143C51.0618 30.5497 52.6339 29.581 53.8786 28.2247ZM72.4169 24.7371C71.8929 25.3183 71.0413 25.9642 69.6002 25.9642C68.028 25.9642 67.1764 24.5433 67.1764 21.7661C67.1764 18.3431 68.0935 16.6639 69.9932 16.6639C71.1068 16.6639 71.6309 16.7285 72.4169 16.9223V24.7371ZM67.5695 30.5497H67.766C70.3862 30.5497 72.1549 29.6455 73.1375 28.2247L73.465 30.1622H78.247V13.1763C76.3473 12.5951 74.1201 12.0784 70.0587 12.0784C64.2286 12.0784 61.0843 15.566 61.0843 22.0245C61.0843 27.9663 63.3115 30.5497 67.5695 30.5497Z" fill="#DC000F"/>
</g>
<defs>
<clipPath id="clip0">
<rect width="97.9324" height="29.58" fill="white" transform="translate(0.0976562 0.969727)"/>
</clipPath>
</defs>
</svg>
