<svg width="123" height="61" viewBox="0 0 123 61" fill="none" xmlns="http://www.w3.org/2000/svg">
<g clip-path="url(#clip0)">
<path d="M122.15 0.171875H0.851562V60.8283H122.15V0.171875Z" fill="#014171" stroke="white"/>
<path d="M107.891 35.4716C107.863 35.6878 107.782 36.2566 107.042 36.3305H100.549C99.8097 36.2566 99.6747 35.6878 99.647 35.4716V25.4262C99.6744 25.2094 99.7769 24.7488 100.516 24.6749H107.045C107.785 24.7488 107.863 25.2094 107.891 25.4262V35.4716ZM110.139 20.89H97.3988C95.4845 21.0448 93.8675 22.0177 93.6517 24.1943V36.6312C93.8675 38.8077 95.4845 39.9608 97.3988 40.1156H110.139C112.053 39.9608 113.67 38.8077 113.886 36.6312V24.1943C113.67 22.0177 112.053 21.0448 110.139 20.89ZM58.5787 24.6749H52.883V20.89H70.2698V24.6749H64.5741V40.1156H58.5787V24.6749ZM51.0846 24.6749V20.89H35.4964V40.1156L51.2918 40.1115L51.2975 36.3307H41.507L41.5079 32.213H51.0845V28.4375H41.5079V24.6749H51.0845L51.0846 24.6749ZM85.8577 27.6548C85.8577 28.0709 85.7545 28.4359 85.0093 28.4359H78.0638V24.6622H85.0183C85.8642 24.6622 85.8577 25.2169 85.8577 25.5633V27.6548ZM87.5185 32.6418C89.3888 32.4917 91.2534 31.216 91.2534 29.1208V24.3744C91.0364 22.208 89.4144 21.038 87.4916 20.8838H72.0682L72.0687 40.1156H78.0638V32.6418H80.4499L84.3467 40.1156H91.2415L86.6009 32.6418H87.5185H87.5185ZM23.0863 40.1156L27.1031 28.0395V40.1156H33.0984V20.89H25.0049L21.1078 30.5031L17.2107 20.89H9.11719V40.1156H15.1126V28.0395L19.1591 40.1156H23.0863Z" fill="#FBC51D"/>
</g>
<defs>
<clipPath id="clip0">
<rect width="121.541" height="60.9" fill="white" transform="translate(0.730469 0.0498047)"/>
</clipPath>
</defs>
</svg>
