<svg width="120" height="23" viewBox="0 0 120 23" fill="none" xmlns="http://www.w3.org/2000/svg">
<path d="M0 0V17.9707H5.34394C6.88352 17.9707 8.08789 17.7644 8.96166 17.3531C9.83542 16.9418 10.5482 16.3216 11.1022 15.4905C11.6559 14.6592 11.9307 13.7403 11.9307 12.7302C11.9307 11.6793 11.6649 10.7683 11.1294 9.99949C10.5938 9.22916 9.74675 8.58845 8.58921 8.07575C9.27967 7.58705 9.77849 7.06283 10.0853 6.50519C10.3918 5.94756 10.5456 5.32664 10.5456 4.64262C10.5456 3.59169 10.2097 2.67893 9.53497 1.90401C8.86076 1.1319 7.95225 0.602353 6.81069 0.317663C6.00651 0.105741 4.7338 0 2.99629 0H0ZM60.9154 0.165737V18.1364H66.2593C67.7981 18.1364 69.0033 17.9321 69.8771 17.5208C70.75 17.1095 71.462 16.4874 72.0155 15.6563C72.5711 14.8249 72.8483 13.906 72.8483 12.8959C72.8483 11.845 72.5812 10.936 72.0448 10.1672C71.5095 9.39687 70.6619 8.75418 69.5046 8.24149C70.1956 7.75279 70.6944 7.22856 71.0007 6.67093C71.3075 6.11329 71.461 5.49238 71.461 4.80836C71.461 3.75743 71.1233 2.84664 70.4483 2.07172C69.7741 1.29961 68.8666 0.768091 67.7261 0.483401C66.9227 0.271479 65.6492 0.165737 63.9117 0.165737H60.9154ZM3.62818 3.26147H4.56348C5.395 3.26147 6.01556 3.42683 6.4236 3.75671C6.83138 4.08634 7.03458 4.53273 7.03458 5.09445C7.03458 5.69702 6.8203 6.17264 6.39222 6.52295C5.96278 6.87326 5.30471 7.04976 4.4212 7.04976H3.62818V3.26147ZM64.5436 3.42918H65.4789C66.312 3.42918 66.9315 3.59257 67.339 3.92245C67.7463 4.25208 67.95 4.69847 67.95 5.26019C67.95 5.86276 67.7368 6.34035 67.3076 6.69066C66.8779 7.04097 66.2215 7.21549 65.3366 7.21549H64.5436V3.42918ZM51.4976 4.50253C49.9854 4.50253 48.6191 4.81242 47.3966 5.43184C46.1743 6.05025 45.2217 6.90266 44.5405 7.98499C43.857 9.06834 43.5173 10.2536 43.5173 11.5404C43.5173 13.3974 44.2183 15.0179 45.6222 16.4021C47.0256 17.7877 48.968 18.4797 51.4474 18.4797C54.2011 18.4797 56.3337 17.5526 57.8459 15.6997L55.0568 13.8983C54.176 14.9168 52.9432 15.4254 51.3595 15.4254C50.0812 15.4254 49.0467 15.068 48.2607 14.3521C47.4717 13.6369 47.0785 12.7137 47.0785 11.5839C47.0785 10.4196 47.4885 9.46745 48.3067 8.72291C49.1226 7.97863 50.194 7.60616 51.5165 7.60616C52.2427 7.60616 52.8756 7.71267 53.4163 7.92382C53.9571 8.13651 54.5033 8.51391 55.0568 9.06031L58.0007 7.53316C57.2927 6.56419 56.3834 5.81576 55.2681 5.28978C54.1542 4.76534 52.898 4.50253 51.4976 4.50253ZM13.68 4.84584V18.1364H17.2182V13.8608L17.5906 13.4425L21.7942 18.1364H26.4832L20.1287 11.3214L26.4058 4.84584H22.0892L17.2182 9.81796V4.84584H13.68ZM27.6905 4.84584L33.0491 17.1459L30.1491 23H33.8024L42.6301 4.84584H39.0061L34.9657 13.186L31.3041 4.84584H27.6905ZM75.3298 4.84584V18.1364H77.2088L84.2433 10.4888V18.1364H87.6895V4.84584H85.9926L78.776 12.6513V4.84584H75.3298ZM95.8205 4.84584L89.807 18.1364H93.3954L96.988 9.75483L100.514 18.1364H104.117L98.0991 4.84584H95.8205ZM111.702 4.84584L105.69 18.1364H109.279L112.871 9.75483L116.399 18.1364H120L113.982 4.84584H111.702ZM3.62818 10.1041H4.38144C5.81055 10.1041 6.83186 10.3265 7.44678 10.7749C8.06196 11.2225 8.36951 11.833 8.36951 12.6079C8.36951 13.2911 8.10644 13.8131 7.58278 14.1705C7.05857 14.5295 6.0431 14.7092 4.53628 14.7092H3.62818V10.1041ZM64.5436 10.2698H65.2969C66.7254 10.2698 67.7476 10.4943 68.3622 10.9426C68.9782 11.3902 69.2849 11.9987 69.2849 12.7736C69.2849 13.4569 69.0221 13.9788 68.4982 14.3363C67.9751 14.6953 66.9588 14.8749 65.4517 14.8749H64.5436V10.2698Z" fill="#006C43"/>
</svg>
