<svg width="111" height="55" viewBox="0 0 111 55" fill="none" xmlns="http://www.w3.org/2000/svg">
<path opacity="0.7" d="M1.216 51.8799V41.3199H3.376V45.3679H8.048V41.3199H10.208V51.8799H8.048V47.3199H3.376V51.8799H1.216ZM19.6801 48.6479H14.1281C14.2561 49.1492 14.5121 49.5385 14.8961 49.8159C15.2908 50.0825 15.7761 50.2159 16.3521 50.2159C17.1308 50.2159 17.8668 49.9492 18.5601 49.4159L19.4561 50.8879C18.5068 51.6772 17.4508 52.0719 16.2881 52.0719C15.0721 52.0932 14.0375 51.6985 13.1841 50.8879C12.3415 50.0665 11.9308 49.0799 11.9521 47.9279C11.9308 46.7865 12.3308 45.8052 13.1521 44.9839C13.9735 44.1625 14.9548 43.7625 16.0961 43.7839C17.1841 43.7839 18.0748 44.1359 18.7681 44.8399C19.4721 45.5439 19.8241 46.4185 19.8241 47.4639C19.8241 47.8479 19.7761 48.2425 19.6801 48.6479ZM14.1281 47.1279H17.7281C17.7175 46.6479 17.5468 46.2639 17.2161 45.9759C16.8961 45.6772 16.4961 45.5279 16.0161 45.5279C15.5575 45.5279 15.1575 45.6719 14.8161 45.9599C14.4748 46.2479 14.2455 46.6372 14.1281 47.1279ZM22.9529 51.8799V45.7839H20.5209V43.9599H27.5449V45.7839H25.0969V51.8799H22.9529ZM40.426 49.4639C40.426 50.1679 40.154 50.7492 39.61 51.2079C39.0767 51.6559 38.3993 51.8799 37.578 51.8799H33.37V43.9599H37.05C37.8713 43.9599 38.538 44.1625 39.05 44.5679C39.5727 44.9732 39.834 45.5119 39.834 46.1839C39.834 46.7599 39.6207 47.2452 39.194 47.6399C40.0153 48.0025 40.426 48.6105 40.426 49.4639ZM35.418 45.5759V47.0479H36.922C37.562 47.0479 37.882 46.8025 37.882 46.3119C37.882 45.8212 37.562 45.5759 36.922 45.5759H35.418ZM38.138 50.0399C38.3407 49.8799 38.442 49.6665 38.442 49.3999C38.442 49.1332 38.3407 48.9252 38.138 48.7759C37.946 48.6265 37.6793 48.5519 37.338 48.5519H35.418V50.2799H37.338C37.6793 50.2799 37.946 50.1999 38.138 50.0399ZM46.6981 51.8799V43.9599H48.8421V46.8559H51.7701V43.9599H53.9141V51.8799H51.7701V48.6959H48.8421V51.8799H46.6981ZM62.7433 47.1759V51.8799H60.7593V51.1119C60.1406 51.7519 59.3353 52.0719 58.3433 52.0719C57.5113 52.0719 56.8446 51.8532 56.3433 51.4159C55.8526 50.9785 55.6073 50.4079 55.6073 49.7039C55.6073 48.9892 55.8739 48.4292 56.4073 48.0239C56.9513 47.6079 57.6819 47.3999 58.5993 47.3999H60.5833V47.0479C60.5833 46.5999 60.4553 46.2585 60.1993 46.0239C59.9539 45.7785 59.5913 45.6559 59.1113 45.6559C58.7166 45.6559 58.3593 45.7412 58.0393 45.9119C57.7193 46.0825 57.3779 46.3599 57.0153 46.7439L55.8953 45.4159C56.8126 44.3279 57.9646 43.7839 59.3513 43.7839C60.3966 43.7839 61.2233 44.0825 61.8313 44.6799C62.4393 45.2665 62.7433 46.0985 62.7433 47.1759ZM60.5833 48.9199V48.8239H58.8873C58.1513 48.8239 57.7833 49.0905 57.7833 49.6239C57.7833 49.8905 57.8846 50.1039 58.0873 50.2639C58.3006 50.4132 58.5779 50.4879 58.9193 50.4879C59.3993 50.4879 59.7939 50.3439 60.1033 50.0559C60.4233 49.7572 60.5833 49.3785 60.5833 48.9199ZM65.526 43.9599H71.814V51.8799H69.67V45.7839H67.542L67.526 46.3919C67.4727 48.4505 67.2433 49.9012 66.838 50.7439C66.4433 51.5759 65.7553 52.0025 64.774 52.0239C64.4753 52.0239 64.2033 51.9759 63.958 51.8799V50.1039C64.0647 50.1252 64.166 50.1359 64.262 50.1359C64.6993 50.1359 65.0087 49.8105 65.19 49.1599C65.382 48.5092 65.4887 47.4052 65.51 45.8479L65.526 43.9599ZM80.6335 43.7839H81.3375V51.8799H79.1775V47.5919L74.7615 52.0719H74.0575V43.9599H76.2015V48.2799L80.6335 43.7839ZM88.0371 43.9599H90.1971V51.8799H88.0371V49.0959C87.6211 49.2665 87.0505 49.3519 86.3251 49.3519C85.3011 49.3519 84.5011 49.0532 83.9251 48.4559C83.3598 47.8479 83.0771 46.9999 83.0771 45.9119V43.9599H85.2211V45.7519C85.2211 46.8719 85.7385 47.4319 86.7731 47.4319C87.2745 47.4319 87.6958 47.3625 88.0371 47.2239V43.9599ZM99.0085 43.7839H99.7125V51.8799H97.5525V47.5919L93.1365 52.0719H92.4325V43.9599H94.5765V48.2799L99.0085 43.7839ZM108.524 43.7839H109.228V51.8799H107.068V47.5919L102.652 52.0719H101.948V43.9599H104.092V48.2799L108.524 43.7839Z" fill="#141414"/>
<path opacity="0.7" d="M54.1211 0C44.1887 0 36.1211 8.06763 36.1211 18C36.1211 27.9324 44.1887 36 54.1211 36C64.0535 36 72.1211 27.9324 72.1211 18C72.1211 8.11001 64.1189 0.0806823 54.2449 0.0122283C54.204 0.00487333 54.1626 0.000784331 54.1211 0ZM54.1211 1.56522C63.2077 1.56522 70.5559 8.91342 70.5559 18C70.5559 27.0866 63.2077 34.4348 54.1211 34.4348C45.0345 34.4348 37.6863 27.0866 37.6863 18C37.6863 8.91342 45.0345 1.56522 54.1211 1.56522ZM47.8602 12.5217C47.2375 12.5217 46.6404 12.7691 46.2001 13.2094C45.7598 13.6497 45.5124 14.2469 45.5124 14.8696C45.5124 15.4922 45.7598 16.0894 46.2001 16.5297C46.6404 16.97 47.2375 17.2174 47.8602 17.2174C48.4829 17.2174 49.0801 16.97 49.5204 16.5297C49.9607 16.0894 50.208 15.4922 50.208 14.8696C50.208 14.2469 49.9607 13.6497 49.5204 13.2094C49.0801 12.7691 48.4829 12.5217 47.8602 12.5217ZM60.382 12.5217C59.7593 12.5217 59.1621 12.7691 58.7218 13.2094C58.2815 13.6497 58.0341 14.2469 58.0341 14.8696C58.0341 15.4922 58.2815 16.0894 58.7218 16.5297C59.1621 16.97 59.7593 17.2174 60.382 17.2174C61.0046 17.2174 61.6018 16.97 62.0421 16.5297C62.4824 16.0894 62.7298 15.4922 62.7298 14.8696C62.7298 14.2469 62.4824 13.6497 62.0421 13.2094C61.6018 12.7691 61.0046 12.5217 60.382 12.5217ZM54.1211 21.1304C49.0776 21.1304 45.7417 24.4901 45.7417 24.4901C45.6666 24.5623 45.6066 24.6486 45.5653 24.7442C45.524 24.8398 45.5022 24.9427 45.5011 25.0468C45.5 25.1509 45.5198 25.2542 45.5591 25.3506C45.5985 25.447 45.6567 25.5346 45.7303 25.6082C45.8039 25.6818 45.8915 25.74 45.9879 25.7794C46.0843 25.8187 46.1876 25.8384 46.2917 25.8374C46.3958 25.8363 46.4987 25.8145 46.5943 25.7732C46.6898 25.7319 46.7762 25.6719 46.8483 25.5968C46.8483 25.5968 49.7733 22.6957 54.1211 22.6957C58.4689 22.6957 61.3939 25.5968 61.3939 25.5968C61.466 25.6719 61.5523 25.7319 61.6479 25.7732C61.7435 25.8145 61.8464 25.8363 61.9505 25.8374C62.0546 25.8384 62.1579 25.8187 62.2543 25.7794C62.3507 25.74 62.4383 25.6818 62.5119 25.6082C62.5855 25.5346 62.6437 25.447 62.6831 25.3506C62.7224 25.2542 62.7422 25.1509 62.7411 25.0468C62.74 24.9427 62.7182 24.8398 62.6769 24.7442C62.6356 24.6486 62.5756 24.5623 62.5005 24.4901C62.5005 24.4901 59.1646 21.1304 54.1211 21.1304Z" fill="#141414"/>
</svg>
