<svg width="204" height="26" viewBox="0 0 204 26" fill="none" xmlns="http://www.w3.org/2000/svg">
<path d="M0.837967 19.1024C1.40577 18.5337 2.10636 18.2494 2.93975 18.2494C3.77314 18.2494 4.46915 18.5337 5.0278 19.1024C5.5956 19.6619 5.8795 20.359 5.8795 21.1937C5.8795 22.0283 5.5956 22.73 5.0278 23.2987C4.46915 23.8582 3.77314 24.1379 2.93975 24.1379C2.10636 24.1379 1.40577 23.8582 0.837967 23.2987C0.279322 22.73 0 22.0283 0 21.1937C0 20.359 0.279322 19.6619 0.837967 19.1024ZM1.25008 22.9134C1.70799 23.3812 2.27121 23.6151 2.93975 23.6151C3.60829 23.6151 4.16694 23.3812 4.61568 22.9134C5.07359 22.4457 5.30254 21.8724 5.30254 21.1937C5.30254 20.5149 5.07359 19.9417 4.61568 19.4739C4.16694 19.0061 3.60829 18.7722 2.93975 18.7722C2.27121 18.7722 1.70799 19.0061 1.25008 19.4739C0.801334 19.9417 0.576961 20.5149 0.576961 21.1937C0.576961 21.8724 0.801334 22.4457 1.25008 22.9134Z" fill="black"/>
<path d="M7.49405 23.9866V18.3732H8.04353V19.2537C8.41902 18.5842 8.9914 18.2494 9.76068 18.2494C10.4567 18.2494 10.9741 18.5108 11.313 19.0336C11.4961 19.3271 11.5877 19.7995 11.5877 20.4507V23.9866H11.0382V20.4507C11.0382 19.9279 10.965 19.5518 10.8184 19.3225C10.5986 18.9556 10.2323 18.7722 9.71947 18.7722C9.09671 18.7722 8.63881 19.0336 8.34575 19.5564C8.14427 19.9141 8.04353 20.4186 8.04353 21.0698V23.9866H7.49405Z" fill="black"/>
<path d="M13.5711 13.9568H14.1206V23.9866H13.5711V13.9568Z" fill="black"/>
<path d="M16.0932 18.3732H16.6427V23.9866H16.0932V18.3732ZM16.7114 16.8736C16.6198 16.9653 16.5053 17.0111 16.3679 17.0111C16.2306 17.0111 16.1115 16.9653 16.0108 16.8736C15.9192 16.7727 15.8734 16.6488 15.8734 16.5021C15.8734 16.3553 15.9192 16.2361 16.0108 16.1444C16.1115 16.0435 16.2306 15.993 16.3679 15.993C16.5053 15.993 16.6198 16.0435 16.7114 16.1444C16.8121 16.2361 16.8625 16.3553 16.8625 16.5021C16.8625 16.6488 16.8121 16.7727 16.7114 16.8736Z" fill="black"/>
<path d="M18.6152 23.9866V18.3732H19.1647V19.2537C19.5402 18.5842 20.1126 18.2494 20.8819 18.2494C21.5779 18.2494 22.0953 18.5108 22.4342 19.0336C22.6173 19.3271 22.7089 19.7995 22.7089 20.4507V23.9866H22.1594V20.4507C22.1594 19.9279 22.0862 19.5518 21.9396 19.3225C21.7198 18.9556 21.3535 18.7722 20.8407 18.7722C20.2179 18.7722 19.76 19.0336 19.4669 19.5564C19.2655 19.9141 19.1647 20.4186 19.1647 21.0698V23.9866H18.6152Z" fill="black"/>
<path d="M29.7064 21.2487H24.9121C24.9121 21.9458 25.1273 22.5145 25.5578 22.9547C25.9974 23.395 26.5239 23.6151 27.1375 23.6151C27.5771 23.6151 27.9663 23.5005 28.3052 23.2712C28.644 23.0327 28.905 22.7208 29.0882 22.3356L29.5553 22.6108C29.3446 23.0143 29.0378 23.372 28.6349 23.6839C28.2319 23.9866 27.7191 24.1379 27.0963 24.1379C26.2446 24.1379 25.5715 23.8628 25.077 23.3124C24.5824 22.7529 24.3352 22.0513 24.3352 21.2074C24.3352 20.281 24.6007 19.5564 25.1319 19.0336C25.6722 18.5108 26.3133 18.2494 27.0551 18.2494C27.8152 18.2494 28.4471 18.5291 28.9508 19.0886C29.4545 19.6481 29.7064 20.3682 29.7064 21.2487ZM24.9533 20.7259H29.1294C29.0562 20.1572 28.8272 19.6894 28.4426 19.3225C28.0671 18.9556 27.6046 18.7722 27.0551 18.7722C26.4965 18.7722 26.0248 18.9602 25.6402 19.3363C25.2555 19.7032 25.0266 20.1664 24.9533 20.7259Z" fill="black"/>
<path d="M31.4599 21.4551V20.8222H34.2073V21.4551H31.4599Z" fill="black"/>
<path d="M36.5604 18.3732H40.2419V23.4638H41.0662V25.5H40.5441V23.9866H35.8186V25.5H35.2965V23.4638C35.7545 23.4363 36.0979 23.1886 36.3268 22.7208C36.4825 22.3998 36.5604 21.8953 36.5604 21.2074V18.3732ZM39.6924 23.4638V18.896H37.1098V21.3725C37.1098 22.3631 36.8717 23.0602 36.3955 23.4638H39.6924Z" fill="black"/>
<path d="M42.7068 19.1024C43.2746 18.5337 43.9752 18.2494 44.8086 18.2494C45.6419 18.2494 46.338 18.5337 46.8966 19.1024C47.4644 19.6619 47.7483 20.359 47.7483 21.1937C47.7483 22.0283 47.4644 22.73 46.8966 23.2987C46.338 23.8582 45.6419 24.1379 44.8086 24.1379C43.9752 24.1379 43.2746 23.8582 42.7068 23.2987C42.1481 22.73 41.8688 22.0283 41.8688 21.1937C41.8688 20.359 42.1481 19.6619 42.7068 19.1024ZM43.1189 22.9134C43.5768 23.3812 44.14 23.6151 44.8086 23.6151C45.4771 23.6151 46.0357 23.3812 46.4845 22.9134C46.9424 22.4457 47.1714 21.8724 47.1714 21.1937C47.1714 20.5149 46.9424 19.9417 46.4845 19.4739C46.0357 19.0061 45.4771 18.7722 44.8086 18.7722C44.14 18.7722 43.5768 19.0061 43.1189 19.4739C42.6701 19.9417 42.4458 20.5149 42.4458 21.1937C42.4458 21.8724 42.6701 22.4457 43.1189 22.9134Z" fill="black"/>
<path d="M53.8549 18.9648V19.694C53.3237 19.0795 52.6781 18.7722 51.918 18.7722C51.2403 18.7722 50.6816 19.0061 50.242 19.4739C49.8024 19.9325 49.5827 20.5103 49.5827 21.2074C49.5827 21.9595 49.8162 22.5511 50.2832 22.9822C50.7503 23.4042 51.2861 23.6151 51.8905 23.6151C52.6323 23.6151 53.31 23.2803 53.9236 22.6108V23.3537C53.3375 23.8765 52.6552 24.1379 51.8768 24.1379C51.0342 24.1379 50.3428 23.8628 49.8024 23.3124C49.2713 22.7529 49.0057 22.0558 49.0057 21.2212C49.0057 20.3682 49.2713 19.6619 49.8024 19.1024C50.3336 18.5337 51.0388 18.2494 51.918 18.2494C52.6415 18.2494 53.2871 18.4879 53.8549 18.9648Z" fill="black"/>
<path d="M56.5114 23.9866V18.896H54.5608V18.3732H59.0116V18.896H57.0609V23.9866H56.5114Z" fill="black"/>
<path d="M64.374 19.35V18.3732H64.9235V23.9866H64.374V22.9822C63.8703 23.7527 63.1423 24.1379 62.1898 24.1379C61.4297 24.1379 60.784 23.8673 60.2529 23.3262C59.7217 22.785 59.4561 22.0696 59.4561 21.1799C59.4561 20.3085 59.708 19.6023 60.2117 19.0611C60.7154 18.52 61.3747 18.2494 62.1898 18.2494C63.1239 18.2494 63.852 18.6163 64.374 19.35ZM62.2173 18.7722C61.622 18.7722 61.1092 18.9877 60.6787 19.4188C60.2483 19.8408 60.0331 20.414 60.0331 21.1386C60.0331 21.8082 60.23 22.3906 60.6238 22.8859C61.0176 23.3721 61.5533 23.6151 62.231 23.6151C62.8996 23.6151 63.4262 23.3766 63.8108 22.8997C64.2046 22.4136 64.4015 21.8265 64.4015 21.1386C64.4015 20.3773 64.1771 19.7949 63.7284 19.3913C63.2796 18.9786 62.7759 18.7722 62.2173 18.7722Z" fill="black"/>
<path d="M66.8965 18.3732H68.7235C69.2456 18.3732 69.6439 18.4833 69.9187 18.7034C70.2484 18.9694 70.4132 19.3271 70.4132 19.7766C70.4132 20.2902 70.2072 20.68 69.7951 20.946C70.0515 20.9827 70.2804 21.0882 70.4819 21.2624C70.8024 21.5468 70.9627 21.9228 70.9627 22.3906C70.9627 22.9134 70.775 23.317 70.3995 23.6014C70.0698 23.8582 69.6119 23.9866 69.0258 23.9866H66.8965V18.3732ZM67.446 20.8222H68.7235C69.0624 20.8222 69.328 20.7442 69.5203 20.5883C69.7493 20.4048 69.8637 20.1572 69.8637 19.8453C69.8637 19.5427 69.7493 19.2996 69.5203 19.1162C69.3372 18.9694 69.0716 18.896 68.7235 18.896H67.446V20.8222ZM67.446 23.4638H69.0258C69.447 23.4638 69.7676 23.3812 69.9874 23.2161C70.253 23.0143 70.3857 22.7346 70.3857 22.3769C70.3857 22.0467 70.2621 21.7853 70.0148 21.5926C69.7951 21.4275 69.4654 21.345 69.0258 21.345H67.446V23.4638Z" fill="black"/>
<path d="M72.5845 18.3732H73.134V21.0423L75.9639 18.3732H76.7057L73.8484 21.0423L76.9255 23.9866H76.1287L73.4363 21.4138L73.134 21.7027V23.9866H72.5845V18.3732Z" fill="black"/>
<path d="M78.0311 18.3732H78.5806V22.8722L82.5644 18.0568V23.9866H82.0149V19.5151L78.0311 24.3305V18.3732Z" fill="black"/>
<path d="M101.277 23.9866V4.81147H108.13V0.389162H89.3376V4.81147H96.2258V23.9866H101.277Z" fill="black"/>
<path d="M121.646 24.4111C128.781 24.4111 133.974 19.3166 133.974 12.2056C133.974 5.0945 128.781 0 121.646 0C114.546 0 109.353 5.0945 109.353 12.2056C109.353 19.3166 114.546 24.4111 121.646 24.4111ZM121.646 19.9534C117.301 19.9534 114.51 16.5925 114.51 12.2056C114.51 7.78326 117.301 4.45768 121.646 4.45768C125.991 4.45768 128.816 7.78326 128.816 12.2056C128.816 16.5925 125.991 19.9534 121.646 19.9534Z" fill="black"/>
<path d="M141.082 0.389162H136.031V7.00493C136.031 12.2409 138.786 15.708 144.791 15.708C146.593 15.708 148.359 15.3896 149.878 14.9297V23.9866H154.894V0.389162H149.878V10.5074C148.642 11.0027 147.087 11.2857 145.392 11.2857C142.672 11.2857 141.082 10.0829 141.082 7.00493V0.389162Z" fill="black"/>
<path d="M179.741 23.9866L169.745 11.4626L179.106 0.389162H172.924L164.587 10.9319V0.389162H159.571V23.9866H164.587V16.734L166.424 14.5405L173.56 23.9866H179.741Z" fill="black"/>
<path d="M204 23.9866L194.922 0.389162H188.634L179.52 23.9866H185.243L186.727 19.9888H196.829L198.277 23.9866H204ZM195.452 15.5665H188.104L191.778 5.4129L195.452 15.5665Z" fill="black"/>
<path d="M39.7019 9.24557L41.0206 3.28823L43.2598 8.35128L45.499 3.28823L46.8177 9.24557H46.2408L45.3341 4.85668L43.2598 9.58953L41.1855 4.85668L40.2788 9.24557H39.7019Z" fill="black"/>
<path d="M52.7028 4.60903V3.63219H53.2523V9.24557H52.7028V8.24121C52.1991 9.01168 51.471 9.39691 50.5186 9.39691C49.7585 9.39691 49.1128 9.12633 48.5817 8.58517C48.0505 8.04401 47.7849 7.32858 47.7849 6.43888C47.7849 5.56752 48.0368 4.86126 48.5405 4.3201C49.0442 3.77894 49.7035 3.50836 50.5186 3.50836C51.4527 3.50836 52.1808 3.87525 52.7028 4.60903ZM50.5461 4.03118C49.9508 4.03118 49.4379 4.24673 49.0075 4.67782C48.5771 5.09974 48.3619 5.673 48.3619 6.3976C48.3619 7.06717 48.5588 7.64961 48.9526 8.14491C49.3464 8.63103 49.8821 8.87409 50.5598 8.87409C51.2284 8.87409 51.7549 8.63562 52.1396 8.15866C52.5334 7.67254 52.7303 7.08552 52.7303 6.3976C52.7303 5.63631 52.5059 5.05388 52.0572 4.6503C51.6084 4.23755 51.1047 4.03118 50.5461 4.03118Z" fill="black"/>
<path d="M55.2253 9.24557V3.63219H58.2475V4.155H55.7748V9.24557H55.2253Z" fill="black"/>
<path d="M63.7703 4.60903V3.63219H64.3198V9.24557H63.7703V8.24121C63.2666 9.01168 62.5386 9.39691 61.5861 9.39691C60.826 9.39691 60.1804 9.12633 59.6492 8.58517C59.118 8.04401 58.8524 7.32858 58.8524 6.43888C58.8524 5.56752 59.1043 4.86126 59.608 4.3201C60.1117 3.77894 60.7711 3.50836 61.5861 3.50836C62.5203 3.50836 63.2483 3.87525 63.7703 4.60903ZM61.6136 4.03118C61.0183 4.03118 60.5055 4.24673 60.075 4.67782C59.6446 5.09974 59.4294 5.673 59.4294 6.3976C59.4294 7.06717 59.6263 7.64961 60.0201 8.14491C60.4139 8.63103 60.9496 8.87409 61.6273 8.87409C62.2959 8.87409 62.8225 8.63562 63.2071 8.15866C63.6009 7.67254 63.7978 7.08552 63.7978 6.3976C63.7978 5.63631 63.5734 5.05388 63.1247 4.6503C62.676 4.23755 62.1723 4.03118 61.6136 4.03118Z" fill="black"/>
<path d="M66.7461 4.8154L66.2928 4.49896C66.6775 3.83856 67.2682 3.50836 68.0649 3.50836C68.6052 3.50836 69.0174 3.64136 69.3013 3.90735C69.6035 4.17335 69.7546 4.53565 69.7546 4.99426C69.7546 5.54459 69.5394 5.93441 69.1089 6.16371C69.3562 6.21875 69.576 6.34257 69.7683 6.53519C70.0339 6.80118 70.1667 7.1589 70.1667 7.60833C70.1667 8.18618 69.9469 8.64479 69.5073 8.98416C69.141 9.25933 68.6648 9.39691 68.0787 9.39691C67.4742 9.39691 66.9843 9.25474 66.6088 8.9704C66.3066 8.72275 66.0822 8.45217 65.9357 8.15866L66.4302 7.84222C66.5676 8.14491 66.7645 8.38338 67.0209 8.55765C67.3048 8.76861 67.6574 8.87409 68.0787 8.87409C68.5457 8.87409 68.9029 8.76861 69.1502 8.55765C69.4432 8.31918 69.5897 7.99815 69.5897 7.59457C69.5897 7.23686 69.4615 6.96169 69.2051 6.76908C68.9853 6.60398 68.6419 6.52143 68.1748 6.52143H67.5979V5.99861H68.0237C68.3809 5.99861 68.6602 5.92065 68.8617 5.76472C69.0906 5.58128 69.2051 5.3428 69.2051 5.04929C69.2051 4.75578 69.1089 4.51272 68.9166 4.3201C68.706 4.12749 68.4175 4.03118 68.0512 4.03118C67.4651 4.03118 67.0301 4.29259 66.7461 4.8154Z" fill="black"/>
<path d="M71.7931 3.63219H72.3425V8.13115L76.3263 3.31575V9.24557H75.7768V4.77413L71.7931 9.58953V3.63219Z" fill="black"/>
<path d="M78.2994 9.24557V3.63219H78.8489V6.10868H82.0085V3.63219H82.5579V9.24557H82.0085V6.63149H78.8489V9.24557H78.2994Z" fill="black"/>
</svg>
