<svg width="80" height="35" viewBox="0 0 80 35" fill="none" xmlns="http://www.w3.org/2000/svg">
<path fill-rule="evenodd" clip-rule="evenodd" d="M53.0052 21.814C52.9567 21.814 52.8784 21.7831 52.8069 21.7404C52.7596 21.7121 52.7758 21.6191 52.8229 21.5905C52.8994 21.5442 52.9917 21.4884 53.0839 21.4884C53.4442 21.5132 53.8117 21.5456 54.1866 21.5786C55.0411 21.6539 55.9337 21.7326 56.8644 21.7326L56.7483 21.7394C59.0406 21.8186 61.2626 21.8999 63.559 22.0581C66.6306 22.3023 68.8358 22.5465 71.8287 22.7907C73.4039 22.8721 71.5924 22.6279 73.1676 22.7907C74.1849 22.8716 75.1244 22.9524 76.1406 23.0333C76.1537 23.0343 76.1665 23.0382 76.1784 23.0436C76.224 23.0644 76.263 23.071 76.2998 23.0679C76.3711 23.0618 76.3988 22.8037 76.3283 22.7916C76.32 22.7902 76.314 22.7891 76.3061 22.7861C75.68 22.5424 75.0539 22.2204 74.4278 22.1395C72.38 21.7326 73.6402 21.9767 71.5924 21.6512C70.8048 21.5698 70.7261 21.407 69.9385 21.2442C69.9343 21.2428 69.9302 21.2413 69.9261 21.2398C69.6284 21.1325 69.6909 20.6365 69.9863 20.5229C70.0059 20.5154 70.0264 20.5063 70.0459 20.4986C70.1938 20.4398 70.3418 20.5116 70.4898 20.5116C72.7738 20.593 72.065 20.6744 74.349 20.7558C74.3558 20.7558 74.3627 20.7557 74.3698 20.7554C74.5066 20.7498 74.5229 20.5286 74.4278 20.4302C73.8787 19.9439 73.564 19.619 71.6946 19.2144C71.6794 19.2111 71.6633 19.2097 71.6478 19.2081C71.6071 19.2041 71.5664 19.19 71.5257 19.1701C71.3951 19.1062 70.8957 18.8023 71.0411 18.8023C71.5924 18.8023 72.2225 18.8837 72.7738 18.8837C72.7982 18.8837 72.8244 18.8818 72.852 18.8785C73.0303 18.8572 73.1173 18.5838 72.962 18.4936C72.9429 18.4825 72.9237 18.4684 72.9072 18.4538C72.9047 18.4516 72.9022 18.4494 72.8996 18.4472C72.7647 18.3322 72.7842 18.1724 72.9463 18.1004C72.9607 18.0941 72.9757 18.087 72.9914 18.0792C73.0039 18.073 73.0167 18.0675 73.0299 18.0631C73.0352 18.0613 73.0406 18.0596 73.0458 18.0579C73.2608 17.9887 73.3142 17.7107 73.1187 17.5977C73.0978 17.5857 73.0765 17.5787 73.053 17.5734C71.9912 17.3363 71.6664 17.1754 70.6048 16.9383C70.581 16.933 70.5561 16.931 70.5323 16.9259C70.523 16.9239 70.5132 16.9213 70.5029 16.9181C70.3466 16.8692 70.326 16.6047 70.4898 16.6047C70.6473 16.6047 70.7261 16.5233 70.8836 16.5233C70.7261 16.5233 70.6473 16.4419 70.4898 16.3605C69.8597 15.9535 69.2296 15.6279 68.5208 15.3023C68.2058 15.1395 67.8907 14.9767 67.5757 14.9767C64.1103 14.5698 60.5661 14.2442 57.1007 13.8372C56.8613 13.8372 56.8453 13.4743 57.082 13.4382C57.1156 13.4331 57.1482 13.4302 57.1794 13.4302L63.3227 13.9186L68.0057 14.4026C68.034 14.4055 68.0674 14.4139 68.0949 14.4213C68.36 14.4922 68.6839 14.0335 68.473 13.8579C68.4634 13.8499 68.4531 13.8429 68.442 13.8372C67.9009 13.5975 67.3598 13.4363 66.8187 13.1995C66.7983 13.1906 66.7777 13.1788 66.7591 13.1665C66.5032 12.9971 66.5386 12.6479 66.8287 12.548C66.8357 12.5456 66.8427 12.5432 66.8497 12.5408C66.8611 12.5369 66.8731 12.5316 66.884 12.5264C67.0665 12.4386 67.0842 12.2479 66.884 12.2174C66.8499 12.2122 66.8176 12.2093 66.7881 12.2093C64.9766 11.9651 63.1651 11.8023 61.3537 11.5581C61.3298 11.5581 61.3078 11.5544 61.287 11.5478C61.095 11.4867 61.0734 11.0698 61.2749 11.0698C62.4563 11.0698 63.7165 10.9884 64.9766 11.0698C66.0005 11.0698 67.0244 11.3953 68.0482 11.314C68.5996 11.314 69.0721 10.6628 69.4659 10.1744C69.5267 10.1116 69.2594 9.75833 68.9895 9.52531C68.8457 9.40118 68.6658 9.33153 68.4815 9.28558C68.0201 9.17059 67.5496 9.10273 67.0244 9.03488C62.5351 8.7093 57.967 8.38372 53.399 8.13953C49.3132 7.89593 45.3059 7.81434 41.2205 7.65233C41.2011 7.65155 41.1768 7.64744 41.1579 7.64248C40.9059 7.57621 40.9188 7.24718 41.1794 7.24425C41.1834 7.24421 41.1873 7.24419 41.1912 7.24419C47.492 7.40698 53.714 7.56977 60.0148 7.81395C62.9289 7.89535 65.7642 8.13953 68.6783 8.22093C69.0814 8.22093 69.2656 7.54089 68.9273 7.32164C68.873 7.28643 68.8165 7.25953 68.7571 7.24419C67.8199 6.92134 66.8053 6.67852 65.8668 6.35702C65.8509 6.35158 65.837 6.34605 65.8225 6.33756C65.6036 6.20925 65.6918 5.76519 65.9384 5.7055C65.9592 5.70047 65.9799 5.69767 66.0005 5.69767C67.0244 5.61628 68.0482 5.61628 69.0721 5.53488C69.106 5.53488 69.1471 5.5236 69.1908 5.50508C69.4787 5.38313 69.5047 5.05526 69.4521 4.74708C69.3898 4.38243 69.2856 4.04543 68.6783 3.98837C68.5996 3.98837 68.5995 3.5814 68.5208 3.4186C68.4881 3.35102 68.469 3.2694 68.4521 3.19123C68.4132 3.01009 68.288 2.87317 68.1196 2.79582C67.9391 2.71291 67.7359 2.64273 67.5314 2.54075C67.5087 2.52942 67.4797 2.5241 67.4548 2.51919C67.3171 2.49205 67.4034 2.21268 67.5256 2.14349C67.5311 2.14037 67.5366 2.13724 67.5423 2.1341C67.5641 2.12212 67.5887 2.11679 67.6134 2.11468C67.6153 2.11452 67.6172 2.11435 67.6191 2.11416C67.7535 2.10093 67.7895 1.87209 67.6544 1.87209C65.843 1.62791 64.0315 1.22093 62.1413 1.13953L61.4907 1.10942C56.4367 0.875404 51.4493 0.644469 46.3894 0.488372C42.2151 0.325581 38.1196 0.244186 33.9454 0.162791H26.0694C22.9978 0.0813954 19.9262 0 16.8545 0C12.2077 0 7.63967 0.162791 2.99285 0.244186C1.99815 0.261038 1.00006 0.277891 0 0.294021V29.7764C1.96899 29.7981 3.93798 29.8351 5.90697 29.8721C12.2865 29.9535 18.666 29.9535 25.0455 30.1977C32.3702 30.4419 39.7736 30.7674 47.0982 31.2558C55.368 31.8256 63.5589 32.6395 71.7499 33.5349C75.4822 33.9367 75.7601 34.3385 79.4043 34.9752C79.4977 34.9915 79.5784 35.0028 79.6731 34.9966C79.85 34.985 79.9956 34.8367 79.9998 34.6595C80.0022 34.5616 79.9825 34.4732 79.9409 34.4302C79.6845 34.099 79.4282 33.7678 78.9595 33.4366C78.73 33.2744 78.4692 33.1252 78.3507 32.8703C78.2128 32.5738 78.3793 32.364 78.881 32.2411C78.9047 32.2353 78.928 32.2267 78.9499 32.2162C78.9783 32.2026 79.0042 32.1915 79.0288 32.1819C79.1698 32.1267 79.2412 31.8968 79.104 31.8327C79.0781 31.8206 79.061 31.8202 79.0344 31.8096C78.0239 31.4059 77.0124 30.927 75.9242 30.686C75.6552 30.6165 75.5118 30.573 75.4404 30.5467C75.4309 30.5432 75.4227 30.54 75.4156 30.5371C75.3596 30.5436 75.2171 30.5437 74.9003 30.5233C73.4039 30.4419 72.6951 30.4419 71.2774 30.4419C70.9623 30.4419 70.6473 30.3605 70.3323 30.2791C69.7809 30.1163 69.2296 29.9535 68.6783 29.8721C68.3633 29.7907 67.9695 29.7907 67.6544 29.7093C66.3155 29.4651 64.9766 28.814 63.4802 29.3023C63.2428 29.3637 62.8265 29.2401 62.5346 29.071C62.3649 28.9727 62.2378 28.8131 62.1868 28.6236C62.1156 28.359 62.1075 28.0349 62.22 27.9186C62.4563 27.6744 62.9289 27.6744 63.3227 27.6744C65.7642 27.9186 68.127 28.1628 70.4898 28.4884C73.8764 28.9767 72.38 28.7326 75.7667 29.1395C76.0087 29.1395 76.0983 28.7442 75.8712 28.6604C75.8626 28.6572 75.854 28.6541 75.8454 28.6512C73.9552 28.1628 74.5065 28.0814 72.5375 27.7558C70.2535 27.4302 70.3323 27.5116 67.9695 27.186C67.2606 27.1047 66.3943 26.8605 65.9217 26.4535C65.1341 25.8023 63.4802 25.3953 62.4563 25.8837C61.1962 26.4535 59.936 26.2907 59.0696 25.3953C58.9121 25.2326 58.6759 25.1512 58.4396 25.1512C57.3369 25.1512 56.2343 25.1512 55.2104 25.0698C54.9151 25.0698 54.6198 24.7837 54.3245 24.6138C54.2858 24.5915 54.2368 24.5496 54.2316 24.5052C54.2176 24.3851 54.3325 24.3178 54.4518 24.2979C54.7047 24.2558 54.9576 24.2558 55.2104 24.2558C55.4467 24.2558 55.6042 24.3372 55.7617 24.3372C57.5732 24.5814 59.4635 24.093 61.1962 24.9884C61.3537 25.0698 61.59 24.9884 61.7475 24.9884C63.5589 25.1512 65.2917 25.3953 67.1031 25.4767C68.0482 25.5581 69.1509 25.7209 69.9385 25.3953C70.8639 25.0275 70.7598 25.1251 71.2547 25.5079C71.372 25.5987 71.4928 25.6989 71.6268 25.7623C71.8082 25.848 71.9942 25.7479 72.171 25.6532C73.0053 25.2062 73.0277 25.4839 74.034 25.5581C75.3729 25.6395 76.003 25.5581 77.3419 25.5581C77.3623 25.5581 77.3813 25.5568 77.3994 25.5542C77.5841 25.5282 77.6141 25.2574 77.4509 25.1673C77.4354 25.1588 77.4121 25.1487 77.3953 25.1436C76.8524 24.9784 76.3083 24.6615 75.6879 24.5814C73.0889 24.1744 73.1676 23.9302 70.5686 23.6047C66.4731 23.1163 62.2988 22.7093 58.1245 22.2209C57.59 22.142 57.1296 21.9101 56.5996 21.7477C55.3587 21.814 54.1819 21.814 53.0052 21.814ZM61.3429 28.281C61.4034 28.3606 61.344 28.4884 61.244 28.4884H60.8024C60.6921 28.4884 60.5818 28.4851 60.4716 28.4819C60.1209 28.4715 59.7702 28.4612 59.4195 28.5555C59.2347 28.6053 59.0551 28.6758 58.8668 28.7098C58.2832 28.8152 57.7358 28.7896 57.4509 28.1652C57.4261 28.1107 57.3879 28.0526 57.3951 27.9932C57.4146 27.8326 57.5945 27.7621 57.756 27.7709C58.2823 27.7998 58.7611 27.8172 59.2187 27.8337C59.8159 27.8553 60.3769 27.8756 60.9599 27.9186C61.0675 27.9186 61.212 28.1087 61.3429 28.281ZM55.9811 28.2574C56.1514 28.3579 56.1323 28.6306 55.9356 28.6503C55.9151 28.6523 55.9092 28.6487 55.8894 28.6431C55.6725 28.5826 55.493 28.4836 55.3238 28.3739C55.2357 28.3168 55.2421 28.1817 55.3286 28.1221C55.4483 28.0396 55.6027 28.0389 55.7292 28.1106C55.8079 28.1551 55.8833 28.1997 55.9586 28.2442C55.9661 28.2486 55.9736 28.253 55.9811 28.2574ZM50.0911 27.593C51.0362 28 51.9813 28.1628 53.0052 27.5116C53.148 27.4132 53.3772 27.404 53.6231 27.3942C53.6537 27.393 53.6845 27.3917 53.7154 27.3903C53.9191 27.381 54.1115 27.54 54.1259 27.7433C54.128 27.7732 54.1301 27.803 54.1321 27.8327C54.1606 28.2612 53.9072 28.6512 53.4777 28.6512C53.1627 28.6105 52.828 28.5901 52.4932 28.5698C52.1585 28.5494 51.8238 28.5291 51.5087 28.4884C51.2725 28.4477 51.0362 28.4273 50.7999 28.407C50.5636 28.3866 50.3273 28.3663 50.0911 28.3256C49.7366 28.2849 49.4019 28.2442 49.0672 28.2035C48.8359 28.1754 48.6046 28.1472 48.3668 28.1191C48.1518 28.0937 47.9402 28.0438 47.7283 28C47.7239 27.9991 47.7195 27.9982 47.715 27.9973C47.5727 27.9678 47.5346 27.8042 47.6495 27.7151C47.6561 27.7101 47.6626 27.705 47.6691 27.6999C47.8194 27.5832 47.9717 27.4654 48.1221 27.3488C48.2678 27.2359 48.4567 27.2174 48.6372 27.2552C48.7752 27.2841 48.9163 27.3075 49.0583 27.3311C49.4083 27.3891 49.7636 27.448 50.0911 27.593ZM49.1247 29.5392C49.248 29.6314 49.2778 29.8248 49.1599 29.9238C49.0886 29.9837 49.0112 30.0373 48.9224 30.0791C48.8637 30.1068 48.8 30.1524 48.7392 30.1296C48.7285 30.1256 48.7175 30.1202 48.706 30.1137C48.5303 30.0139 48.5486 29.7568 48.6891 29.6116L48.7252 29.5744C48.8317 29.4643 49.002 29.4475 49.1247 29.5392ZM47.7353 27.1108C47.7034 27.1068 47.687 27.0659 47.7094 27.0428C47.7206 27.0312 47.7381 27.0283 47.7524 27.0357C47.9019 27.1127 48.0514 27.186 48.2008 27.186C48.1221 27.186 48.0236 27.1657 47.9252 27.1453C47.86 27.1319 47.7948 27.1184 47.7353 27.1108ZM48.3584 21.4884C48.1786 21.4884 48.2104 21.2454 48.3902 21.2443C48.4051 21.2442 48.4207 21.2442 48.4371 21.2442H49.1861C49.2074 21.2442 49.2247 21.2269 49.2247 21.2056C49.2247 21.1827 49.2445 21.1648 49.2673 21.1672L51.5875 21.407C51.6268 21.407 51.666 21.4272 51.7053 21.4576C51.7536 21.495 51.724 21.5906 51.6663 21.6105C51.6072 21.6308 51.5481 21.6512 51.5087 21.6512C50.4061 21.6512 49.3822 21.5698 48.3584 21.4884ZM50.761 27.3865C50.7134 27.2669 50.783 27.1396 50.896 27.0779C50.9511 27.0479 51.0056 27.0233 51.0362 27.0233C51.1316 27.0233 51.1981 27.083 51.2707 27.1481C51.3447 27.2146 51.3609 27.34 51.2866 27.4061C51.2513 27.4375 51.2082 27.4743 51.153 27.5193C51.043 27.6092 50.8762 27.6004 50.8052 27.4773C50.7877 27.4471 50.773 27.4168 50.761 27.3865ZM51.0916 24.8301C51.0141 24.806 51.0157 24.6882 51.094 24.667C51.3042 24.6103 51.5339 24.5434 51.8239 24.4454C51.8752 24.4281 51.9306 24.4254 51.9824 24.4409C52.0897 24.4728 52.1978 24.5126 52.3097 24.5538C52.4589 24.6087 52.4524 24.8563 52.2969 24.8895C52.151 24.9207 52.0003 24.9519 51.8494 24.9831C51.8324 24.9866 51.815 24.9885 51.7976 24.988C51.5802 24.982 51.3283 24.9037 51.0916 24.8301ZM45.884 21.166C45.9668 21.2272 45.9533 21.3944 45.8543 21.4224C45.7176 21.4611 45.5809 21.4884 45.4443 21.4884C43.554 21.407 41.6638 21.2442 39.8523 21.0814C39.3928 21.0022 38.9333 21.0001 38.4737 21C38.4521 21 38.4346 21.0175 38.4346 21.0391C38.4346 21.0619 38.4152 21.0799 38.3925 21.078C37.8935 21.0373 37.3765 20.978 36.8595 20.9186C36.3278 20.8576 35.7962 20.7965 35.2843 20.7558C35.1534 20.7558 35.0466 20.7308 34.9507 20.6947C34.8933 20.6731 34.9099 20.5676 34.9692 20.5523C35.048 20.532 35.1268 20.5116 35.2055 20.5116C36.3082 20.5116 37.4895 20.5116 38.5922 20.593C40.8762 20.6744 43.239 20.8372 45.523 21C45.6595 21 45.7697 21.0815 45.884 21.166ZM41.9872 27.2159C42.2667 27.281 42.2506 27.6982 41.9952 27.829C41.9898 27.8318 41.9845 27.8345 41.9791 27.8373C41.8819 27.8871 41.7652 27.8797 41.675 27.818C41.5759 27.7502 41.4797 27.6855 41.3926 27.6301C41.3098 27.5775 41.3056 27.4389 41.384 27.3799C41.5082 27.2864 41.6416 27.186 41.7425 27.186C41.8241 27.186 41.9056 27.197 41.9872 27.2159ZM40.3887 26.591C40.4914 26.6385 40.5068 26.7865 40.4083 26.8419C40.2293 26.9426 40.0272 27.033 39.8234 27.0911C39.7904 27.1005 39.7585 27.1156 39.7244 27.1197C39.6483 27.1288 39.5598 27.082 39.4726 27.0145C39.3371 26.9096 39.3682 26.687 39.5016 26.5794C39.6716 26.4421 39.8971 26.3907 40.1017 26.4674C40.208 26.5072 40.3015 26.5506 40.3887 26.591ZM36.791 29.2892C36.6878 29.352 36.5594 29.3508 36.452 29.2953L35.8486 28.9835C35.7844 28.9503 35.7903 28.8538 35.8575 28.8273C36.0631 28.7462 36.3038 28.6512 36.5444 28.6512C36.7464 28.6512 36.916 28.7515 37.074 28.845C37.1558 28.8934 37.1538 29.0561 37.0734 29.1069C37.0534 29.1195 37.0332 29.1326 37.0128 29.146L36.9666 29.1765C36.9124 29.2123 36.855 29.2503 36.791 29.2892ZM38.0936 7.46112C38.0605 7.47821 38.0212 7.47821 37.9881 7.46112L37.8773 7.40386C37.7986 7.36318 37.8197 7.18783 37.9001 7.1505C37.978 7.11428 38.0488 7.0814 38.1196 7.0814C38.1224 7.0814 38.1253 7.0815 38.1283 7.0817C38.304 7.09356 38.2969 7.35606 38.1404 7.43691L38.0936 7.46112ZM33.471 20.5551C33.545 20.6215 33.5564 20.7445 33.4656 20.7852C33.3961 20.8163 33.3163 20.8372 33.2365 20.8372C32.9768 20.8372 32.7172 20.8284 32.4547 20.8194C31.921 20.8012 31.3757 20.7826 30.795 20.8372C30.4799 20.8372 30.1846 20.8169 29.8892 20.7965C29.5939 20.7762 29.2985 20.7558 28.9835 20.7558C28.7965 20.7558 28.6589 20.7048 28.4925 20.6432C28.4471 20.6264 28.4471 20.5596 28.4925 20.5428C28.6271 20.493 28.7428 20.4501 28.8811 20.4355C28.949 20.4284 29.0174 20.425 29.0851 20.416C29.5778 20.3509 30.0095 20.3489 30.4392 20.3488C30.4617 20.3488 30.4799 20.3306 30.4799 20.3081C30.4799 20.2857 30.4981 20.2674 30.5206 20.2675C31.3215 20.2698 32.1883 20.3402 33.0593 20.415L33.2365 20.4302C33.3319 20.4302 33.3984 20.4899 33.471 20.5551ZM23.7066 20.1047C24.888 20.1047 26.0694 20.1047 27.2508 20.186C27.3711 20.186 27.5374 20.2811 27.6795 20.3622C27.7253 20.3884 27.7204 20.4615 27.673 20.4847C27.6341 20.5037 27.5969 20.5239 27.5603 20.5438C27.436 20.6111 27.3193 20.6744 27.172 20.6744C25.8331 20.6744 24.573 20.593 23.3128 20.5116L14.3342 20.2674C14.2199 20.2674 14.087 20.2674 13.9536 20.2582C13.6799 20.2393 13.3996 20.1862 13.1584 20.0554C13.1139 20.0313 13.1308 19.9105 13.1795 19.8972C13.2664 19.8736 13.3603 19.8428 13.4559 19.8102C13.5004 19.7951 13.5466 19.828 13.5466 19.875C13.5466 19.9122 13.5763 19.9426 13.6134 19.9435C15.2845 19.9831 16.9556 20.0032 18.6266 20.0233C20.32 20.0436 22.0133 20.064 23.7066 20.1047ZM7.66212 19.7837C7.90458 19.8338 7.90478 20.2134 7.66853 20.2875C7.62713 20.3005 7.58524 20.314 7.54276 20.3283C7.50298 20.3416 7.46046 20.3452 7.41922 20.3375C7.1683 20.2906 6.91835 20.2228 6.6812 20.1584C6.56919 20.128 6.57558 19.9488 6.68996 19.9291L7.53833 19.783C7.55336 19.7804 7.56859 19.7791 7.58384 19.7791H7.61674C7.63199 19.7791 7.64719 19.7806 7.66212 19.7837ZM4.72364 19.8634C4.93469 19.88 4.93728 20.186 4.72558 20.186C3.7017 20.1047 2.75658 20.1047 1.57519 20.0233C1.47836 20.0233 1.49642 19.9105 1.58679 19.8758C1.60619 19.8683 1.62444 19.8627 1.6425 19.861C1.6501 19.8603 1.65777 19.8598 1.6653 19.8585C2.05648 19.792 2.39471 19.7812 2.81509 19.7794C2.98576 19.7787 3.15592 19.7957 3.32554 19.8146C3.73641 19.8605 4.19161 19.8605 4.64681 19.8605C4.67338 19.8605 4.69895 19.8615 4.72364 19.8634ZM30.0478 7.39717C29.8119 7.3374 29.8123 7.01924 30.0552 7.00558C30.1195 7.00196 30.1825 7 30.2437 7C30.4821 7 30.7656 7.04663 31.0602 7.10459C31.1245 7.11724 31.1248 7.20991 31.0608 7.22384C30.7905 7.28265 30.5202 7.34146 30.1311 7.40027C30.1015 7.40474 30.0768 7.40452 30.0478 7.39717ZM44.3568 27.5033C44.4995 27.6226 44.6698 27.6761 44.813 27.5574C44.9233 27.4659 44.9201 27.2362 44.7964 27.1638C44.7628 27.1441 44.7294 27.1244 44.696 27.1046C44.6433 27.0735 44.5905 27.0423 44.5367 27.0112C44.3761 26.9183 44.1725 26.955 44.0019 27.028C43.9276 27.0598 43.9295 27.1466 43.993 27.1966C44.0698 27.2572 44.1466 27.3234 44.2235 27.3895C44.2309 27.3959 44.2383 27.4023 44.2457 27.4087C44.2827 27.4405 44.3198 27.4723 44.3568 27.5033ZM64.4625 26.1901C64.3468 26.1016 64.1882 26.1008 64.0715 26.188C64.0652 26.1927 64.0589 26.1974 64.0528 26.202C64.0172 26.2286 63.9854 26.2524 63.9542 26.2745C63.8902 26.3197 63.8902 26.4244 63.9578 26.4639C64.0047 26.4913 64.0546 26.5205 64.1067 26.5494C64.3104 26.6624 64.5485 26.6851 64.7403 26.553C64.7981 26.5131 64.7895 26.4108 64.7286 26.376C64.6369 26.3236 64.5528 26.2592 64.4625 26.1901Z" fill="#FC5D5D"/>
<path fill-rule="evenodd" clip-rule="evenodd" d="M47.7353 27.1108C47.7034 27.1068 47.687 27.0659 47.7094 27.0428C47.7206 27.0312 47.7381 27.0283 47.7524 27.0357C47.9019 27.1127 48.0514 27.186 48.2008 27.186C48.1221 27.186 48.0236 27.1657 47.9252 27.1453C47.86 27.1319 47.7948 27.1184 47.7353 27.1108ZM56.7483 21.7394C56.6987 21.7423 56.6491 21.745 56.5996 21.7477C56.5829 21.7426 56.5662 21.7375 56.5493 21.7326L56.7483 21.7394ZM64.0528 26.202C64.0589 26.1974 64.0652 26.1927 64.0715 26.188C64.1882 26.1008 64.3468 26.1016 64.4625 26.1901C64.5528 26.2592 64.6369 26.3236 64.7286 26.376C64.7895 26.4108 64.7981 26.5131 64.7403 26.553C64.5485 26.6851 64.3104 26.6624 64.1067 26.5494C64.0546 26.5205 64.0047 26.4913 63.9578 26.4639C63.8902 26.4244 63.8902 26.3197 63.9542 26.2745C63.9854 26.2524 64.0172 26.2286 64.0528 26.202Z" fill="#FC5D5D"/>
</svg>
