<svg width="108" height="52" viewBox="0 0 108 52" fill="none" xmlns="http://www.w3.org/2000/svg">
<g filter="url(#filter0_d)">
<path fill-rule="evenodd" clip-rule="evenodd" d="M68.2565 31.798C68.196 31.798 68.0983 31.7603 68.0092 31.708C67.9503 31.6735 67.97 31.5584 68.0287 31.5235C68.1242 31.4667 68.2396 31.398 68.3549 31.398C68.8052 31.4285 69.2646 31.4683 69.7332 31.5089C70.8014 31.6014 71.9172 31.698 73.0805 31.698L72.9354 31.7065C75.8007 31.8037 78.5782 31.9037 81.4487 32.098C85.2882 32.398 88.0448 32.698 91.7859 32.998C93.7549 33.098 91.4905 32.798 93.4595 32.998C94.7313 33.0974 95.9059 33.1968 97.1765 33.2962C97.1924 33.2974 97.2079 33.302 97.2224 33.3085C97.2799 33.3343 97.329 33.3425 97.3752 33.3385C97.4629 33.3311 97.4968 33.0134 97.41 32.9991C97.3999 32.9974 97.3926 32.9962 97.3831 32.9926C96.6003 32.6932 95.8175 32.2974 95.0347 32.198C92.475 31.698 94.0502 31.998 91.4905 31.598C90.506 31.498 90.4076 31.298 89.4231 31.098C89.4189 31.0966 89.4148 31.0952 89.4107 31.0938C89.041 30.9639 89.1173 30.3497 89.4839 30.2115C89.5077 30.2026 89.5327 30.1917 89.5564 30.1824C89.7416 30.1095 89.9269 30.198 90.1122 30.198C92.9673 30.298 92.0812 30.398 94.9363 30.498C94.9455 30.498 94.9549 30.4978 94.9645 30.4974C95.1328 30.4901 95.1529 30.2181 95.0347 30.098C94.3483 29.5005 93.9549 29.1013 91.6172 28.604C91.5988 28.6001 91.5795 28.5985 91.5608 28.5967C91.5097 28.5919 91.4586 28.5747 91.4075 28.5501C91.246 28.4726 90.6222 28.098 90.8014 28.098C91.4905 28.098 92.2781 28.198 92.9673 28.198C92.9987 28.198 93.0326 28.1955 93.0682 28.1912C93.2881 28.1648 93.3944 27.8281 93.2019 27.7184C93.1785 27.7051 93.1548 27.688 93.1344 27.6703C93.1314 27.6676 93.1283 27.665 93.1252 27.6624C92.9573 27.5214 92.9812 27.3236 93.1822 27.236C93.2005 27.228 93.2197 27.2192 93.2399 27.2094C93.2551 27.202 93.2707 27.1953 93.2867 27.19C93.2941 27.1876 93.3014 27.1853 93.3087 27.183C93.5745 27.0991 93.6398 26.7548 93.3972 26.6175C93.372 26.6032 93.3461 26.5948 93.3177 26.5886C91.9888 26.297 91.5832 26.0992 90.2545 25.8076C90.2258 25.8013 90.1957 25.7989 90.1668 25.793C90.1546 25.7905 90.1417 25.7872 90.1283 25.783C89.9347 25.7233 89.9097 25.398 90.1122 25.398C90.3091 25.398 90.4076 25.298 90.6045 25.298C90.4076 25.298 90.3091 25.198 90.1122 25.098C89.3246 24.598 88.537 24.198 87.651 23.798C87.2572 23.598 86.8634 23.398 86.4696 23.398C82.1378 22.898 77.7076 22.498 73.3758 21.998C73.0804 21.998 73.061 21.5513 73.3533 21.5077C73.395 21.5015 73.4355 21.498 73.4743 21.498L81.1533 22.098L87.0083 22.6928C87.0429 22.6963 87.0838 22.7064 87.1173 22.7153C87.4482 22.8029 87.8578 22.2188 87.5819 22.0162C87.5726 22.0093 87.5629 22.0033 87.5525 21.998C86.8758 21.7035 86.1991 21.5053 85.5224 21.2142C85.4976 21.2035 85.4724 21.1893 85.4497 21.1746C85.1324 20.9679 85.1756 20.5361 85.5343 20.4147C85.5438 20.4115 85.5532 20.4083 85.5627 20.4051C85.5766 20.4004 85.5911 20.3941 85.6044 20.3878C85.8309 20.2806 85.8522 20.0448 85.6044 20.0078C85.562 20.0015 85.5219 19.998 85.4851 19.998C83.2208 19.698 80.9564 19.498 78.6921 19.198C78.6622 19.198 78.6345 19.1934 78.6084 19.1852C78.3713 19.1107 78.3451 18.598 78.5937 18.598C80.0704 18.598 81.6456 18.498 83.2208 18.598C84.5006 18.598 85.7805 18.998 87.0603 18.898C87.7495 18.898 88.3401 18.098 88.8324 17.498C88.9126 17.4166 88.5359 16.9375 88.1806 16.6543C88.0339 16.5373 87.856 16.4703 87.6742 16.4241C87.0742 16.2717 86.4644 16.1849 85.7804 16.098C80.1688 15.698 74.4588 15.298 68.7487 14.998C63.6411 14.6987 58.6316 14.5985 53.5244 14.3994C53.5009 14.3985 53.4715 14.3936 53.4488 14.3877C53.1371 14.3072 53.1529 13.9016 53.4748 13.8981C53.4795 13.8981 53.4843 13.898 53.489 13.898C61.365 14.098 69.1425 14.298 77.0185 14.598C80.6611 14.698 84.2053 14.998 87.8479 15.098C88.3474 15.098 88.5755 14.2531 88.1518 13.9886C88.0862 13.9476 88.0179 13.9162 87.9463 13.898C86.7745 13.5013 85.5059 13.2029 84.3325 12.8078C84.3133 12.8013 84.2964 12.7947 84.2788 12.7846C84.0078 12.6289 84.1167 12.0829 84.4202 12.0084C84.4471 12.0017 84.4739 11.998 84.5006 11.998C85.7805 11.898 87.0603 11.898 88.3401 11.798C88.4065 11.798 88.4952 11.764 88.5837 11.715C88.8617 11.561 88.8825 11.2429 88.8316 10.9293C88.753 10.4448 88.6627 9.97329 87.8479 9.89805C87.7495 9.89805 87.7494 9.39805 87.651 9.19805C87.6038 9.10221 87.5792 8.9834 87.5556 8.87465C87.5135 8.68103 87.3733 8.53765 87.194 8.45339C86.9572 8.34213 86.686 8.25287 86.413 8.11895C86.3854 8.1054 86.3499 8.099 86.3197 8.09329C86.1493 8.06111 86.2548 7.71627 86.4063 7.63185C86.4136 7.62773 86.4212 7.6236 86.4288 7.61945C86.4554 7.60505 86.4855 7.59865 86.5156 7.59618C86.5189 7.59592 86.5221 7.59563 86.5252 7.59531C86.6913 7.57884 86.735 7.29805 86.5681 7.29805C84.3037 6.99805 82.0394 6.49805 79.6766 6.39805L78.8633 6.36104C72.5459 6.07354 66.3116 5.78982 59.9867 5.59805C54.7689 5.39805 49.6495 5.29805 44.4317 5.19805H34.5868C30.7472 5.09805 26.9077 4.99805 23.0682 4.99805C17.2597 4.99805 11.5496 5.19805 5.74107 5.29805C4.49768 5.31875 3.25008 5.33946 2 5.35927V41.5805C4.46124 41.6071 6.92247 41.6526 9.38371 41.698C17.3581 41.798 25.3325 41.798 33.3069 42.098C42.4627 42.398 51.717 42.7981 60.8728 43.3981C71.2099 44.0981 81.4487 45.0981 91.6874 46.1981C96.3537 46.6918 96.7002 47.1855 101.258 47.9681C101.373 47.9878 101.472 48.0013 101.588 47.994C101.811 47.9801 101.997 47.7951 102 47.5721C102.002 47.4549 101.977 47.3498 101.926 47.298C101.59 46.8715 101.254 46.4449 100.613 46.0183C100.379 45.8633 100.133 45.7098 99.987 45.4709C99.7352 45.0589 99.9242 44.7713 100.603 44.6082C100.631 44.6013 100.66 44.5911 100.686 44.5785C100.723 44.5613 100.756 44.5475 100.787 44.5355C100.962 44.4684 101.05 44.1827 100.879 44.1063C100.848 44.0923 100.827 44.0916 100.795 44.0791C99.531 43.5829 98.2661 42.9943 96.9052 42.6981C96.5689 42.6127 96.3897 42.5592 96.3005 42.5269C96.2886 42.5226 96.2784 42.5187 96.2695 42.5151C96.1996 42.523 96.0213 42.5232 95.6254 42.4981C93.7549 42.3981 92.8688 42.398 91.0967 42.398C90.7029 42.398 90.3091 42.298 89.9153 42.1981C89.2262 41.9981 88.537 41.798 87.8479 41.698C87.4541 41.598 86.9619 41.598 86.5681 41.498C84.8944 41.198 83.2208 40.3981 81.3502 40.9981C81.0366 41.0777 80.4733 40.9036 80.1077 40.6779C79.9401 40.5745 79.812 40.4166 79.7525 40.2288C79.6465 39.8939 79.6249 39.4506 79.775 39.298C80.0704 38.9981 80.6611 38.998 81.1533 38.998C84.2053 39.298 87.1587 39.598 90.1122 39.998C94.3456 40.598 92.475 40.298 96.7084 40.798C97.0078 40.798 97.1169 40.3094 96.8352 40.208C96.8257 40.2046 96.8162 40.2013 96.8068 40.1981C94.444 39.5981 95.1331 39.498 92.6719 39.098C89.8169 38.698 89.9153 38.798 86.9618 38.398C86.0758 38.298 84.9929 37.998 84.4022 37.498C83.4177 36.698 81.3502 36.198 80.0704 36.798C78.4952 37.498 76.92 37.298 75.8371 36.198C75.6402 35.998 75.3448 35.898 75.0495 35.898C73.6712 35.898 72.2929 35.898 71.013 35.798C70.6436 35.798 70.2741 35.446 69.9047 35.2373C69.8569 35.2103 69.7961 35.1591 69.7895 35.1046C69.7719 34.9567 69.9144 34.8745 70.0614 34.8503C70.3786 34.798 70.6958 34.798 71.013 34.798C71.3084 34.798 71.5053 34.898 71.7022 34.898C73.9665 35.198 76.3293 34.598 78.4952 35.698C78.6921 35.798 78.9874 35.698 79.1843 35.698C81.4487 35.8981 83.6146 36.198 85.8789 36.298C87.0603 36.398 88.4386 36.598 89.4231 36.198C90.5794 35.7463 90.4499 35.866 91.0676 36.3358C91.2148 36.4477 91.366 36.5711 91.5337 36.649C91.7603 36.7542 91.9929 36.6311 92.214 36.5147C93.2567 35.9657 93.2847 36.3068 94.5424 36.398C96.2161 36.498 97.0037 36.398 98.6773 36.398C98.7031 36.398 98.7271 36.3963 98.7499 36.3932C98.9782 36.3612 99.0153 36.0271 98.8126 35.9174C98.7939 35.9072 98.7655 35.8951 98.7451 35.889C98.0661 35.6862 97.3858 35.2966 96.6099 35.198C93.3611 34.698 93.4595 34.398 90.2107 33.998C85.0913 33.398 79.8735 32.898 74.6557 32.298C73.9875 32.2011 73.4119 31.9162 72.7495 31.7166C71.1984 31.798 69.7274 31.798 68.2565 31.798ZM78.6786 39.7432C78.7537 39.8404 78.6812 39.998 78.5584 39.998H78.003C77.8651 39.998 77.7273 39.994 77.5895 39.99C77.127 39.9766 76.6644 39.9632 76.2019 40.1009C76.0211 40.1548 75.8432 40.221 75.6578 40.2564C74.9012 40.4008 74.1827 40.3942 73.8143 39.6023C73.7828 39.5346 73.7345 39.4621 73.7441 39.388C73.7696 39.191 73.9904 39.1056 74.1888 39.1163C74.8491 39.152 75.4496 39.1733 76.0233 39.1937C76.7698 39.2203 77.4711 39.2452 78.1999 39.298C78.3344 39.298 78.5149 39.5316 78.6786 39.7432ZM71.9742 39.7131C72.186 39.836 72.1625 40.1737 71.9187 40.197C71.894 40.1994 71.8869 40.1951 71.8629 40.1885C71.5914 40.1143 71.3667 39.9925 71.1549 39.8575C71.0457 39.7879 71.0535 39.6207 71.1607 39.548C71.3108 39.4464 71.5029 39.4457 71.6613 39.5338C71.7597 39.5886 71.854 39.6433 71.9483 39.698C71.9569 39.7031 71.9656 39.7081 71.9742 39.7131ZM64.6138 38.898C65.7952 39.398 66.9766 39.598 68.2565 38.798C68.435 38.6772 68.7215 38.6659 69.0289 38.6538C69.0698 38.6522 69.1111 38.6505 69.1526 38.6486C69.4031 38.6372 69.6394 38.8326 69.6574 39.0827C69.6597 39.1152 69.6621 39.1474 69.6643 39.1796C69.7009 39.7143 69.3831 40.1981 68.8472 40.1981C68.4534 40.1481 68.035 40.123 67.6165 40.098C67.1981 40.073 66.7797 40.048 66.3859 39.998C66.0906 39.948 65.7952 39.923 65.4999 39.898C65.2045 39.8731 64.9092 39.848 64.6138 39.798C64.1708 39.748 63.7524 39.698 63.334 39.648C63.0177 39.6102 62.7014 39.5724 62.3744 39.5346C62.1615 39.51 61.9525 39.4593 61.7429 39.415C61.7152 39.4092 61.6878 39.4036 61.6603 39.398C61.654 39.3968 61.6478 39.3955 61.6414 39.3942C61.4659 39.3585 61.4194 39.1566 61.5619 39.048C61.5699 39.042 61.5779 39.0359 61.5859 39.0298C61.7739 38.8862 61.9644 38.7414 62.1526 38.598C62.3351 38.459 62.5701 38.4363 62.7949 38.4827C62.9679 38.5184 63.1449 38.5472 63.3229 38.5762C63.7604 38.6475 64.2045 38.7199 64.6138 38.898ZM63.4058 41.289C63.5591 41.4017 63.5957 41.6413 63.4489 41.7623C63.3593 41.8361 63.2621 41.9022 63.1504 41.9536C63.0785 41.9866 63.0014 42.0417 62.9267 42.0154C62.9144 42.011 62.9015 42.0052 62.8883 41.9981C62.6652 41.8785 62.6889 41.5533 62.8665 41.3729L62.9058 41.333C63.0398 41.1969 63.2519 41.1759 63.4058 41.289ZM61.669 38.3056C61.6294 38.3007 61.6093 38.2499 61.6373 38.2215C61.651 38.2075 61.6722 38.2041 61.6897 38.2129C61.8768 38.3077 62.0639 38.398 62.2511 38.398C62.1526 38.398 62.0295 38.373 61.9065 38.348C61.8249 38.3315 61.7434 38.3149 61.669 38.3056ZM62.4479 31.398C62.2256 31.398 62.2642 31.0996 62.4866 31.0982C62.5056 31.098 62.5254 31.098 62.5464 31.098H63.4834C63.5096 31.098 63.5309 31.0768 63.5309 31.0506C63.5309 31.0225 63.5552 31.0005 63.5831 31.0034L66.4844 31.298C66.5331 31.298 66.5818 31.3225 66.6305 31.3594C66.6909 31.4051 66.6546 31.5238 66.5828 31.548C66.509 31.573 66.4352 31.598 66.3859 31.598C65.0076 31.598 63.7278 31.498 62.4479 31.398ZM65.4531 38.6491C65.3917 38.4999 65.4796 38.3403 65.6219 38.2643C65.6901 38.2277 65.7573 38.1981 65.7952 38.1981C65.9144 38.1981 65.9976 38.2714 66.0883 38.3514C66.1804 38.4327 66.2002 38.588 66.1078 38.6687C66.0627 38.7081 66.0074 38.7544 65.9364 38.8114C65.801 38.92 65.5978 38.9095 65.5091 38.7603C65.4871 38.7232 65.4684 38.6861 65.4531 38.6491ZM65.8645 35.5036C65.7689 35.4743 65.7708 35.3289 65.8674 35.3033C66.1309 35.2334 66.4189 35.151 66.783 35.03C66.8451 35.0093 66.9121 35.0062 66.9749 35.0245C67.11 35.0639 67.2461 35.1131 67.3871 35.1641C67.5713 35.2307 67.5633 35.5362 67.3717 35.5765C67.1887 35.6149 66.9999 35.6533 66.8107 35.6917C66.7901 35.6959 66.7691 35.6982 66.7481 35.6976C66.4761 35.6905 66.1607 35.5941 65.8645 35.5036ZM59.3551 31.002C59.4574 31.0764 59.4409 31.2827 59.319 31.3167C59.1478 31.3644 58.9765 31.398 58.8053 31.398C56.4425 31.298 54.0797 31.098 51.8154 30.898C51.2407 30.8008 50.666 30.7981 50.0914 30.798C50.0648 30.798 50.0433 30.8196 50.0433 30.8461C50.0433 30.8741 50.0195 30.8962 49.9915 30.894C49.3676 30.844 48.721 30.771 48.0743 30.698C47.4098 30.623 46.7453 30.548 46.1053 30.498C45.942 30.498 45.8088 30.4675 45.689 30.4232C45.6181 30.397 45.6382 30.2667 45.7115 30.248C45.81 30.223 45.9084 30.198 46.0069 30.198C47.3852 30.198 48.8619 30.198 50.2402 30.298C53.0952 30.398 56.0487 30.598 58.9038 30.798C59.0744 30.798 59.2122 30.8982 59.3551 31.002ZM54.478 38.4334C54.8256 38.5117 54.8065 39.0306 54.4882 39.1909C54.4816 39.1942 54.475 39.1975 54.4685 39.2008C54.35 39.2606 54.2085 39.2517 54.0984 39.1777C53.9728 39.0931 53.8508 39.0124 53.7405 38.9434C53.6381 38.8794 53.6329 38.708 53.73 38.6362C53.8853 38.5214 54.0519 38.398 54.1782 38.398C54.2781 38.398 54.378 38.4109 54.478 38.4334ZM52.4859 37.667C52.6131 37.7249 52.6319 37.9081 52.5097 37.9756C52.2856 38.0994 52.0326 38.2106 51.7775 38.2819C51.7374 38.2931 51.6986 38.311 51.6573 38.3163C51.562 38.3285 51.451 38.271 51.3415 38.1879C51.173 38.0599 51.2112 37.7842 51.3769 37.6527C51.5899 37.4838 51.8701 37.4207 52.1252 37.5144C52.2588 37.5635 52.3764 37.6171 52.4859 37.667ZM47.9831 40.9853C47.8572 41.0603 47.7017 41.0588 47.571 40.9924L46.8111 40.6065C46.7315 40.5661 46.7388 40.4467 46.8219 40.4145C47.0789 40.3148 47.3797 40.1981 47.6805 40.1981C47.933 40.1981 48.145 40.3214 48.3425 40.4362C48.4436 40.4951 48.4412 40.6962 48.3417 40.7579C48.3167 40.7734 48.2915 40.7895 48.2659 40.806L48.2083 40.8434C48.139 40.8885 48.0654 40.9363 47.9831 40.9853ZM49.6151 14.1655C49.5748 14.186 49.5273 14.186 49.487 14.1655L49.3474 14.0946C49.25 14.0451 49.2756 13.8283 49.3751 13.7829C49.4725 13.7385 49.561 13.698 49.6495 13.698C49.652 13.698 49.6545 13.6981 49.6571 13.6982C49.8757 13.7087 49.8673 14.0374 49.6722 14.1365L49.6151 14.1655ZM43.8388 30.2514C43.9308 30.3327 43.9445 30.4845 43.8322 30.534C43.7452 30.5724 43.6454 30.598 43.5457 30.598C43.2211 30.598 42.8965 30.5872 42.5683 30.5762C41.9013 30.5538 41.2196 30.531 40.4937 30.598C40.0999 30.598 39.7307 30.573 39.3615 30.548C38.9924 30.523 38.6232 30.498 38.2294 30.498C37.9957 30.498 37.8236 30.4354 37.6156 30.3598C37.5595 30.3393 37.5595 30.2568 37.6156 30.2363C37.7845 30.1749 37.9297 30.1221 38.1034 30.1044C38.187 30.0958 38.2711 30.0917 38.3544 30.0808C38.9715 30.0005 39.5119 29.9981 40.0499 29.998C40.0775 29.998 40.0999 29.9757 40.0999 29.948C40.0999 29.9204 40.1222 29.898 40.1499 29.8981C41.1512 29.9009 42.235 29.9875 43.3241 30.0793L43.5457 30.098C43.6649 30.098 43.748 30.1714 43.8388 30.2514ZM31.6333 29.698C33.11 29.698 34.5868 29.698 36.0635 29.798C36.2139 29.798 36.4218 29.9148 36.5993 30.0145C36.6561 30.0463 36.65 30.1367 36.5914 30.1649C36.5428 30.1883 36.4962 30.2131 36.4504 30.2375C36.2951 30.3203 36.1492 30.398 35.965 30.398C34.2914 30.398 32.7162 30.298 31.141 30.198L19.9178 29.898C19.7681 29.898 19.5931 29.898 19.4184 29.885C19.0921 29.8607 18.7571 29.8019 18.4682 29.6483C18.4615 29.6447 18.4547 29.6411 18.448 29.6375C18.3931 29.6083 18.4136 29.4595 18.4736 29.4434C18.5831 29.4142 18.7014 29.376 18.8218 29.3356C18.8766 29.3173 18.9333 29.3579 18.9333 29.4157C18.9333 29.4615 18.9699 29.4989 19.0157 29.5C21.1049 29.5487 23.1941 29.5734 25.2833 29.598C27.3999 29.623 29.5166 29.6481 31.6333 29.698ZM11.5767 29.3036C11.8757 29.3643 11.8761 29.8332 11.5845 29.923C11.5323 29.9391 11.4796 29.9559 11.4261 29.9736C11.3779 29.9894 11.3265 29.9938 11.2766 29.9846C10.9621 29.927 10.6488 29.8434 10.3515 29.7641C10.2134 29.7273 10.2212 29.5063 10.3621 29.4824L11.4238 29.3027C11.442 29.2996 11.4604 29.298 11.4788 29.298H11.5219C11.5403 29.298 11.5587 29.2999 11.5767 29.3036ZM7.90462 29.4017C8.16545 29.4219 8.16858 29.798 7.90697 29.798C6.62713 29.698 5.44573 29.698 3.96899 29.598C3.84916 29.598 3.87104 29.4594 3.9831 29.417C4.00764 29.4077 4.03071 29.4008 4.05354 29.3987C4.06276 29.3979 4.07208 29.3973 4.08122 29.3957C4.59144 29.3105 5.02955 29.2996 5.58736 29.2982C5.75516 29.2978 5.92243 29.3138 6.08903 29.3339C6.62012 29.398 7.21432 29.398 7.80852 29.398C7.84175 29.398 7.87374 29.3993 7.90462 29.4017ZM39.5613 14.0864C39.2701 14.0138 39.2706 13.6213 39.5703 13.6048C39.6503 13.6004 39.7286 13.598 39.8046 13.598C40.1026 13.598 40.4571 13.6553 40.8252 13.7265C40.9045 13.7419 40.9049 13.8562 40.826 13.8731C40.4877 13.9454 40.1494 14.0177 39.662 14.0901C39.6262 14.0954 39.5965 14.0951 39.5613 14.0864ZM57.4843 38.8191C57.6383 38.9438 57.8233 39.0103 57.9774 38.8858C57.9901 38.8756 58.003 38.865 58.0162 38.8543C58.1529 38.7428 58.1489 38.459 57.996 38.371C57.9538 38.3467 57.9119 38.3224 57.87 38.298C57.804 38.2597 57.7379 38.2214 57.6705 38.183C57.4692 38.0686 57.2157 38.1142 57.0023 38.2039C56.9102 38.2427 56.9125 38.35 56.9915 38.4112C57.0874 38.4856 57.1834 38.5668 57.2794 38.648C57.2886 38.6559 57.2979 38.6637 57.3071 38.6715C57.3662 38.7215 57.4253 38.7712 57.4843 38.8191ZM82.5781 37.1744C82.433 37.0653 82.2358 37.0644 82.0894 37.1718C82.0815 37.1777 82.0737 37.1834 82.066 37.189C82.0215 37.2217 81.9818 37.2509 81.9428 37.278C81.8635 37.3332 81.8635 37.4627 81.9472 37.5108C82.0059 37.5445 82.0684 37.5805 82.1334 37.6159C82.3883 37.7549 82.685 37.783 82.9254 37.6203C82.997 37.5718 82.9865 37.4453 82.9111 37.403C82.7964 37.3386 82.6912 37.2595 82.5781 37.1744Z" fill="#36BA5F"/>
<path fill-rule="evenodd" clip-rule="evenodd" d="M61.669 38.3056C61.6294 38.3007 61.6093 38.2499 61.6373 38.2215C61.651 38.2075 61.6722 38.2041 61.6897 38.2129C61.8768 38.3077 62.0639 38.398 62.2511 38.398C62.1526 38.398 62.0295 38.373 61.9065 38.348C61.8249 38.3315 61.7434 38.3149 61.669 38.3056ZM72.9354 31.7065C72.8733 31.71 72.8113 31.7134 72.7495 31.7166C72.7286 31.7103 72.7077 31.7041 72.6867 31.698L72.9354 31.7065ZM82.066 37.189C82.0737 37.1834 82.0815 37.1777 82.0894 37.1718C82.2358 37.0644 82.433 37.0653 82.5781 37.1744C82.6912 37.2595 82.7964 37.3386 82.9111 37.403C82.9865 37.4453 82.997 37.5718 82.9254 37.6203C82.685 37.783 82.3883 37.7549 82.1334 37.6159C82.0684 37.5805 82.0059 37.5445 81.9472 37.5108C81.8635 37.4627 81.8635 37.3332 81.9428 37.278C81.9818 37.2509 82.0215 37.2217 82.066 37.189Z" fill="#36BA5F"/>
</g>
<defs>
<filter id="filter0_d" x="0" y="0.998047" width="108" height="50.998" filterUnits="userSpaceOnUse" color-interpolation-filters="sRGB">
<feFlood flood-opacity="0" result="BackgroundImageFix"/>
<feColorMatrix in="SourceAlpha" type="matrix" values="0 0 0 0 0 0 0 0 0 0 0 0 0 0 0 0 0 0 127 0"/>
<feOffset dx="2"/>
<feGaussianBlur stdDeviation="2"/>
<feColorMatrix type="matrix" values="0 0 0 0 0.211765 0 0 0 0 0.729412 0 0 0 0 0.372549 0 0 0 0.6 0"/>
<feBlend mode="normal" in2="BackgroundImageFix" result="effect1_dropShadow"/>
<feBlend mode="normal" in="SourceGraphic" in2="effect1_dropShadow" result="shape"/>
</filter>
</defs>
</svg>
