<svg width="61" height="25" viewBox="0 0 61 25" fill="none" xmlns="http://www.w3.org/2000/svg">
<g clip-path="url(#clip0)">
<path d="M11.1328 3.14024C10.4192 3.96296 9.27748 4.61187 8.13574 4.51917C7.99302 3.40676 8.552 2.22482 9.20612 1.4948C9.91971 0.648906 11.1685 0.0463504 12.1794 0C12.2983 1.15876 11.8345 2.29435 11.1328 3.14024ZM12.1675 4.73933C10.5144 4.64663 9.09909 5.65475 8.31414 5.65475C7.5173 5.65475 6.31609 4.78568 5.00785 4.80886C3.30713 4.83203 1.72534 5.77063 0.857143 7.26543C-0.926828 10.255 0.39331 14.6815 2.11782 17.1149C2.96223 18.32 3.97314 19.641 5.30518 19.5946C6.56585 19.5483 7.06536 18.7951 8.58768 18.7951C10.1219 18.7951 10.5619 19.5946 11.894 19.5715C13.2736 19.5483 14.1418 18.3664 14.9862 17.1612C15.9495 15.7939 16.342 14.4613 16.3658 14.3918C16.342 14.3686 13.7017 13.3837 13.6779 10.4173C13.6542 7.93751 15.7592 6.75557 15.8544 6.68605C14.6651 4.97108 12.8097 4.78568 12.1675 4.73933ZM21.7177 1.37892V19.444H24.5958V13.2678H28.58C32.2193 13.2678 34.7764 10.8344 34.7764 7.31178C34.7764 3.78915 32.2669 1.37892 28.6752 1.37892H21.7177ZM24.5958 3.7428H27.914C30.4116 3.7428 31.8388 5.04061 31.8388 7.32337C31.8388 9.60612 30.4116 10.9155 27.9021 10.9155H24.5958V3.7428ZM40.0331 19.5831C41.8409 19.5831 43.5178 18.6908 44.279 17.2771H44.3384V19.444H47.0025V10.452C47.0025 7.84481 44.8617 6.16461 41.5673 6.16461C38.5108 6.16461 36.2511 7.86798 36.1679 10.2087H38.7606C38.9746 9.09627 40.0331 8.36625 41.4841 8.36625C43.2443 8.36625 44.2314 9.1658 44.2314 10.6374V11.634L40.6397 11.8425C37.2977 12.0395 35.49 13.3721 35.49 15.6896C35.49 18.0303 37.3572 19.5831 40.0331 19.5831ZM40.8062 17.4393C39.272 17.4393 38.2967 16.7209 38.2967 15.6201C38.2967 14.4845 39.2363 13.824 41.0322 13.7197L44.2314 13.5227V14.5424C44.2314 16.2342 42.7567 17.4393 40.8062 17.4393ZM50.5586 24.3571C53.3653 24.3571 54.6855 23.3143 55.8391 20.1508L60.8937 6.33842H57.968L54.5784 17.0106H54.519L51.1294 6.33842H48.1205L52.9967 19.4904L52.735 20.2899C52.295 21.6456 51.5814 22.1671 50.3088 22.1671C50.0828 22.1671 49.6428 22.1439 49.4644 22.1207V24.2876C49.6309 24.334 50.3445 24.3571 50.5586 24.3571Z" fill="#141414"/>
</g>
<defs>
<clipPath id="clip0">
<rect width="60.8929" height="24.3571" fill="white"/>
</clipPath>
</defs>
</svg>
