<svg width="55" height="22" viewBox="0 0 55 22" fill="none" xmlns="http://www.w3.org/2000/svg">
<g clip-path="url(#clip0)">
<path d="M10.0552 2.83635C9.41069 3.57945 8.37944 4.16556 7.34819 4.08183C7.21929 3.07707 7.72417 2.00951 8.31499 1.35014C8.95952 0.586108 10.0875 0.0418649 11.0005 0C11.108 1.04662 10.689 2.07231 10.0552 2.83635ZM10.9898 4.28068C9.49663 4.19696 8.21831 5.10752 7.50933 5.10752C6.7896 5.10752 5.70464 4.32255 4.523 4.34348C2.98686 4.36441 1.55815 5.21218 0.773973 6.56232C-0.837355 9.26261 0.355027 13.2607 1.91264 15.4586C2.67534 16.5471 3.58843 17.7402 4.79155 17.6984C5.93022 17.6565 6.38139 16.9762 7.75639 16.9762C9.14214 16.9762 9.5396 17.6984 10.7427 17.6774C11.9888 17.6565 12.773 16.589 13.5357 15.5005C14.4058 14.2655 14.7603 13.0618 14.7818 12.999C14.7603 12.9781 12.3755 12.0885 12.3541 9.40913C12.3326 7.16936 14.2339 6.10181 14.3199 6.03901C13.2457 4.49001 11.5699 4.32255 10.9898 4.28068ZM19.6158 1.24548V17.5623H22.2154V11.9838H25.814C29.1011 11.9838 31.4107 9.78592 31.4107 6.60419C31.4107 3.42245 29.1441 1.24548 25.9 1.24548H19.6158ZM22.2154 3.38059H25.2125C27.4683 3.38059 28.7574 4.55281 28.7574 6.61465C28.7574 8.6765 27.4683 9.85918 25.2017 9.85918H22.2154V3.38059ZM36.1587 17.6879C37.7916 17.6879 39.3062 16.882 39.9937 15.6051H40.0474V17.5623H42.4537V9.44053C42.4537 7.08563 40.5201 5.56803 37.5445 5.56803C34.7837 5.56803 32.7427 7.10656 32.6675 9.22074H35.0093C35.2027 8.21598 36.1587 7.55661 37.4693 7.55661C39.0591 7.55661 39.9507 8.27878 39.9507 9.60799V10.5081L36.7066 10.6965C33.688 10.8744 32.0552 12.078 32.0552 14.1713C32.0552 16.2854 33.7417 17.6879 36.1587 17.6879ZM36.857 15.7517C35.4712 15.7517 34.5904 15.1028 34.5904 14.1085C34.5904 13.0828 35.439 12.4862 37.0611 12.392L39.9507 12.2141V13.1351C39.9507 14.6632 38.6187 15.7517 36.857 15.7517ZM45.6656 22C48.2007 22 49.3931 21.058 50.4351 18.2008L55.0005 5.72502H52.358L49.2964 15.3644H49.2427L46.1812 5.72502H43.4634L47.8677 17.6042L47.6314 18.3264C47.2339 19.5509 46.5894 20.0219 45.44 20.0219C45.2359 20.0219 44.8384 20.0009 44.6773 19.98V21.9372C44.8277 21.9791 45.4722 22 45.6656 22Z" fill="black"/>
</g>
<defs>
<clipPath id="clip0">
<rect width="55" height="22" fill="white"/>
</clipPath>
</defs>
</svg>
