<svg width="14" height="15" viewBox="0 0 14 15" fill="none" xmlns="http://www.w3.org/2000/svg">
<path fill-rule="evenodd" clip-rule="evenodd" d="M3.14173 0.766423C3.05041 0.766423 2.97638 0.839953 2.97638 0.930657V3.12044C2.97638 3.21114 3.05041 3.28467 3.14173 3.28467C3.23305 3.28467 3.30709 3.21114 3.30709 3.12044V0.930657C3.30709 0.839953 3.23305 0.766423 3.14173 0.766423ZM2.20472 0.930657C2.20472 0.416669 2.62424 0 3.14173 0C3.65923 0 4.07874 0.416669 4.07874 0.930657V1.64234H9.92126V0.930657C9.92126 0.416669 10.3408 0 10.8583 0C11.3758 0 11.7953 0.416669 11.7953 0.930657V1.64234H13.063C13.5805 1.64234 14 2.05901 14 2.57299V14.0693C14 14.5833 13.5805 15 13.063 15H0.937008C0.419513 15 0 14.5833 0 14.0693V2.57299C0 2.059 0.419513 1.64234 0.937008 1.64234H2.20472V0.930657ZM2.20472 2.40876H0.937008C0.845685 2.40876 0.771653 2.48229 0.771653 2.57299V4.37956H13.2283V2.57299C13.2283 2.48229 13.1543 2.40876 13.063 2.40876H11.7953V3.12044C11.7953 3.63443 11.3758 4.05109 10.8583 4.05109C10.3408 4.05109 9.92126 3.63443 9.92126 3.12044V2.40876H4.07874V3.12044C4.07874 3.63443 3.65923 4.05109 3.14173 4.05109C2.62424 4.05109 2.20472 3.63443 2.20472 3.12044V2.40876ZM13.2283 5.14599H0.771653V14.0693C0.771653 14.16 0.845685 14.2336 0.937008 14.2336H13.063C13.1543 14.2336 13.2283 14.16 13.2283 14.0693V5.14599ZM10.8583 0.766423C10.7669 0.766423 10.6929 0.839953 10.6929 0.930657V3.12044C10.6929 3.21114 10.7669 3.28467 10.8583 3.28467C10.9496 3.28467 11.0236 3.21114 11.0236 3.12044V0.930657C11.0236 0.839953 10.9496 0.766423 10.8583 0.766423ZM9.96039 6.62759C10.1411 6.73976 10.196 6.97618 10.0831 7.15566L7.6944 10.9517C7.37503 11.4592 6.66334 11.5397 6.23725 11.1165L4.52245 9.41331C4.37178 9.26365 4.37178 9.02102 4.52245 8.87136C4.67313 8.72171 4.91742 8.72171 5.0681 8.87136L6.78289 10.5745C6.85808 10.6492 6.98368 10.635 7.04004 10.5455L9.42873 6.74945C9.54166 6.56998 9.7797 6.51542 9.96039 6.62759Z" fill="#989898"/>
</svg>
