<svg width="55" height="40" viewBox="0 0 55 40" fill="none" xmlns="http://www.w3.org/2000/svg">
<path d="M3.12812 0C1.41367 0 0 1.38936 0 3.07432V31.3514C0 33.1461 1.47383 34.5946 3.3 34.5946H7.80312C8.32734 37.6605 11.0387 40 14.3 40C17.5613 40 20.2727 37.6605 20.7969 34.5946H30.9719C31.784 34.5946 32.5102 34.2568 33.0687 33.75C33.6402 34.2441 34.3707 34.5862 35.2 34.5946H36.4031C36.9273 37.6605 39.6387 40 42.9 40C46.5309 40 49.5 37.0819 49.5 33.5135C49.5 29.9451 46.5309 27.027 42.9 27.027C39.6387 27.027 36.9273 29.3666 36.4031 32.4324H35.2C34.9938 32.4324 34.6801 32.2931 34.4437 32.0608C34.2074 31.8285 34.1 31.5498 34.1 31.3514V10.8108C34.1 10.4054 34.7875 9.72973 35.2 9.72973H44C44.8637 9.72973 46.0797 10.6377 46.9219 11.6216C46.9305 11.6343 46.9477 11.6427 46.9562 11.6554L47.1281 11.8919H41.8C40.0469 11.8919 38.5 13.2855 38.5 15.1351V19.4595C38.5 20.359 38.9125 21.1486 39.4969 21.723C40.0812 22.2973 40.8848 22.7027 41.8 22.7027H52.8V31.3514C52.8 31.7568 52.1125 32.4324 51.7 32.4324H49.5V34.5946H51.7C53.5262 34.5946 55 33.1461 55 31.3514V20.9459C55 18.4713 53.2469 16.2838 53.2469 16.2838H53.2125L48.675 10.3378V10.3041L48.6406 10.2703C47.6266 9.06672 46.1055 7.56757 44 7.56757H35.2C34.809 7.56757 34.448 7.6478 34.1 7.77027V3.14189C34.1 1.48226 32.768 0 31.0063 0H3.12812ZM3.12812 2.16216H31.0063C31.4789 2.16216 31.9 2.6098 31.9 3.14189V31.5203C31.9 32.027 31.4918 32.4324 30.9719 32.4324H20.7969C20.2727 29.3666 17.5613 27.027 14.3 27.027C11.0387 27.027 8.32734 29.3666 7.80312 32.4324H3.3C2.8875 32.4324 2.2 31.7525 2.2 31.3514V3.07432C2.2 2.56757 2.60391 2.16216 3.12812 2.16216ZM41.8 14.0541H48.7781L51.4594 17.5676C51.4594 17.5676 52.4562 19.2441 52.6625 20.5405H41.8C41.6152 20.5405 41.3187 20.4054 41.0781 20.1689C40.8375 19.9324 40.7 19.641 40.7 19.4595V15.1351C40.7 14.5904 41.3531 14.0541 41.8 14.0541ZM14.3 29.1892C16.7449 29.1892 18.7 31.1106 18.7 33.5135C18.7 35.9164 16.7449 37.8378 14.3 37.8378C11.8551 37.8378 9.9 35.9164 9.9 33.5135C9.9 31.1106 11.8551 29.1892 14.3 29.1892ZM42.9 29.1892C45.3449 29.1892 47.3 31.1106 47.3 33.5135C47.3 35.9164 45.3449 37.8378 42.9 37.8378C40.4551 37.8378 38.5 35.9164 38.5 33.5135C38.5 31.1106 40.4551 29.1892 42.9 29.1892Z" fill="#FF5B5B"/>
</svg>
