<svg width="16" height="11" viewBox="0 0 16 11" fill="none" xmlns="http://www.w3.org/2000/svg">
<path fill-rule="evenodd" clip-rule="evenodd" d="M15.2 3.685H0.8V9.9C0.8 10.0823 0.953503 10.23 1.14286 10.23H14.8571C15.0465 10.23 15.2 10.0823 15.2 9.9V3.685ZM15.2 2.915H0.8V1.1C0.8 0.917746 0.953502 0.77 1.14286 0.77H14.8571C15.0465 0.77 15.2 0.917746 15.2 1.1V2.915ZM16 1.1C16 0.492487 15.4883 0 14.8571 0H1.14286C0.511675 0 0 0.492487 0 1.1V9.9C0 10.5075 0.511675 11 1.14286 11H14.8571C15.4883 11 16 10.5075 16 9.9V1.1ZM13.3143 7.975C13.3143 7.732 13.1096 7.535 12.8571 7.535C12.6047 7.535 12.4 7.732 12.4 7.975C12.4 8.21801 12.6047 8.415 12.8571 8.415C13.1096 8.415 13.3143 8.21801 13.3143 7.975ZM12.8571 6.765C13.5514 6.765 14.1143 7.30674 14.1143 7.975C14.1143 8.64326 13.5514 9.185 12.8571 9.185C12.1628 9.185 11.6 8.64326 11.6 7.975C11.6 7.30674 12.1628 6.765 12.8571 6.765ZM10.4571 7.975C10.4571 7.732 10.2525 7.535 10 7.535C9.74753 7.535 9.54286 7.732 9.54286 7.975C9.54286 8.21801 9.74753 8.415 10 8.415C10.2525 8.415 10.4571 8.21801 10.4571 7.975ZM10 6.765C10.6943 6.765 11.2571 7.30674 11.2571 7.975C11.2571 8.64326 10.6943 9.185 10 9.185C9.3057 9.185 8.74286 8.64326 8.74286 7.975C8.74286 7.30674 9.3057 6.765 10 6.765Z" fill="#989898"/>
</svg>
