<svg width="11" height="17" viewBox="0 0 11 17" fill="none" xmlns="http://www.w3.org/2000/svg">
<path d="M0.32626 1.03506e-05C0.140635 0.0168854 -0.00139581 0.172979 1.03506e-05 0.36001V16.2C1.03506e-05 16.3983 0.161729 16.56 0.36001 16.56H10.44C10.6383 16.56 10.8 16.3983 10.8 16.2V0.36001C10.8 0.34876 10.8 0.33751 10.8 0.32626C10.7831 0.140635 10.627 -0.00139581 10.44 1.03506e-05H0.36001C0.34876 1.03506e-05 0.33751 1.03506e-05 0.32626 1.03506e-05ZM0.72001 0.72001H10.08V15.84H0.72001V0.72001ZM8.82001 7.92001C8.52189 7.92001 8.28001 8.16189 8.28001 8.46001C8.28001 8.75814 8.52189 9.00001 8.82001 9.00001C9.11814 9.00001 9.36001 8.75814 9.36001 8.46001C9.36001 8.16189 9.11814 7.92001 8.82001 7.92001Z" fill="#141414"/>
</svg>
