<svg width="16" height="16" viewBox="0 0 16 16" fill="none" xmlns="http://www.w3.org/2000/svg">
<path d="M7.99975 0.830017L7.83975 0.990017L7.80975 1.01002C7.77725 1.03502 7.751 1.06502 7.72975 1.10002L5.20975 3.61002C5.101 3.71252 5.076 3.87627 5.14975 4.00627C5.2235 4.13627 5.376 4.20002 5.51975 4.16002C5.57725 4.14377 5.6285 4.11377 5.66975 4.07002L7.67975 2.06002V10.56C7.67725 10.6588 7.721 10.7525 7.79725 10.815C7.87225 10.8775 7.9735 10.9013 8.06975 10.88C8.10225 10.8713 8.13225 10.8575 8.15975 10.84C8.166 10.8375 8.1735 10.8338 8.17975 10.83C8.1985 10.815 8.21475 10.7988 8.22975 10.78C8.2535 10.76 8.2735 10.7363 8.28975 10.71C8.30475 10.6788 8.31475 10.645 8.31975 10.61C8.321 10.5938 8.321 10.5763 8.31975 10.56V2.06002L10.3297 4.07002C10.4072 4.14877 10.521 4.18377 10.6297 4.16002C10.661 4.15127 10.6922 4.13752 10.7197 4.12002C10.7297 4.11752 10.7397 4.11377 10.7497 4.11002C10.7685 4.09502 10.7847 4.07877 10.7997 4.06002C10.9172 3.93127 10.9135 3.73252 10.7897 3.61002L8.26975 1.10002C8.2635 1.09002 8.25725 1.08002 8.24975 1.07002C8.2435 1.06252 8.23725 1.05627 8.22975 1.05002C8.21975 1.04252 8.20975 1.03627 8.19975 1.03002L7.99975 0.830017ZM0.929746 5.11002C0.915996 5.11252 0.902246 5.11627 0.889746 5.12002C0.740996 5.15377 0.635996 5.28752 0.639746 5.44002V15.04H15.3597V5.44002C15.361 5.32502 15.301 5.21752 15.201 5.15877C15.101 5.10127 14.9785 5.10127 14.8785 5.15877C14.7785 5.21752 14.7185 5.32502 14.7197 5.44002V14.4H1.27975V5.44002C1.2835 5.34752 1.246 5.25877 1.17975 5.19627C1.11225 5.13252 1.021 5.10127 0.929746 5.11002Z" fill="#141414"/>
</svg>
