<svg width="16" height="16" viewBox="0 0 16 16" fill="none" xmlns="http://www.w3.org/2000/svg">
<path d="M7.98822 0.319956C7.92049 0.322371 7.85528 0.346225 7.80197 0.388081L0.441974 6.14808C0.408885 6.17401 0.381229 6.20621 0.360585 6.24283C0.339941 6.27945 0.326714 6.31978 0.321659 6.36152C0.316603 6.40325 0.319819 6.44557 0.331122 6.48606C0.342425 6.52656 0.361595 6.56442 0.387535 6.59751C0.413475 6.63059 0.445678 6.65824 0.482305 6.67887C0.518932 6.6995 0.559266 6.71272 0.601001 6.71777C0.642737 6.72281 0.685058 6.71958 0.725547 6.70827C0.766035 6.69696 0.803898 6.67778 0.836974 6.65183L1.27947 6.30558V8.58621C1.27376 8.62076 1.27376 8.65602 1.27947 8.69058V14.72C1.27948 14.8048 1.3132 14.8862 1.37321 14.9462C1.43322 15.0062 1.51461 15.0399 1.59947 15.04H7.94572C7.98028 15.0457 8.01554 15.0457 8.0501 15.04H14.3995C14.4843 15.0399 14.5657 15.0062 14.6257 14.9462C14.6857 14.8862 14.7195 14.8048 14.7195 14.72V8.69371C14.7252 8.65915 14.7252 8.62389 14.7195 8.58933V6.30558L15.162 6.65183C15.195 6.67778 15.2329 6.69695 15.2734 6.70827C15.3139 6.71958 15.3562 6.7228 15.3979 6.71776C15.4397 6.71271 15.48 6.6995 15.5166 6.67886C15.5533 6.65823 15.5855 6.63058 15.6114 6.5975C15.6373 6.56442 15.6565 6.52655 15.6678 6.48606C15.6791 6.44557 15.6823 6.40325 15.6773 6.36151C15.6722 6.31978 15.659 6.27945 15.6384 6.24283C15.6177 6.20621 15.5901 6.17401 15.557 6.14808L8.19697 0.388081C8.1376 0.341465 8.06366 0.317335 7.98822 0.319956ZM7.67947 1.29683V8.31995H1.91947V5.80433L3.52322 4.54933C3.53915 4.62106 3.57928 4.68513 3.63687 4.73077C3.69446 4.7764 3.766 4.80084 3.83947 4.79996H5.75947C5.80188 4.80056 5.84398 4.79272 5.88333 4.77691C5.92268 4.7611 5.95849 4.73762 5.98869 4.70785C6.01889 4.67807 6.04287 4.64259 6.05924 4.60347C6.0756 4.56435 6.08403 4.52236 6.08403 4.47996C6.08403 4.43755 6.0756 4.39556 6.05924 4.35644C6.04287 4.31732 6.01889 4.28184 5.98869 4.25206C5.95849 4.22229 5.92268 4.19881 5.88333 4.183C5.84398 4.16719 5.80188 4.15936 5.75947 4.15996H4.02072L7.67947 1.29683ZM8.31947 1.29683L11.9782 4.15996H10.2395C10.1971 4.15936 10.155 4.16719 10.1156 4.183C10.0763 4.19881 10.0405 4.22229 10.0103 4.25206C9.98006 4.28184 9.95608 4.31732 9.93971 4.35644C9.92334 4.39556 9.91492 4.43755 9.91492 4.47996C9.91492 4.52236 9.92334 4.56435 9.93971 4.60347C9.95608 4.64259 9.98006 4.67807 10.0103 4.70785C10.0405 4.73762 10.0763 4.7611 10.1156 4.77691C10.155 4.79272 10.1971 4.80056 10.2395 4.79996H12.1595C12.233 4.80101 12.3046 4.77673 12.3623 4.73121C12.42 4.68568 12.4603 4.62168 12.4763 4.54996L14.0795 5.80433V8.31995H8.31947V1.29683ZM1.91947 8.95996H7.67947V14.4H1.91947V8.95996ZM8.31947 8.95996H14.0795V14.4H8.31947V8.95996ZM3.83947 9.91996C3.79707 9.91936 3.75497 9.92719 3.71562 9.943C3.67627 9.95881 3.64046 9.98229 3.61026 10.0121C3.58006 10.0418 3.55608 10.0773 3.53971 10.1164C3.52334 10.1556 3.51492 10.1975 3.51492 10.24C3.51492 10.2824 3.52334 10.3243 3.53971 10.3635C3.55608 10.4026 3.58006 10.4381 3.61026 10.4678C3.64046 10.4976 3.67627 10.5211 3.71562 10.5369C3.75497 10.5527 3.79707 10.5606 3.83947 10.56H5.75947C5.80188 10.5606 5.84398 10.5527 5.88333 10.5369C5.92268 10.5211 5.95849 10.4976 5.98869 10.4678C6.01889 10.4381 6.04287 10.4026 6.05924 10.3635C6.0756 10.3243 6.08403 10.2824 6.08403 10.24C6.08403 10.1975 6.0756 10.1556 6.05924 10.1164C6.04287 10.0773 6.01889 10.0418 5.98869 10.0121C5.95849 9.98229 5.92268 9.95881 5.88333 9.943C5.84398 9.92719 5.80188 9.91936 5.75947 9.91996H3.83947ZM10.2395 9.91996C10.1971 9.91936 10.155 9.92719 10.1156 9.943C10.0763 9.95881 10.0405 9.98229 10.0103 10.0121C9.98006 10.0418 9.95608 10.0773 9.93971 10.1164C9.92334 10.1556 9.91492 10.1975 9.91492 10.24C9.91492 10.2824 9.92334 10.3243 9.93971 10.3635C9.95608 10.4026 9.98006 10.4381 10.0103 10.4678C10.0405 10.4976 10.0763 10.5211 10.1156 10.5369C10.155 10.5527 10.1971 10.5606 10.2395 10.56H12.1595C12.2019 10.5606 12.244 10.5527 12.2833 10.5369C12.3227 10.5211 12.3585 10.4976 12.3887 10.4678C12.4189 10.4381 12.4429 10.4026 12.4592 10.3635C12.4756 10.3243 12.484 10.2824 12.484 10.24C12.484 10.1975 12.4756 10.1556 12.4592 10.1164C12.4429 10.0773 12.4189 10.0418 12.3887 10.0121C12.3585 9.98229 12.3227 9.95881 12.2833 9.943C12.244 9.92719 12.2019 9.91936 12.1595 9.91996H10.2395Z" fill="#141414"/>
</svg>
