<svg width="30" height="30" viewBox="0 0 30 30" fill="none" xmlns="http://www.w3.org/2000/svg">
<mask id="mask0" mask-type="alpha" maskUnits="userSpaceOnUse" x="0" y="0" width="30" height="30">
<rect width="30" height="30" fill="#C4C4C4"/>
</mask>
<g mask="url(#mask0)">
<path d="M14.6351 7.9599L15.081 8.45543L15.527 7.9599C17.614 5.641 20.5958 5.08919 22.9137 6.05029C25.1948 6.9961 26.9582 9.4672 26.4851 13.4884C26.1913 15.9858 24.33 18.485 21.9379 20.6546C19.6719 22.7097 17.0227 24.3852 15.081 25.3857C13.1394 24.3852 10.4901 22.7097 8.22418 20.6546C5.83202 18.485 3.97072 15.9858 3.67692 13.4884C3.20385 9.4672 4.96729 6.9961 7.24836 6.05029C9.56627 5.08919 12.548 5.641 14.6351 7.9599Z" stroke="#141414" stroke-width="1.2"/>
</g>
</svg>
