<svg width="22" height="22" viewBox="0 0 22 22" fill="none" xmlns="http://www.w3.org/2000/svg">
<mask id="mask0" mask-type="alpha" maskUnits="userSpaceOnUse" x="0" y="0" width="22" height="22">
<rect width="22" height="22" fill="#C4C4C4"/>
</mask>
<g mask="url(#mask0)">
<path d="M15.6234 3.00354L13.2249 3C10.5302 3 8.78878 4.64211 8.78878 7.18372V9.1127H6.37715C6.16875 9.1127 6 9.26798 6 9.45951V12.2544C6 12.4459 6.16895 12.601 6.37715 12.601H8.78878V19.6534C8.78878 19.8449 8.95753 20 9.16593 20H12.3124C12.5208 20 12.6896 19.8447 12.6896 19.6534V12.601H15.5093C15.7177 12.601 15.8865 12.4459 15.8865 12.2544L15.8876 9.45951C15.8876 9.36755 15.8478 9.27948 15.7772 9.21439C15.7066 9.14931 15.6103 9.1127 15.5103 9.1127H12.6896V7.47748C12.6896 6.69153 12.8933 6.29254 14.0073 6.29254L15.623 6.29201C15.8312 6.29201 16 6.13673 16 5.94537V3.35018C16 3.15899 15.8314 3.00389 15.6234 3.00354Z" fill="white"/>
</g>
</svg>
