<svg width="16" height="16" viewBox="0 0 16 16" fill="none" xmlns="http://www.w3.org/2000/svg">
<path d="M11.52 0V3.84H7.68V7.68H3.84V11.52H0V16H0.64V12.16H4.48V8.32H8.32V4.48H12.16V0.64H16V0H11.52ZM12.67 7.36C12.4937 7.37875 12.3663 7.53875 12.385 7.715C12.4037 7.89125 12.5638 8.01875 12.74 8H14.59L7.45 15.13C7.3225 15.2575 7.3225 15.4625 7.45 15.59C7.5775 15.7175 7.7825 15.7175 7.91 15.59L15.04 8.45V10.3C15.0387 10.415 15.0988 10.5225 15.1987 10.5813C15.2987 10.6388 15.4212 10.6388 15.5212 10.5813C15.6212 10.5225 15.6812 10.415 15.68 10.3V7.36H12.74C12.7262 7.35875 12.7137 7.35875 12.7 7.36C12.69 7.36 12.68 7.36 12.67 7.36Z" fill="#141414"/>
</svg>
