<svg width="54" height="22" viewBox="0 0 54 22" fill="none" xmlns="http://www.w3.org/2000/svg">
<g clip-path="url(#clip0)">
<path d="M25.4754 10.7478V17.1967H23.4863V1.27072H28.7617C29.3914 1.25719 30.0175 1.37206 30.6038 1.6087C31.1901 1.84534 31.725 2.19906 32.1777 2.64946C32.635 3.07251 32.9989 3.59133 33.2451 4.17106C33.4912 4.75079 33.6138 5.37799 33.6047 6.01051C33.6178 6.64642 33.497 7.27772 33.2507 7.86114C33.0044 8.44457 32.6384 8.96632 32.1777 9.39063C31.2553 10.2954 30.1166 10.7473 28.7617 10.7465H25.4754V10.7478ZM25.4754 3.23145V8.79085H28.8111C29.1768 8.802 29.5408 8.73452 29.8796 8.59274C30.2185 8.45095 30.5249 8.23797 30.7792 7.96743C31.0322 7.71447 31.2332 7.41192 31.3705 7.07765C31.5079 6.74338 31.5786 6.38419 31.5786 6.02132C31.5786 5.65844 31.5079 5.29925 31.3705 4.96498C31.2332 4.63071 31.0322 4.32816 30.7792 4.07521C30.5281 3.79896 30.2228 3.58076 29.8835 3.43508C29.5442 3.2894 29.1787 3.21955 28.8111 3.23018H25.4754V3.23145Z" fill="#5F6368"/>
<path d="M38.1879 5.94446C39.6581 5.94446 40.8186 6.34855 41.6694 7.15673C42.5202 7.96491 42.9452 9.07298 42.9444 10.4809V17.1967H41.0418V15.6845H40.9553C40.1316 16.9298 39.0362 17.5525 37.669 17.5525C36.5019 17.5525 35.5255 17.1967 34.7397 16.4851C34.3626 16.1585 34.0612 15.7495 33.8573 15.2878C33.6534 14.8262 33.5522 14.3235 33.5611 13.8166C33.5611 12.689 33.9754 11.7923 34.804 11.1265C35.6325 10.4606 36.7387 10.1268 38.1224 10.1251C39.3035 10.1251 40.2762 10.3475 41.0405 10.7923V10.3246C41.0428 9.97902 40.9702 9.63722 40.8281 9.32402C40.686 9.01083 40.4779 8.73408 40.2189 8.51386C39.6929 8.02575 39.0074 7.75941 38.2991 7.76794C37.188 7.76794 36.3087 8.24997 35.6614 9.21403L33.9095 8.07927C34.8731 6.65606 36.2993 5.94446 38.1879 5.94446ZM35.6144 13.8611C35.6131 14.1214 35.6723 14.3784 35.787 14.6104C35.9018 14.8425 36.0688 15.0431 36.2741 15.1953C36.7141 15.5512 37.2601 15.7398 37.8197 15.729C38.6591 15.7276 39.4636 15.3839 40.0571 14.7734C40.716 14.1355 41.0455 13.3871 41.0455 12.5281C40.4253 12.0198 39.5605 11.7656 38.451 11.7656C37.643 11.7656 36.9693 11.966 36.4298 12.3667C35.885 12.7733 35.6144 13.2676 35.6144 13.8611Z" fill="#5F6368"/>
<path d="M53.8663 6.30029L47.2245 22.0001H45.1712L47.6359 16.5067L43.2686 6.30029H45.4306L48.5872 14.1279H48.6304L51.7005 6.30029H53.8663Z" fill="#5F6368"/>
<path d="M17.4374 9.35765C17.4382 8.73417 17.3869 8.11178 17.2842 7.49731H8.89551V11.021H13.7002C13.6019 11.5838 13.3938 12.1203 13.0884 12.5981C12.7831 13.076 12.3869 13.4853 11.9236 13.8014V16.0887H14.7911C16.4701 14.4964 17.4374 12.1418 17.4374 9.35765Z" fill="#4285F4"/>
<path d="M8.89494 18.2984C11.2954 18.2984 13.3166 17.4877 14.7905 16.0899L11.923 13.8026C11.1249 14.3592 10.097 14.6769 8.89494 14.6769C6.57476 14.6769 4.60544 13.0681 3.90123 10.9003H0.947266V13.2575C1.68763 14.7728 2.8229 16.0466 4.22633 16.9368C5.62976 17.8269 7.24612 18.2983 8.89494 18.2984Z" fill="#34A853"/>
<path d="M3.90213 10.9002C3.52984 9.76422 3.52984 8.53405 3.90213 7.39808V5.04089H0.948164C0.325342 6.31562 0.000976562 7.7225 0.000976562 9.14914C0.000976562 10.5758 0.325342 11.9826 0.948164 13.2574L3.90213 10.9002Z" fill="#FBBC04"/>
<path d="M8.89494 3.62155C10.1635 3.60023 11.3892 4.09321 12.3073 4.99392L14.8461 2.38259C13.2362 0.827326 11.1035 -0.0265415 8.89494 -1.0079e-05C7.24612 6.72128e-05 5.62976 0.471497 4.22633 1.36165C2.8229 2.2518 1.68763 3.52563 0.947266 5.04094L3.90124 7.39813C4.60544 5.23028 6.57476 3.62155 8.89494 3.62155Z" fill="#EA4335"/>
</g>
<defs>
<clipPath id="clip0">
<rect width="53.8621" height="22" fill="white"/>
</clipPath>
</defs>
</svg>
