<svg width="60" height="25" viewBox="0 0 60 25" fill="none" xmlns="http://www.w3.org/2000/svg">
<g clip-path="url(#clip0)">
<path d="M28.2061 11.8994V19.0392H26.0039V1.40695H31.8445C32.5417 1.39197 33.2348 1.51914 33.8839 1.78114C34.5331 2.04313 35.1253 2.43475 35.6265 2.9334C36.1328 3.40178 36.5357 3.97619 36.8082 4.61803C37.0807 5.25988 37.2165 5.95428 37.2064 6.65457C37.2209 7.35861 37.0872 8.05755 36.8145 8.70348C36.5418 9.34941 36.1366 9.92707 35.6265 10.3968C34.6052 11.3985 33.3446 11.8989 31.8445 11.898H28.2061V11.8994ZM28.2061 3.57775V9.7328H31.8992C32.3041 9.74515 32.707 9.67044 33.0822 9.51346C33.4574 9.35648 33.7966 9.12068 34.0782 8.82115C34.3582 8.5411 34.5808 8.20612 34.7329 7.83604C34.8849 7.46596 34.9632 7.06828 34.9632 6.66653C34.9632 6.26477 34.8849 5.8671 34.7329 5.49702C34.5808 5.12694 34.3582 4.79196 34.0782 4.51191C33.8002 4.20606 33.4621 3.96449 33.0865 3.8032C32.7108 3.6419 32.3061 3.56458 31.8992 3.57634H28.2061V3.57775Z" fill="#141414"/>
<path d="M42.2793 6.5813C43.9071 6.5813 45.1919 7.02868 46.1339 7.92345C47.0758 8.81822 47.5464 10.045 47.5455 11.6038V19.0391H45.439V17.365H45.3433C44.4314 18.7437 43.2186 19.4331 41.7049 19.4331C40.4127 19.4331 39.3317 19.0391 38.4618 18.2513C38.0443 17.8897 37.7105 17.4368 37.4847 16.9257C37.259 16.4146 37.147 15.8581 37.1568 15.2969C37.1568 14.0485 37.6155 13.0557 38.5329 12.3185C39.4502 11.5813 40.6749 11.2118 42.2069 11.2099C43.5145 11.2099 44.5914 11.4561 45.4377 11.9485V11.4308C45.4401 11.0481 45.3598 10.6697 45.2025 10.323C45.0452 9.97621 44.8148 9.66981 44.528 9.42599C43.9457 8.88558 43.1867 8.59071 42.4025 8.60016C41.1723 8.60016 40.1989 9.13383 39.4821 10.2012L37.5426 8.94484C38.6095 7.36915 40.1884 6.5813 42.2793 6.5813ZM39.4302 15.3461C39.4287 15.6344 39.4942 15.9188 39.6213 16.1758C39.7483 16.4327 39.9332 16.6547 40.1606 16.8233C40.6476 17.2174 41.2522 17.4261 41.8717 17.4142C42.801 17.4126 43.6918 17.0322 44.3489 16.3562C45.0784 15.65 45.4431 14.8213 45.4431 13.8703C44.7565 13.3075 43.799 13.0262 42.5707 13.0262C41.6761 13.0262 40.9302 13.248 40.3329 13.6916C39.7297 14.1418 39.4302 14.6891 39.4302 15.3461Z" fill="#141414"/>
<path d="M59.6355 6.97534L52.2821 24.3572H50.0088L52.7376 18.2753L47.9023 6.97534H50.296L53.7908 15.6417H53.8387L57.2377 6.97534H59.6355Z" fill="#141414"/>
<path d="M19.3048 10.3602C19.3056 9.66992 19.2489 8.98084 19.1352 8.30054H9.84766V12.2018H15.1671C15.0583 12.8249 14.8279 13.4188 14.4898 13.9479C14.1518 14.4769 13.7131 14.9301 13.2002 15.28V17.8124H16.3749C18.2338 16.0496 19.3048 13.4426 19.3048 10.3602Z" fill="#141414"/>
<path d="M9.84999 20.2589C12.5077 20.2589 14.7454 19.3613 16.3772 17.8138L13.2025 15.2814C12.3189 15.8976 11.1809 16.2493 9.84999 16.2493C7.28122 16.2493 5.10091 14.4682 4.32125 12.0681H1.05078V14.6779C1.87047 16.3555 3.12738 17.7658 4.68118 18.7514C6.23498 19.7369 8.02451 20.2588 9.84999 20.2589Z" fill="#323232"/>
<path d="M4.31914 12.0681C3.90696 10.8105 3.90696 9.44848 4.31914 8.1908V5.58105H1.04867C0.359119 6.99236 0 8.54997 0 10.1295C0 11.709 0.359119 13.2666 1.04867 14.6779L4.31914 12.0681Z" fill="#505050"/>
<path d="M9.84999 4.00951C11.2545 3.98591 12.6115 4.53171 13.6279 5.52893L16.4388 2.63781C14.6564 0.915911 12.2951 -0.029442 9.84999 -6.78344e-05C8.02451 1.77387e-05 6.23498 0.521958 4.68118 1.50748C3.12738 2.493 1.87047 3.90332 1.05078 5.58098L4.32125 8.19073C5.10091 5.79061 7.28122 4.00951 9.84999 4.00951Z" fill="#787878"/>
</g>
<defs>
<clipPath id="clip0">
<rect width="59.633" height="24.3571" fill="white"/>
</clipPath>
</defs>
</svg>
