<svg width="22" height="22" viewBox="0 0 22 22" fill="none" xmlns="http://www.w3.org/2000/svg">
<g opacity="0.8">
<mask id="mask0" mask-type="alpha" maskUnits="userSpaceOnUse" x="0" y="0" width="22" height="22">
<rect width="22" height="22" fill="#FC5D5D"/>
</mask>
<g mask="url(#mask0)">
<path d="M11.2226 7.88885C11.8363 7.88885 12.3338 7.39139 12.3338 6.77773C12.3338 6.16408 11.8363 5.66662 11.2226 5.66662C10.609 5.66662 10.1115 6.16408 10.1115 6.77773C10.1115 7.39139 10.609 7.88885 11.2226 7.88885Z" fill="#FC5D5D"/>
<path d="M13.6671 15.8888H12.3338V8.77774H8.77823V9.66662H10.1116V15.8888H8.77823V16.7777H13.6671V15.8888Z" fill="#FC5D5D"/>
<path d="M20.7782 10.9999C20.7782 5.59993 16.4004 1.22217 11.0004 1.22217C5.60042 1.22217 1.22266 5.59993 1.22266 10.9999C1.22266 16.3999 5.60042 20.7777 11.0004 20.7777C16.4004 20.7777 20.7782 16.3999 20.7782 10.9999ZM2.11154 10.9999C2.11154 6.09061 6.09109 2.11105 11.0004 2.11105C15.9098 2.11105 19.8893 6.09061 19.8893 10.9999C19.8893 15.9093 15.9098 19.8888 11.0004 19.8888C6.09109 19.8888 2.11154 15.9093 2.11154 10.9999Z" fill="#FC5D5D"/>
</g>
</g>
</svg>
