<svg width="17" height="17" viewBox="0 0 17 17" fill="none" xmlns="http://www.w3.org/2000/svg">
<path opacity="0.5" d="M8.28 0C3.71135 0 0 3.71135 0 8.28C0 12.8487 3.71135 16.56 8.28 16.56C12.8487 16.56 16.56 12.8487 16.56 8.28C16.56 3.71135 12.8487 0 8.28 0ZM8.28 0.72C12.4595 0.72 15.84 4.10046 15.84 8.28C15.84 12.4595 12.4595 15.84 8.28 15.84C4.10046 15.84 0.72 12.4595 0.72 8.28C0.72 4.10046 4.10046 0.72 8.28 0.72ZM8.28 3.24C7.99357 3.24 7.71886 3.35378 7.51632 3.55632C7.31379 3.75886 7.2 4.03357 7.2 4.32C7.2 4.60643 7.31379 4.88114 7.51632 5.08367C7.71886 5.28621 7.99357 5.4 8.28 5.4C8.56643 5.4 8.84114 5.28621 9.04368 5.08367C9.24621 4.88114 9.36 4.60643 9.36 4.32C9.36 4.03357 9.24621 3.75886 9.04368 3.55632C8.84114 3.35378 8.56643 3.24 8.28 3.24ZM6.84 6.84V7.56H7.2H7.56V12.24H7.2H6.84V12.96H7.2H7.56H9H9.36H9.72V12.24H9.36H9V6.84H8.64H7.2H6.84Z" fill="#141414"/>
</svg>
