<svg width="22" height="22" viewBox="0 0 22 22" fill="none" xmlns="http://www.w3.org/2000/svg">
<mask id="mask0" mask-type="alpha" maskUnits="userSpaceOnUse" x="0" y="0" width="22" height="22">
<rect width="22" height="22" fill="#C4C4C4"/>
</mask>
<g mask="url(#mask0)">
<path d="M14.5845 2.76562H7.41533C4.98072 2.76562 3 4.74644 3 7.18105V14.3502C3 16.7849 4.98072 18.7656 7.41533 18.7656H14.5845C17.0193 18.7656 19 16.7848 19 14.3502V7.18105C19.0001 4.74644 17.0193 2.76562 14.5845 2.76562ZM17.5805 14.3502C17.5805 16.0021 16.2365 17.346 14.5846 17.346H7.41533C5.76348 17.3461 4.4196 16.0021 4.4196 14.3502V7.18105C4.4196 5.5292 5.76348 4.18522 7.41533 4.18522H14.5845C16.2364 4.18522 17.5804 5.5292 17.5804 7.18105L17.5805 14.3502Z" fill="white"/>
<path d="M11 6.64307C8.72665 6.64307 6.8772 8.49252 6.8772 10.7659C6.8772 13.0391 8.72665 14.8885 11 14.8885C13.2733 14.8885 15.1228 13.0391 15.1228 10.7659C15.1228 8.49252 13.2733 6.64307 11 6.64307ZM11 13.4688C9.50951 13.4688 8.29679 12.2562 8.29679 10.7658C8.29679 9.27519 9.50942 8.06257 11 8.06257C12.4906 8.06257 13.7032 9.27519 13.7032 10.7658C13.7032 12.2562 12.4905 13.4688 11 13.4688Z" fill="white"/>
<path d="M15.2957 5.43945C15.0222 5.43945 14.7535 5.55018 14.5603 5.74419C14.3662 5.93726 14.2546 6.20604 14.2546 6.48049C14.2546 6.75409 14.3663 7.02278 14.5603 7.21679C14.7534 7.40985 15.0222 7.52153 15.2957 7.52153C15.5701 7.52153 15.838 7.40985 16.032 7.21679C16.226 7.02278 16.3367 6.754 16.3367 6.48049C16.3367 6.20604 16.226 5.93726 16.032 5.74419C15.8389 5.55018 15.5701 5.43945 15.2957 5.43945Z" fill="white"/>
</g>
</svg>
