<svg width="22" height="22" viewBox="0 0 22 22" fill="none" xmlns="http://www.w3.org/2000/svg">
<mask id="mask0" mask-type="alpha" maskUnits="userSpaceOnUse" x="0" y="0" width="22" height="22">
<rect width="22" height="22" fill="#C4C4C4"/>
</mask>
<g mask="url(#mask0)">
<path d="M14.5845 3H7.41533C4.98072 3 3 4.98081 3 7.41542V14.5846C3 17.0193 4.98072 19 7.41533 19H14.5845C17.0193 19 19 17.0192 19 14.5846V7.41542C19.0001 4.98081 17.0193 3 14.5845 3ZM17.5805 14.5846C17.5805 16.2365 16.2365 17.5804 14.5846 17.5804H7.41533C5.76348 17.5805 4.4196 16.2365 4.4196 14.5846V7.41542C4.4196 5.76358 5.76348 4.4196 7.41533 4.4196H14.5845C16.2364 4.4196 17.5804 5.76358 17.5804 7.41542L17.5805 14.5846Z" fill="black"/>
<path d="M11 6.87744C8.72665 6.87744 6.8772 8.72689 6.8772 11.0002C6.8772 13.2735 8.72665 15.1228 11 15.1228C13.2733 15.1228 15.1228 13.2735 15.1228 11.0002C15.1228 8.72689 13.2733 6.87744 11 6.87744ZM11 13.7031C9.50951 13.7031 8.29679 12.4906 8.29679 11.0001C8.29679 9.50956 9.50942 8.29694 11 8.29694C12.4906 8.29694 13.7032 9.50956 13.7032 11.0001C13.7032 12.4906 12.4905 13.7031 11 13.7031Z" fill="black"/>
<path d="M15.2957 5.67383C15.0222 5.67383 14.7535 5.78456 14.5603 5.97857C14.3662 6.17163 14.2546 6.44041 14.2546 6.71487C14.2546 6.98847 14.3663 7.25715 14.5603 7.45116C14.7534 7.64423 15.0222 7.7559 15.2957 7.7559C15.5701 7.7559 15.838 7.64423 16.032 7.45116C16.226 7.25715 16.3367 6.98838 16.3367 6.71487C16.3367 6.44041 16.226 6.17163 16.032 5.97857C15.8389 5.78456 15.5701 5.67383 15.2957 5.67383Z" fill="black"/>
</g>
</svg>
