<svg width="16" height="15" viewBox="0 0 16 15" fill="none" xmlns="http://www.w3.org/2000/svg">
<path d="M7.92323 0C3.7031 0.000363636 1.90834 0.746602 1.03753 1.38867C0.662623 1.66466 0.370554 1.91713 0.200807 2.22117C-0.0151402 2.58735 -0.0119466 3.01207 0.00955709 3.42141C0.0311776 3.83297 0.0989682 4.22667 0.138932 4.44867C0.253118 5.08075 0.73446 5.47527 1.23862 5.39578H1.23932C1.3607 5.3764 1.51945 5.33352 1.75823 5.27133C1.99701 5.20914 2.29086 5.13029 2.58581 5.05055C3.17541 4.89115 3.79587 4.7229 3.91331 4.69687C4.34593 4.60153 4.56763 4.2257 4.69167 3.82852C4.78966 3.51654 4.98022 2.79743 5.0369 2.58469C5.0957 2.55585 5.18275 2.50221 5.5769 2.40469C6.06297 2.28442 6.82952 2.15982 7.92323 2.16C9.01696 2.15982 9.78287 2.2838 10.2689 2.40398C10.6629 2.50144 10.7501 2.55517 10.8089 2.58398C10.8653 2.7958 11.0552 3.51348 11.1541 3.82711C11.278 4.22443 11.4999 4.60052 11.9324 4.69617C12.0493 4.72204 12.6708 4.89027 13.2606 5.04984C13.5556 5.12963 13.8494 5.2091 14.0882 5.27133C14.327 5.33355 14.4857 5.37569 14.6071 5.39508C15.1124 5.47549 15.5938 5.0803 15.7075 4.44797V4.44727C15.7473 4.2255 15.8146 3.83221 15.8362 3.4207C15.8577 3.01142 15.8613 2.58735 15.6456 2.22117C15.476 1.9173 15.184 1.66447 14.8089 1.38797C13.9382 0.746766 12.143 0.000363636 7.92323 0ZM7.92323 0.72C12.0583 0.720356 13.6768 1.44791 14.3821 1.96734C14.7204 2.21671 14.961 2.4672 15.0199 2.57344L15.0227 2.57836L15.0255 2.58328C15.0831 2.6798 15.1363 3.02743 15.1176 3.38344C15.0989 3.73945 15.0372 4.10651 14.9988 4.3207C14.9409 4.64015 14.6946 4.68013 14.7203 4.68422C14.7054 4.68184 14.5039 4.63558 14.2696 4.57453C14.0354 4.51348 13.7434 4.43476 13.4491 4.35516C12.8605 4.19595 12.2914 4.0381 12.0878 3.99305C12.083 3.992 11.9201 3.86456 11.8417 3.61336V3.61266L11.841 3.61195C11.7496 3.32226 11.4543 2.21695 11.4543 2.21695L11.4142 2.06719L11.2778 1.99336C11.2778 1.99336 10.9869 1.83987 10.4418 1.70508C9.89679 1.57032 9.07158 1.43982 7.92323 1.44C6.77486 1.43982 5.94909 1.5709 5.40393 1.70578C4.85878 1.84067 4.56792 1.99336 4.56792 1.99336L4.43151 2.06789L4.39214 2.21766C4.39214 2.21766 4.09614 3.32229 4.00471 3.61336V3.61406C3.92637 3.86526 3.76343 3.99269 3.75862 3.99375C3.55522 4.03877 2.98593 4.19674 2.39737 4.35586C2.10309 4.43542 1.8111 4.51351 1.57682 4.57453C1.34289 4.63546 1.14241 4.68169 1.12682 4.68422C1.15146 4.68033 0.905576 4.64118 0.847682 4.3207C0.809166 4.10674 0.747553 3.74009 0.728854 3.38414C0.710154 3.02819 0.763307 2.68121 0.820963 2.58469L0.823776 2.57906L0.826588 2.57414C0.885484 2.46767 1.12616 2.21699 1.46432 1.96805C2.16959 1.44804 3.78775 0.720356 7.92323 0.72ZM3.24323 6.84C2.44781 6.84 1.80323 7.48458 1.80323 8.28C1.80323 9.07542 2.44781 9.72 3.24323 9.72C4.03865 9.72 4.68323 9.07542 4.68323 8.28C4.68323 7.48458 4.03865 6.84 3.24323 6.84ZM7.92323 6.84C7.12781 6.84 6.48323 7.48458 6.48323 8.28C6.48323 9.07542 7.12781 9.72 7.92323 9.72C8.71865 9.72 9.36323 9.07542 9.36323 8.28C9.36323 7.48458 8.71865 6.84 7.92323 6.84ZM12.6032 6.84C11.8078 6.84 11.1632 7.48458 11.1632 8.28C11.1632 9.07542 11.8078 9.72 12.6032 9.72C13.3986 9.72 14.0432 9.07542 14.0432 8.28C14.0432 7.48458 13.3986 6.84 12.6032 6.84ZM3.24323 7.56C3.67109 7.56 3.96323 7.85214 3.96323 8.28C3.96323 8.70786 3.67109 9 3.24323 9C2.81537 9 2.52323 8.70786 2.52323 8.28C2.52323 7.85214 2.81537 7.56 3.24323 7.56ZM7.92323 7.56C8.35109 7.56 8.64323 7.85214 8.64323 8.28C8.64323 8.70786 8.35109 9 7.92323 9C7.49537 9 7.20323 8.70786 7.20323 8.28C7.20323 7.85214 7.49537 7.56 7.92323 7.56ZM12.6032 7.56C13.0311 7.56 13.3232 7.85214 13.3232 8.28C13.3232 8.70786 13.0311 9 12.6032 9C12.1754 9 11.8832 8.70786 11.8832 8.28C11.8832 7.85214 12.1754 7.56 12.6032 7.56ZM3.24323 11.52C2.44781 11.52 1.80323 12.1646 1.80323 12.96C1.80323 13.7554 2.44781 14.4 3.24323 14.4C4.03865 14.4 4.68323 13.7554 4.68323 12.96C4.68323 12.1646 4.03865 11.52 3.24323 11.52ZM7.92323 11.52C7.12781 11.52 6.48323 12.1646 6.48323 12.96C6.48323 13.7554 7.12781 14.4 7.92323 14.4C8.71865 14.4 9.36323 13.7554 9.36323 12.96C9.36323 12.1646 8.71865 11.52 7.92323 11.52ZM12.6032 11.52C11.8078 11.52 11.1632 12.1646 11.1632 12.96C11.1632 13.7554 11.8078 14.4 12.6032 14.4C13.3986 14.4 14.0432 13.7554 14.0432 12.96C14.0432 12.1646 13.3986 11.52 12.6032 11.52ZM3.24323 12.24C3.67109 12.24 3.96323 12.5321 3.96323 12.96C3.96323 13.3879 3.67109 13.68 3.24323 13.68C2.81537 13.68 2.52323 13.3879 2.52323 12.96C2.52323 12.5321 2.81537 12.24 3.24323 12.24ZM7.92323 12.24C8.35109 12.24 8.64323 12.5321 8.64323 12.96C8.64323 13.3879 8.35109 13.68 7.92323 13.68C7.49537 13.68 7.20323 13.3879 7.20323 12.96C7.20323 12.5321 7.49537 12.24 7.92323 12.24ZM12.6032 12.24C13.0311 12.24 13.3232 12.5321 13.3232 12.96C13.3232 13.3879 13.0311 13.68 12.6032 13.68C12.1754 13.68 11.8832 13.3879 11.8832 12.96C11.8832 12.5321 12.1754 12.24 12.6032 12.24Z" fill="#141414"/>
</svg>
