<svg width="16" height="22" viewBox="0 0 16 22" fill="none" xmlns="http://www.w3.org/2000/svg">
<path d="M8.00091 0C4.45339 0 1.56715 2.88612 1.56715 6.43376V10.1082C1.56715 10.15 1.51562 10.2204 1.47515 10.2338C1.12723 10.3498 0.844674 10.4504 0.58602 10.5501C0.277567 10.669 0.0449219 11.0108 0.0449219 11.3452V19.7882C0.0449219 20.1203 0.276064 20.4624 0.582562 20.5839C2.95401 21.5236 5.44989 22 8.00087 22C10.5519 22 13.0477 21.5235 15.4193 20.5838C15.7257 20.4624 15.9567 20.1203 15.9567 19.7882V11.3452C15.9567 11.0108 15.7241 10.669 15.4155 10.55C15.1567 10.4503 14.8742 10.3497 14.5266 10.2337C14.4862 10.2202 14.4347 10.1498 14.4347 10.1081V6.43364C14.4345 2.88612 11.5484 0 8.00091 0ZM6.24851 13.9167C6.24851 12.9482 7.03308 12.1644 8.0008 12.1644C8.96844 12.1644 9.75301 12.9481 9.75301 13.9167C9.75301 14.5584 9.39111 15.0957 8.87688 15.4003V18.2973C8.87688 18.7816 8.48503 19.1735 8.00076 19.1735C7.51645 19.1735 7.12464 18.7816 7.12464 18.2973V15.4003C6.61045 15.0957 6.24851 14.5584 6.24851 13.9167ZM12.2224 6.43364V9.60405C10.838 9.30616 9.41776 9.1553 8.00147 9.15518C6.58583 9.15518 5.16587 9.30608 3.77935 9.60371V6.43364C3.77935 4.10587 5.67306 2.2122 8.0008 2.2122C10.3285 2.21216 12.2224 4.10587 12.2224 6.43364Z" fill="black"/>
</svg>
