<svg width="51" height="39" viewBox="0 0 51 39" fill="none" xmlns="http://www.w3.org/2000/svg">
<path d="M9.16715 38.6897V36.116C9.16715 35.1303 8.55957 34.4869 7.52393 34.4869C6.99921 34.4869 6.44687 34.6649 6.04642 35.2125C5.74264 34.747 5.31457 34.4869 4.66557 34.4869C4.23751 34.4869 3.79564 34.6101 3.45042 35.0893V34.569H2.53906V38.6897H3.45042V36.4172C3.45042 35.6916 3.83706 35.3494 4.44464 35.3494C5.05221 35.3494 5.356 35.7327 5.356 36.4172V38.6897H6.26736V36.4172C6.26736 35.6916 6.69542 35.3494 7.26157 35.3494C7.86915 35.3494 8.17294 35.7327 8.17294 36.4172V38.6897H9.16715ZM22.6304 34.569H21.1529V33.3232H20.2416V34.569H19.4131V35.3904H20.2416V37.2797C20.2416 38.2243 20.6282 38.7856 21.6639 38.7856C22.0505 38.7856 22.4924 38.6623 22.7823 38.4844L22.52 37.7177C22.2576 37.8957 21.9538 37.9368 21.7467 37.9368C21.3186 37.9368 21.1391 37.6767 21.1391 37.2523V35.4041H22.6166V34.569H22.6304ZM30.3218 34.4869C29.7971 34.4869 29.4519 34.747 29.2447 35.0893V34.569H28.3334V38.6897H29.2447V36.3761C29.2447 35.6916 29.5485 35.3083 30.1147 35.3083C30.2942 35.3083 30.5013 35.3494 30.6808 35.3904L30.9432 34.528C30.7637 34.4869 30.5013 34.4869 30.3218 34.4869ZM18.6812 34.9113C18.2531 34.6101 17.6456 34.4869 16.9966 34.4869C15.9609 34.4869 15.2705 35.0071 15.2705 35.8148C15.2705 36.4993 15.7952 36.8826 16.6928 37.0195L17.1209 37.0606C17.5903 37.1428 17.8527 37.2797 17.8527 37.485C17.8527 37.7862 17.5075 38.0052 16.8999 38.0052C16.2923 38.0052 15.8229 37.7862 15.5191 37.5808L15.091 38.2653C15.5605 38.6076 16.2095 38.7856 16.8585 38.7856C18.0736 38.7856 18.7641 38.2243 18.7641 37.4576C18.7641 36.7321 18.1979 36.3487 17.3418 36.2118L16.9137 36.1708C16.5271 36.1297 16.2233 36.0476 16.2233 35.7874C16.2233 35.4863 16.5271 35.322 16.9966 35.322C17.5213 35.322 18.0322 35.541 18.2946 35.6642L18.6812 34.9113ZM42.8323 34.4869C42.3076 34.4869 41.9624 34.747 41.7552 35.0893V34.569H40.8439V38.6897H41.7552V36.3761C41.7552 35.6916 42.059 35.3083 42.6252 35.3083C42.8047 35.3083 43.0118 35.3494 43.1913 35.3904L43.4537 34.528C43.2604 34.4869 42.998 34.4869 42.8323 34.4869ZM31.2331 36.6362C31.2331 37.882 32.1031 38.7856 33.4425 38.7856C34.0501 38.7856 34.4781 38.6623 34.92 38.3201L34.492 37.5945C34.1467 37.8546 33.8015 37.9778 33.4149 37.9778C32.683 37.9778 32.1583 37.4576 32.1583 36.6499C32.1583 35.8833 32.683 35.3631 33.4149 35.322C33.8015 35.322 34.1467 35.4452 34.492 35.7053L34.92 34.9797C34.492 34.6375 34.0501 34.5143 33.4425 34.5143C32.1031 34.4869 31.2331 35.3904 31.2331 36.6362ZM39.6287 36.6362V34.5827H38.7174V35.1029C38.4136 34.7196 37.9855 34.5006 37.4194 34.5006C36.2456 34.5006 35.3481 35.4041 35.3481 36.6499C35.3481 37.8957 36.2594 38.7992 37.4194 38.7992C38.0269 38.7992 38.455 38.5802 38.7174 38.1969V38.7171H39.6287V36.6362ZM36.3009 36.6362C36.3009 35.9107 36.7704 35.3083 37.5574 35.3083C38.2893 35.3083 38.814 35.8696 38.814 36.6362C38.814 37.3618 38.2893 37.9642 37.5574 37.9642C36.7704 37.9231 36.3009 37.3618 36.3009 36.6362ZM25.4336 34.4869C24.2184 34.4869 23.3623 35.3494 23.3623 36.6362C23.3623 37.9231 24.2322 38.7856 25.4888 38.7856C26.0964 38.7856 26.704 38.6076 27.1734 38.2243L26.7454 37.5808C26.4002 37.8409 25.9721 38.0052 25.5302 38.0052C24.9641 38.0052 24.4117 37.7451 24.2737 37.0195H27.3391V36.6773C27.3806 35.3494 26.6073 34.4869 25.4336 34.4869ZM25.4336 35.2535C25.9997 35.2535 26.3864 35.5958 26.4692 36.2392H24.3013C24.3979 35.6916 24.7846 35.2535 25.4336 35.2535ZM47.9829 36.6362V32.9536H47.0715V35.1029C46.7677 34.7196 46.3397 34.5006 45.7735 34.5006C44.5998 34.5006 43.7022 35.4041 43.7022 36.6499C43.7022 37.8957 44.6136 38.7992 45.7735 38.7992C46.3811 38.7992 46.8092 38.5802 47.0715 38.1969V38.7171H47.9829V36.6362ZM44.6412 36.6362C44.6412 35.9107 45.1107 35.3083 45.8978 35.3083C46.6296 35.3083 47.1544 35.8696 47.1544 36.6362C47.1544 37.3618 46.6296 37.9642 45.8978 37.9642C45.1245 37.9231 44.6412 37.3618 44.6412 36.6362ZM14.2763 36.6362V34.5827H13.3649V35.1029C13.0611 34.7196 12.6331 34.5006 12.0669 34.5006C10.8932 34.5006 9.99566 35.4041 9.99566 36.6499C9.99566 37.8957 10.907 38.7992 12.0669 38.7992C12.6745 38.7992 13.1026 38.5802 13.3649 38.1969V38.7171H14.2763V36.6362ZM10.907 36.6362C10.907 35.9107 11.3765 35.3083 12.1636 35.3083C12.8954 35.3083 13.4202 35.8696 13.4202 36.6362C13.4202 37.3618 12.8954 37.9642 12.1636 37.9642C11.3765 37.9231 10.907 37.3618 10.907 36.6362Z" fill="#505050"/>
<path d="M32.0235 3.2998H18.3945V27.5722H32.0235V3.2998Z" fill="#505050"/>
<path d="M19.2491 15.4423C19.2491 10.5139 21.5827 6.13312 25.1729 3.29929C22.5355 1.24579 19.2076 0 15.576 0C6.95949 0 0 6.89976 0 15.4423C0 23.9712 6.95949 30.8846 15.576 30.8846C19.2076 30.8846 22.5355 29.6388 25.1867 27.5853C21.5827 24.7926 19.2491 20.3707 19.2491 15.4423Z" fill="#141414"/>
<path d="M50.4016 15.4423C50.4016 23.9712 43.4421 30.8846 34.8256 30.8846C31.1939 30.8846 27.8661 29.6388 25.2148 27.5853C28.8465 24.7515 31.1387 20.3844 31.1387 15.4423C31.1387 10.5139 28.8051 6.13312 25.2148 3.29929C27.8661 1.24579 31.1939 0 34.8256 0C43.4421 0 50.4016 6.95452 50.4016 15.4423Z" fill="#6E6E6E"/>
</svg>
