<svg width="102" height="37" viewBox="0 0 102 37" fill="none" xmlns="http://www.w3.org/2000/svg">
<g clip-path="url(#clip0)">
<path fill-rule="evenodd" clip-rule="evenodd" d="M96.4473 14.2232C96.4473 13.1466 97.2973 12.2399 98.3739 12.2399C99.4506 12.2399 100.301 13.1466 100.301 14.2232C100.301 15.2999 99.4506 16.2066 98.3739 16.2066C97.2973 16.2632 96.4473 15.3566 96.4473 14.2232ZM98.3173 15.8099C99.1106 15.8099 99.7906 15.1299 99.7906 14.2799C99.7906 13.4299 99.1106 12.7499 98.3173 12.7499C97.5239 12.7499 96.8439 13.4299 96.8439 14.2799C96.8439 15.1299 97.5239 15.8099 98.3173 15.8099ZM98.0906 15.1299H97.6939V13.3732H98.4306C98.6006 13.3732 98.7706 13.3732 98.8839 13.4866C99.0539 13.5999 99.1106 13.7699 99.1106 13.9399C99.1106 14.1666 98.9973 14.3366 98.8273 14.3932L99.1673 15.1866H98.6006L98.3173 14.5066H98.0339V15.1299H98.0906ZM98.0906 14.1099H98.3173C98.4306 14.1099 98.4873 14.1099 98.5439 14.0532C98.6006 13.9966 98.6573 13.9399 98.6573 13.8266C98.6573 13.7699 98.6006 13.6566 98.5439 13.6566C98.4873 13.5999 98.3739 13.5999 98.3173 13.5999H98.0906V14.1099Z" fill="#FD0C15"/>
<path fill-rule="evenodd" clip-rule="evenodd" d="M68.9639 0.793261L68.4539 4.24993C67.3206 3.62659 66.4706 3.39993 65.5639 3.39993C63.1839 3.39993 61.4839 5.83659 61.4839 9.29326C61.4839 11.6733 62.6173 13.1466 64.4873 13.1466C65.2806 13.1466 66.1306 12.8633 67.2073 12.3533L66.6406 15.9799C65.4506 16.3199 64.7139 16.4333 63.8073 16.4333C60.3506 16.4333 58.1973 13.8266 58.1973 9.63326C58.1973 3.96659 61.1439 0.0565948 65.4506 0.0565948C66.0173 0.0565948 66.4706 0.113262 66.9239 0.226595L68.2839 0.566595C68.5673 0.679928 68.6806 0.679928 68.9639 0.793261Z" fill="#FD0C15"/>
<path fill-rule="evenodd" clip-rule="evenodd" d="M58.2535 3.17335C58.1401 3.11668 58.0268 3.11668 57.9135 3.11668C56.8935 3.11668 56.2701 3.68335 55.2501 5.21335L55.5335 3.28668H52.7001L50.7168 16.0934H53.9468C55.1368 8.21668 55.4201 6.91335 56.9501 6.91335C57.0635 6.91335 57.0635 6.91335 57.1768 6.91335C57.4601 5.38335 57.8568 4.25002 58.4235 3.17335H58.2535Z" fill="#FD0C15"/>
<path fill-rule="evenodd" clip-rule="evenodd" d="M39.0433 15.9232C38.1933 16.2065 37.4566 16.3765 36.7199 16.3765C35.0766 16.3765 34.1699 15.4132 34.1699 13.5432C34.1699 13.2032 34.2266 12.8065 34.2833 12.3532L34.5099 11.1065L34.6799 10.0865L36.0966 1.35986H39.2699L38.8733 3.22986H40.5166L40.0632 6.34653H38.4199L37.5699 11.6732C37.5133 11.8999 37.5133 12.0699 37.5133 12.1832C37.5133 12.8632 37.8533 13.1465 38.5899 13.1465C38.9866 13.1465 39.2132 13.0899 39.4399 13.0332L39.0433 15.9232Z" fill="#FD0C15"/>
<path fill-rule="evenodd" clip-rule="evenodd" d="M26.4068 7.30993C26.4068 8.95327 27.1435 10.0299 28.8435 10.8799C30.1468 11.5033 30.3735 11.7299 30.3735 12.2966C30.3735 13.0899 29.8068 13.4866 28.5601 13.4866C27.5968 13.4866 26.7468 13.3166 25.6701 12.9766L25.2168 15.9233L25.3868 15.9799L25.9535 16.0933C26.1801 16.1499 26.4068 16.2066 26.8035 16.2066C27.5401 16.2633 28.1635 16.3199 28.5601 16.3199C31.9601 16.3199 33.4901 14.9599 33.4901 12.0699C33.4901 10.3133 32.8668 9.29327 31.2235 8.49993C29.8635 7.8766 29.7501 7.7066 29.7501 7.08327C29.7501 6.40327 30.2601 6.06327 31.3368 6.06327C31.9601 6.06327 32.8101 6.1766 33.6601 6.28993L34.1135 3.34327C33.2635 3.17327 32.0168 3.05993 31.2801 3.05993C27.5968 3.00327 26.3501 4.92993 26.4068 7.30993Z" fill="#FD0C15"/>
<path fill-rule="evenodd" clip-rule="evenodd" d="M94.5767 16.0933H91.5167L91.6868 14.8467C90.8368 15.81 89.8734 16.2633 88.7401 16.2633C86.3601 16.2633 84.8301 14.1667 84.8301 10.9367C84.8301 6.68667 87.2101 3.06001 90.0434 3.06001C91.2901 3.06001 92.1968 3.62667 93.1034 4.81667L93.7834 0.28334H96.9568L94.5767 16.0933ZM89.8167 13.09C91.3467 13.09 92.3668 11.3333 92.3668 8.78334C92.3668 7.14001 91.7434 6.23334 90.6667 6.23334C89.1934 6.23334 88.1734 8.04667 88.1734 10.54C88.1734 12.1833 88.7401 13.09 89.8167 13.09Z" fill="#FD0C15"/>
<path fill-rule="evenodd" clip-rule="evenodd" d="M49.2423 15.8099C48.1656 16.1499 47.089 16.3199 45.9556 16.3199C42.3856 16.3199 40.5156 14.3366 40.5156 10.5399C40.5156 6.11994 42.8956 2.88994 46.1256 2.88994C48.789 2.88994 50.4323 4.70327 50.4323 7.59327C50.4323 8.49994 50.319 9.46327 50.0356 10.7666H43.5756C43.519 10.9933 43.519 11.0499 43.519 11.1633C43.519 12.6933 44.4823 13.4299 46.3523 13.4299C47.4856 13.4299 48.5056 13.1466 49.6956 12.6366L49.2423 15.8099ZM47.429 8.15994C47.4856 7.87661 47.4856 7.64994 47.4856 7.53661C47.4856 6.51661 46.919 5.89327 45.9556 5.89327C44.9356 5.89327 44.199 6.68661 43.9156 8.21661H47.429V8.15994Z" fill="#FD0C15"/>
<path fill-rule="evenodd" clip-rule="evenodd" d="M13.4864 16.0933H10.313L12.1264 3.96659L7.98971 16.0933H5.83638L5.55305 4.02325L3.62638 16.0933H0.623047L3.11638 0.33992H7.70638L7.87638 10.0866L10.993 0.33992H15.9797L13.4864 16.0933Z" fill="#FD0C15"/>
<path fill-rule="evenodd" clip-rule="evenodd" d="M21.7609 10.37C21.4209 10.3133 21.2509 10.3133 21.0242 10.3133C19.2109 10.3133 18.3042 10.9933 18.3042 12.24C18.3042 13.0333 18.7575 13.5433 19.4942 13.5433C20.7409 13.6 21.7042 12.24 21.7609 10.37ZM24.0842 16.0933H21.4209L21.4775 14.7333C20.6842 15.81 19.6075 16.2633 18.0775 16.2633C16.3209 16.2633 15.1309 14.8466 15.1309 12.75C15.1309 9.63331 17.2275 7.81998 20.7975 7.81998C21.1942 7.81998 21.6475 7.87664 22.1009 7.93331C22.2142 7.47998 22.2142 7.30998 22.2142 7.08331C22.2142 6.23331 21.6475 5.89331 20.1742 5.89331C19.2675 5.89331 18.2475 6.06331 17.5109 6.28998L17.1142 6.45998L16.8309 6.57331L17.2842 3.68331C18.8709 3.17331 19.9475 3.00331 21.1375 3.00331C23.9142 3.00331 25.3309 4.30664 25.3309 6.74331C25.3309 7.36664 25.2742 7.81998 25.0475 9.29331L24.3675 13.8266L24.2542 14.62L24.1975 15.3L24.1409 15.7533L24.0842 16.0933Z" fill="#FD0C15"/>
<path fill-rule="evenodd" clip-rule="evenodd" d="M74.5167 10.3699C74.1767 10.3132 74.0067 10.3132 73.78 10.3132C71.9667 10.3132 71.0034 10.9932 71.0034 12.2399C71.0034 13.0332 71.4567 13.5432 72.1934 13.5432C73.4967 13.5999 74.46 12.2399 74.5167 10.3699ZM76.84 16.0932H74.1767L74.2334 14.7332C73.44 15.8099 72.3634 16.2632 70.8334 16.2632C69.0767 16.2632 67.8867 14.8465 67.8867 12.7499C67.8867 9.6332 69.9834 7.81987 73.5534 7.81987C73.8934 7.81987 74.4034 7.87653 74.8567 7.9332C74.9701 7.47987 74.97 7.30987 74.97 7.0832C74.97 6.2332 74.4034 5.8932 72.93 5.8932C72.0234 5.8932 71.0034 6.0632 70.2667 6.28987L69.8134 6.4032L69.53 6.51653L69.9834 3.62653C71.57 3.11653 72.6467 2.94653 73.8367 2.94653C76.6134 2.94653 78.03 4.24987 78.03 6.68653C78.03 7.30987 77.9734 7.7632 77.7467 9.23653L77.0667 13.7699L76.9534 14.5632L76.84 15.1865L76.7834 15.6399L76.84 16.0932Z" fill="#FD0C15"/>
<path fill-rule="evenodd" clip-rule="evenodd" d="M85.7926 3.17335C85.6792 3.11668 85.5659 3.11668 85.4526 3.11668C84.4326 3.11668 83.8092 3.68335 82.7892 5.21335L83.0726 3.28668H80.1826L78.1992 16.0934H81.4292C82.6192 8.21668 82.9026 6.91335 84.4326 6.91335C84.5459 6.91335 84.5459 6.91335 84.6592 6.91335C84.9426 5.38335 85.3392 4.25002 85.9059 3.17335H85.7926Z" fill="#FD0C15"/>
<path fill-rule="evenodd" clip-rule="evenodd" d="M72.306 28.5599C72.306 31.4499 71.3994 33.2066 69.9827 33.2066C68.9627 33.2632 68.3394 32.0732 68.3394 30.3732C68.3394 28.3332 69.246 26.0099 70.7194 26.0099C71.9094 25.9532 72.306 27.1999 72.306 28.5599ZM75.4794 28.5599C75.4794 25.3299 73.8927 22.7799 70.8894 22.7799C67.4327 22.7799 65.166 25.8399 65.166 30.3166C65.166 33.5466 66.526 36.2099 69.756 36.2099C73.0994 36.2666 75.4794 33.9432 75.4794 28.5599Z" fill="#F3AE12"/>
<path fill-rule="evenodd" clip-rule="evenodd" d="M66.2429 20.57L65.7329 24.0266C64.6562 23.4033 63.9196 23.1766 63.0696 23.1766C60.8596 23.1766 59.2729 25.6133 59.2729 29.07C59.2729 31.45 60.2929 32.9233 62.0496 32.9233C62.7862 32.9233 63.6362 32.64 64.5996 32.13L64.0896 35.7566C63.0129 36.0966 62.2762 36.21 61.4262 36.21C58.1962 36.21 56.1562 33.6033 56.1562 29.41C56.1562 23.7433 58.9329 19.8333 62.9562 19.8333C63.4662 19.8333 63.9196 19.89 64.3162 20.0033L65.5629 20.3433C65.8462 20.4 65.9596 20.4566 66.2429 20.57Z" fill="#F3AE12"/>
<path fill-rule="evenodd" clip-rule="evenodd" d="M46.3529 22.8933C46.2395 22.8366 46.1262 22.8366 46.0129 22.8366C45.0495 22.8366 44.4829 23.4033 43.5195 24.9333L43.8029 23.0066H41.0829L39.2695 35.8133H42.2729C43.4062 27.9933 43.6895 26.6333 45.1062 26.6333C45.2195 26.6333 45.2195 26.6333 45.3329 26.6899C45.6162 25.1599 45.9562 24.0266 46.4662 22.9499L46.3529 22.8933Z" fill="#F3AE12"/>
<path fill-rule="evenodd" clip-rule="evenodd" d="M85.5667 35.7H82.7333L82.9033 34.4533C82.11 35.4166 81.2033 35.87 80.1267 35.87C77.9733 35.87 76.5 33.7733 76.5 30.5433C76.5 26.2933 78.7667 22.6666 81.3733 22.6666C82.5633 22.6666 83.4133 23.2333 84.2633 24.4233L84.9433 19.89H87.89L85.5667 35.7ZM81.09 32.6966C82.5067 32.6966 83.47 30.94 83.47 28.39C83.47 26.7466 82.9033 25.8966 81.8833 25.8966C80.5233 25.8966 79.56 27.6533 79.56 30.2033C79.56 31.8466 80.07 32.6966 81.09 32.6966Z" fill="#F3AE12"/>
<path fill-rule="evenodd" clip-rule="evenodd" d="M18.2479 35.6432C17.2279 35.9832 16.2646 36.1532 15.1879 36.1532C11.8446 36.1532 10.0879 34.1699 10.0879 30.3732C10.0879 26.0099 12.2979 22.7232 15.3012 22.7232C17.7946 22.7232 19.3246 24.5366 19.3246 27.4266C19.3246 28.3332 19.2112 29.2966 18.9279 30.5999H12.9779C12.9212 30.8266 12.9212 30.8832 12.9212 30.9966C12.9212 32.4699 13.8279 33.2066 15.5846 33.2066C16.6612 33.2066 17.6246 32.9232 18.7012 32.4132L18.2479 35.6432ZM16.5479 28.0499C16.5479 27.7666 16.6046 27.5399 16.6046 27.4266C16.6046 26.4066 16.0946 25.7832 15.1879 25.7832C14.2246 25.7832 13.5446 26.5766 13.2612 28.1066H16.5479V28.0499Z" fill="#F3AE12"/>
<path fill-rule="evenodd" clip-rule="evenodd" d="M53.9471 35.6432C52.9271 35.9832 51.9638 36.1532 50.8871 36.1532C47.4871 36.1532 45.7871 34.1699 45.7871 30.3732C45.7871 26.0099 47.9971 22.7232 51.0004 22.7232C53.4938 22.7232 55.0804 24.5366 55.0804 27.4266C55.0804 28.3332 54.9671 29.2966 54.6838 30.5999H48.6771C48.6204 30.8266 48.6204 30.8832 48.6204 30.9966C48.6204 32.4699 49.5271 33.2066 51.2838 33.2066C52.3604 33.2066 53.3238 32.9232 54.4004 32.4132L53.9471 35.6432ZM52.2471 28.0499C52.3038 27.7666 52.3038 27.5399 52.3038 27.4266C52.3038 26.4066 51.7938 25.7832 50.8871 25.7832C49.9238 25.7832 49.2438 26.5766 48.9604 28.1066H52.2471V28.0499Z" fill="#F3AE12"/>
<path fill-rule="evenodd" clip-rule="evenodd" d="M95.7674 35.6432C94.7474 35.9832 93.7274 36.1532 92.7074 36.1532C89.3641 36.1532 87.6074 34.1699 87.6074 30.3732C87.6074 26.0099 89.8741 22.7232 92.8774 22.7232C95.3708 22.7232 96.9008 24.5366 96.9008 27.4266C96.9008 28.3332 96.7874 29.2966 96.5041 30.5999H90.5541C90.4974 30.8266 90.4974 30.8832 90.4974 30.9966C90.4974 32.4699 91.4041 33.2066 93.1608 33.2066C94.2374 33.2066 95.2008 32.9232 96.2774 32.4132L95.7674 35.6432ZM94.0674 28.0499C94.0674 27.7666 94.1241 27.5399 94.1241 27.4266C94.1241 26.4066 93.6141 25.7832 92.7074 25.7832C91.7441 25.7832 91.0641 26.5766 90.7808 28.1066H94.0674V28.0499Z" fill="#F3AE12"/>
<path fill-rule="evenodd" clip-rule="evenodd" d="M9.34997 23.4599C8.78331 23.0633 7.93331 22.7233 6.85664 22.7233C5.60997 22.7233 4.70331 23.0066 4.70331 24.2533C4.70331 26.5199 9.12331 25.6699 9.12331 30.5433C9.12331 34.9633 6.23331 36.1533 3.56997 36.1533C2.37997 36.1533 1.01997 35.7566 0.0566406 35.3033L0.793307 32.0733C1.41664 32.6399 2.60664 32.9799 3.62664 32.9799C4.58997 32.9799 6.06331 32.6966 6.06331 31.0533C6.06331 28.4466 1.64331 29.4099 1.64331 24.8766C1.64331 20.7399 4.24997 19.4933 6.74331 19.4933C8.15997 19.4933 9.46331 19.7199 10.2566 20.2299L9.34997 23.4599Z" fill="#F3AE12"/>
<path fill-rule="evenodd" clip-rule="evenodd" d="M27.0305 35.6433C26.4072 35.9266 25.5572 36.1533 24.3672 36.1533C21.7605 36.1533 20.1172 33.5466 20.1172 30.3166C20.1172 26.1233 22.4972 22.8366 25.9539 22.8366C26.6905 22.8366 27.8805 23.1766 28.7872 23.6866L28.1072 26.7466C27.4272 26.2933 26.7472 26.0666 26.0672 26.0666C24.4805 26.0666 23.2905 27.5399 23.2905 30.1466C23.2905 31.6766 24.1405 32.9233 25.4439 32.9233C26.2372 32.9233 26.8039 32.7533 27.4272 32.3566L27.0305 35.6433Z" fill="#F3AE12"/>
<path fill-rule="evenodd" clip-rule="evenodd" d="M38.2485 32.4132C38.0785 33.4899 37.9651 34.5666 37.8518 35.6999H34.9618L35.1885 33.6599H35.1318C34.2251 35.0766 33.3185 36.0399 31.6185 36.0399C29.8051 36.0399 28.8418 34.1132 28.8418 31.6766C28.8418 30.8266 28.8985 30.3166 29.0685 29.0132L29.8618 23.0632H33.0918L32.2985 29.0132C32.1851 29.6366 32.0718 30.3166 32.0718 30.9399C32.0718 31.6766 32.4118 32.4699 33.3185 32.4132C34.6218 32.4132 35.4151 30.8266 35.6418 28.8999L36.5485 23.0066H39.6651L38.2485 32.4132Z" fill="#F3AE12"/>
<path fill-rule="evenodd" clip-rule="evenodd" d="M98.7701 35.5866H98.2601V33.49H97.5801V33.0366H99.4501V33.49H98.7701V35.5866Z" fill="#F3AE12"/>
<path fill-rule="evenodd" clip-rule="evenodd" d="M101.999 35.5866H101.546V33.4333L101.092 35.5866H100.639L100.186 33.4333V35.5866H99.7324V33.0366H100.469L100.866 35.0766H100.922L101.319 33.0366H101.999V35.5866Z" fill="#F3AE12"/>
</g>
<defs>
<clipPath id="clip0">
<rect width="102" height="36.2667" fill="white"/>
</clipPath>
</defs>
</svg>
