<svg width="49" height="38" viewBox="0 0 49 38" fill="none" xmlns="http://www.w3.org/2000/svg">
<g clip-path="url(#clip0)">
<path d="M48.003 37.4666V37.5654H48.0945C48.1147 37.5654 48.132 37.5606 48.1445 37.5529C48.1561 37.5453 48.1628 37.5318 48.1628 37.5155C48.1628 37.4992 48.1561 37.4867 48.1445 37.479C48.132 37.4704 48.1147 37.4666 48.0945 37.4666H48.003ZM48.0954 37.3975C48.1426 37.3975 48.1792 37.408 48.2052 37.4291C48.2312 37.4502 48.2437 37.479 48.2437 37.5155C48.2437 37.5462 48.2341 37.5712 48.2129 37.5913C48.1927 37.6105 48.1638 37.623 48.1253 37.6278L48.2466 37.767H48.1522L48.0396 37.6288H48.003V37.767H47.9241V37.3975H48.0954ZM48.0714 37.8946C48.1147 37.8946 48.1551 37.886 48.1917 37.8697C48.2292 37.8534 48.262 37.8313 48.2899 37.8034C48.3178 37.7756 48.34 37.743 48.3563 37.7046C48.3717 37.6672 48.3804 37.6268 48.3804 37.5837C48.3804 37.5405 48.3717 37.5002 48.3563 37.4627C48.34 37.4253 48.3178 37.3917 48.2899 37.3639C48.262 37.336 48.2292 37.314 48.1917 37.2976C48.1551 37.2823 48.1147 37.2746 48.0714 37.2746C48.028 37.2746 47.9866 37.2823 47.9491 37.2976C47.9106 37.314 47.8769 37.336 47.849 37.3639C47.821 37.3917 47.7989 37.4253 47.7835 37.4627C47.7671 37.5002 47.7594 37.5405 47.7594 37.5837C47.7594 37.6268 47.7671 37.6672 47.7835 37.7046C47.7989 37.743 47.821 37.7756 47.849 37.8034C47.8769 37.8313 47.9106 37.8534 47.9491 37.8697C47.9866 37.886 48.028 37.8946 48.0714 37.8946ZM48.0714 37.1853C48.1282 37.1853 48.1801 37.1959 48.2302 37.217C48.2793 37.2372 48.3217 37.266 48.3592 37.3024C48.3958 37.3379 48.4247 37.3802 48.4459 37.4291C48.467 37.4771 48.4776 37.5289 48.4776 37.5837C48.4776 37.6384 48.467 37.6902 48.4459 37.7382C48.4247 37.7862 48.3958 37.8284 48.3592 37.8649C48.3217 37.9004 48.2793 37.9292 48.2302 37.9503C48.1801 37.9714 48.1282 37.982 48.0714 37.982C48.0136 37.982 47.9606 37.9714 47.9106 37.9503C47.8605 37.9292 47.8172 37.9004 47.7806 37.8649C47.744 37.8284 47.7151 37.7862 47.694 37.7382C47.6728 37.6902 47.6622 37.6384 47.6622 37.5837C47.6622 37.5289 47.6728 37.4771 47.694 37.4291C47.7151 37.3802 47.744 37.3379 47.7806 37.3024C47.8172 37.266 47.8605 37.2372 47.9106 37.217C47.9606 37.1959 48.0136 37.1853 48.0714 37.1853ZM10.5613 35.762C10.5613 35.0575 11.0244 34.4787 11.7812 34.4787C12.5042 34.4787 12.9923 35.0325 12.9923 35.762C12.9923 36.4914 12.5042 37.0452 11.7812 37.0452C11.0244 37.0452 10.5613 36.4664 10.5613 35.762ZM13.8164 35.762V33.7579H12.9422V34.2445C12.665 33.8836 12.2442 33.6571 11.6724 33.6571C10.545 33.6571 9.66116 34.5382 9.66116 35.762C9.66116 36.9867 10.545 37.8668 11.6724 37.8668C12.2442 37.8668 12.665 37.6403 12.9422 37.2794V37.766H13.8164V35.762ZM43.3577 35.762C43.3577 35.0575 43.8208 34.4787 44.5775 34.4787C45.3015 34.4787 45.7887 35.0325 45.7887 35.762C45.7887 36.4914 45.3015 37.0452 44.5775 37.0452C43.8208 37.0452 43.3577 36.4664 43.3577 35.762ZM46.6137 35.762V32.1483H45.7386V34.2445C45.4613 33.8836 45.0406 33.6571 44.4687 33.6571C43.3413 33.6571 42.4575 34.5382 42.4575 35.762C42.4575 36.9867 43.3413 37.8668 44.4687 37.8668C45.0406 37.8668 45.4613 37.6403 45.7386 37.2794V37.766H46.6137V35.762ZM24.6677 34.4374C25.2309 34.4374 25.5929 34.7897 25.6853 35.4097H23.599C23.6924 34.8309 24.0448 34.4374 24.6677 34.4374ZM24.685 33.6571C23.5066 33.6571 22.6825 34.5123 22.6825 35.762C22.6825 37.0366 23.5403 37.8668 24.7437 37.8668C25.3493 37.8668 25.9039 37.7161 26.392 37.3053L25.9635 36.6594C25.6266 36.9272 25.1972 37.0788 24.7938 37.0788C24.2306 37.0788 23.7174 36.8187 23.5913 36.0969H26.5768C26.5855 35.9885 26.5941 35.8791 26.5941 35.762C26.5855 34.5123 25.8114 33.6571 24.685 33.6571ZM35.2407 35.762C35.2407 35.0575 35.7038 34.4787 36.4605 34.4787C37.1835 34.4787 37.6716 35.0325 37.6716 35.762C37.6716 36.4914 37.1835 37.0452 36.4605 37.0452C35.7038 37.0452 35.2407 36.4664 35.2407 35.762ZM38.4958 35.762V33.7579H37.6216V34.2445C37.3433 33.8836 36.9236 33.6571 36.3517 33.6571C35.2243 33.6571 34.3405 34.5382 34.3405 35.762C34.3405 36.9867 35.2243 37.8668 36.3517 37.8668C36.9236 37.8668 37.3433 37.6403 37.6216 37.2794V37.766H38.4958V35.762ZM30.3037 35.762C30.3037 36.978 31.1528 37.8668 32.4487 37.8668C33.0543 37.8668 33.4577 37.7324 33.8947 37.3888L33.475 36.6843C33.1467 36.9195 32.802 37.0452 32.4227 37.0452C31.7247 37.0366 31.2115 36.5336 31.2115 35.762C31.2115 34.9903 31.7247 34.4873 32.4227 34.4787C32.802 34.4787 33.1467 34.6044 33.475 34.8396L33.8947 34.1351C33.4577 33.7915 33.0543 33.6571 32.4487 33.6571C31.1528 33.6571 30.3037 34.5459 30.3037 35.762ZM41.5747 33.6571C41.0702 33.6571 40.7419 33.8923 40.5147 34.2445V33.7579H39.6482V37.766H40.5233V35.5191C40.5233 34.8559 40.8093 34.4873 41.3811 34.4873C41.5583 34.4873 41.7431 34.5123 41.928 34.5881L42.1976 33.7665C42.0041 33.6907 41.7518 33.6571 41.5747 33.6571ZM18.1402 34.0765C17.7194 33.8001 17.1399 33.6571 16.5006 33.6571C15.482 33.6571 14.8264 34.1437 14.8264 34.9404C14.8264 35.594 15.3145 35.9971 16.2137 36.1228L16.6267 36.1814C17.1062 36.2486 17.3324 36.3743 17.3324 36.6008C17.3324 36.9108 17.0128 37.0874 16.4159 37.0874C15.8103 37.0874 15.3732 36.8945 15.0786 36.668L14.6665 37.3466C15.146 37.6988 15.7516 37.8668 16.4072 37.8668C17.5683 37.8668 18.2413 37.3216 18.2413 36.5586C18.2413 35.8541 17.7117 35.4855 16.8366 35.3598L16.4245 35.3003C16.0462 35.2504 15.7429 35.1755 15.7429 34.9068C15.7429 34.6131 16.0288 34.4374 16.5083 34.4374C17.0214 34.4374 17.5182 34.6304 17.7618 34.781L18.1402 34.0765ZM29.4198 33.6571C28.9154 33.6571 28.5871 33.8923 28.3608 34.2445V33.7579H27.4943V37.766H28.3685V35.5191C28.3685 34.8559 28.6545 34.4873 29.2263 34.4873C29.4035 34.4873 29.5883 34.5123 29.7732 34.5881L30.0427 33.7665C29.8492 33.6907 29.597 33.6571 29.4198 33.6571ZM21.9594 33.7579H20.5297V32.5418H19.6459V33.7579H18.8305V34.5545H19.6459V36.3829C19.6459 37.313 20.0079 37.8668 21.0419 37.8668C21.4212 37.8668 21.8583 37.7497 22.1356 37.5568L21.8834 36.8101C21.6225 36.9607 21.3365 37.0366 21.1093 37.0366C20.6722 37.0366 20.5297 36.7678 20.5297 36.3657V34.5545H21.9594V33.7579ZM8.88807 37.766V35.2504C8.88807 34.3031 8.28249 33.6658 7.30625 33.6571C6.7931 33.6485 6.26359 33.8078 5.89293 34.3702C5.61565 33.9259 5.17856 33.6571 4.56432 33.6571C4.13493 33.6571 3.71517 33.7828 3.38687 34.2522V33.7579H2.51172V37.766H3.39457V35.5441C3.39457 34.8482 3.7816 34.4787 4.37947 34.4787C4.96001 34.4787 5.25365 34.8559 5.25365 35.5354V37.766H6.13746V35.5441C6.13746 34.8482 6.54086 34.4787 7.1214 34.4787C7.71831 34.4787 8.00425 34.8559 8.00425 35.5354V37.766H8.88807Z" fill="#231F20"/>
<path d="M48.5432 24.4363V23.8508H48.3902L48.213 24.253L48.0368 23.8508H47.8828V24.4363H47.9916V23.9948L48.1572 24.3759H48.2698L48.4354 23.9939V24.4363H48.5432ZM47.5718 24.4363V23.9507H47.7682V23.8518H47.2676V23.9507H47.464V24.4363H47.5718Z" fill="#F79410"/>
<path d="M31.1358 26.9548H17.8867V3.21701H31.1358V26.9548Z" fill="#FF5F00"/>
<path d="M18.7356 15.0839C18.7356 10.2686 20.9971 5.97927 24.5188 3.21505C21.9435 1.19371 18.6932 -0.0127583 15.1608 -0.0127583C6.79831 -0.0127583 0.0195312 6.74616 0.0195312 15.0839C0.0195312 23.4217 6.79831 30.1806 15.1608 30.1806C18.6932 30.1806 21.9435 28.9742 24.5188 26.9528C20.9971 24.1886 18.7356 19.8993 18.7356 15.0839Z" fill="#EB001B"/>
<path d="M49.0042 15.0839C49.0042 23.4217 42.2254 30.1806 33.8629 30.1806C30.3305 30.1806 27.0802 28.9742 24.5039 26.9528C28.0266 24.1886 30.2882 19.8993 30.2882 15.0839C30.2882 10.2686 28.0266 5.97927 24.5039 3.21505C27.0802 1.19371 30.3305 -0.0127583 33.8629 -0.0127583C42.2254 -0.0127583 49.0042 6.74616 49.0042 15.0839Z" fill="#F79E1B"/>
</g>
<defs>
<clipPath id="clip0">
<rect width="49" height="38" fill="white"/>
</clipPath>
</defs>
</svg>
