<svg width="83" height="24" viewBox="0 0 83 24" fill="none" xmlns="http://www.w3.org/2000/svg">
<path fill-rule="evenodd" clip-rule="evenodd" d="M13.1878 2.60337C13.8404 2.59961 15.7797 2.43126 16.6011 5.10343C17.1544 6.90343 18.0359 9.85191 19.2454 13.9489H19.738C21.0351 9.62957 21.9261 6.68109 22.4111 5.10343C23.2411 2.40343 25.3161 2.60343 26.1461 2.60343L32.5497 2.60344V21.8034H26.023V10.4885H25.5853L21.947 21.8034H17.0364L13.398 10.4802H12.9604V21.8034H6.43359V2.60344L13.1878 2.60337ZM41.9221 2.60344V13.9267H42.4427L46.8685 4.61566C47.7276 2.76274 49.5586 2.60344 49.5586 2.60344H55.8746V21.8034H49.2115V10.4802H48.6908L44.3519 19.7912C43.4928 21.6357 41.5749 21.8034 41.5749 21.8034H35.259V2.60344H41.9221ZM78.9052 11.7274C77.9757 14.266 75.0569 16.0841 71.8255 16.0841H64.8379V21.8034H58.5017V11.7274H78.9052Z" fill="#141414"/>
<path opacity="0.5" fill-rule="evenodd" clip-rule="evenodd" d="M72.1296 2.60352H58.168C58.5002 6.87809 62.3194 10.5374 66.2731 10.5374H79.3439C80.0982 6.98473 77.5016 2.60352 72.1296 2.60352Z" fill="#141414"/>
</svg>
