<svg width="80" height="80" viewBox="0 0 80 80" fill="none" xmlns="http://www.w3.org/2000/svg">
<g clip-path="url(#clip0)">
<path d="M40 0.100006C27.7062 0.100006 17.7 10.1063 17.7 22.4C17.7 32.5875 23.0437 44.2688 28.3 53.55C33.5562 62.8313 38.8 69.7 38.8 69.7C39.0812 70.0813 39.525 70.3125 40 70.3125C40.475 70.3125 40.9187 70.0813 41.2 69.7C41.2 69.7 46.45 62.7375 51.7 53.4C56.95 44.0625 62.3 32.375 62.3 22.4C62.3 10.1063 52.2937 0.100006 40 0.100006ZM40 3.10001C50.6875 3.10001 59.3 11.7125 59.3 22.4C59.3 31.2875 54.25 42.8 49.1 51.95C44.8937 59.4313 41.3937 64.3375 40 66.25C38.6 64.3625 35.1 59.5188 30.9 52.1C25.7562 43.0125 20.7 31.525 20.7 22.4C20.7 11.7125 29.3125 3.10001 40 3.10001ZM40 12.85C33.8625 12.85 28.85 17.8625 28.85 24C28.85 30.1375 33.8625 35.15 40 35.15C46.1375 35.15 51.15 30.1375 51.15 24C51.15 17.8625 46.1375 12.85 40 12.85ZM40 15.95C44.4687 15.95 48.05 19.5313 48.05 24C48.05 28.4688 44.4687 32.05 40 32.05C35.5312 32.05 31.95 28.4688 31.95 24C31.95 19.5313 35.5312 15.95 40 15.95ZM24.25 54.65C17.85 55.5875 12.4375 57.0688 8.44998 59C6.45623 59.9625 4.80623 61.0375 3.59998 62.3C2.39373 63.5625 1.59998 65.1313 1.59998 66.8C1.59998 69.0875 3.06248 71.0438 5.14998 72.6C7.23748 74.1563 10.0562 75.4125 13.5 76.5C20.3812 78.675 29.7 80 40 80C50.3 80 59.6187 78.675 66.5 76.5C69.9437 75.4125 72.7625 74.1563 74.85 72.6C76.9375 71.0438 78.4 69.0875 78.4 66.8C78.4 65.1375 77.6062 63.5625 76.4 62.3C75.1937 61.0375 73.5437 59.9625 71.55 59C67.5625 57.0688 62.15 55.5875 55.75 54.65C54.8687 54.5125 54.0375 55.1188 53.9 56C53.7625 56.8813 54.3687 57.7125 55.25 57.85C61.425 58.7563 66.625 60.1938 70.15 61.9C71.9125 62.7563 73.275 63.6875 74.1 64.55C74.925 65.4125 75.2 66.1313 75.2 66.8C75.2 67.7188 74.5875 68.775 72.95 70C71.3125 71.225 68.7687 72.4313 65.55 73.45C59.1125 75.4813 50.025 76.8 40 76.8C29.975 76.8 20.8875 75.4813 14.45 73.45C11.2312 72.4313 8.68748 71.225 7.04998 70C5.41248 68.775 4.79998 67.7188 4.79998 66.8C4.79998 66.1313 5.07498 65.4125 5.89998 64.55C6.72498 63.6875 8.08748 62.7563 9.84998 61.9C13.375 60.1938 18.575 58.7563 24.75 57.85C25.6312 57.7125 26.2375 56.8813 26.1 56C25.9625 55.1188 25.1312 54.5125 24.25 54.65Z" fill="black"/>
</g>
<defs>
<clipPath id="clip0">
<rect width="80" height="80" fill="white"/>
</clipPath>
</defs>
</svg>
