<svg width="18" height="18" viewBox="0 0 18 18" fill="none" xmlns="http://www.w3.org/2000/svg">
<mask id="mask0" mask-type="alpha" maskUnits="userSpaceOnUse" x="0" y="0" width="18" height="18">
<rect width="18" height="18" fill="#323232"/>
</mask>
<g mask="url(#mask0)">
<path fill-rule="evenodd" clip-rule="evenodd" d="M10.2378 5.78593C10.1149 5.90888 9.91555 5.90888 9.7926 5.78593L9.37917 5.3725C9.25622 5.24956 9.25622 5.05022 9.37917 4.92727C9.50212 4.80433 9.70145 4.80433 9.8244 4.92727L10.2378 5.3407C10.3608 5.46365 10.3608 5.66298 10.2378 5.78593ZM11.6689 7.21703C11.546 7.33998 11.3466 7.33998 11.2237 7.21703L10.8103 6.8036C10.6873 6.68066 10.6873 6.48132 10.8103 6.35837C10.9332 6.23542 11.1326 6.23542 11.2555 6.35837L11.6689 6.7718C11.7919 6.89475 11.7919 7.09408 11.6689 7.21703ZM13.1 8.64813C12.9771 8.77108 12.7777 8.77108 12.6548 8.64813L12.2414 8.2347C12.1184 8.11175 12.1184 7.91242 12.2414 7.78947C12.3643 7.66652 12.5637 7.66652 12.6866 7.78947L13.1 8.2029C13.223 8.32585 13.223 8.52518 13.1 8.64813Z" fill="#141414"/>
<path fill-rule="evenodd" clip-rule="evenodd" d="M12.0983 0.840686C11.7997 0.5421 11.3156 0.542101 11.017 0.840687L0.840276 11.0174C0.54169 11.316 0.54169 11.8001 0.840276 12.0987L1.47632 12.7347C1.78336 13.0418 2.23942 13.0065 2.53857 12.8077C3.28954 12.3088 4.31262 12.3908 4.97456 13.0527C5.6365 13.7147 5.7185 14.7377 5.21955 15.4887C5.02079 15.7879 4.98554 16.2439 5.29258 16.551L5.92863 17.187C6.22721 17.4856 6.71132 17.4856 7.0099 17.187L17.1866 7.01031C17.4852 6.71173 17.4852 6.22762 17.1866 5.92904L16.5506 5.29299C16.2435 4.98595 15.7875 5.0212 15.4883 5.21996C14.7373 5.71891 13.7143 5.63691 13.0523 4.97497C12.3904 4.31303 12.3084 3.28995 12.8073 2.53898C13.0061 2.23983 13.0413 1.78377 12.7343 1.47673L12.0983 0.840686ZM11.653 1.28592C11.6003 1.23323 11.5149 1.23323 11.4622 1.28592L8.80673 3.9096C8.92968 4.03255 8.92968 4.23189 8.80673 4.35483C8.68378 4.47778 8.48445 4.47778 8.3615 4.35483L1.28551 11.4626C1.23282 11.5153 1.23282 11.6007 1.28551 11.6534L1.92155 12.2895C1.96579 12.3337 2.07549 12.3595 2.19012 12.2833C3.18587 11.6217 4.54174 11.7294 5.41979 12.6075C6.29785 13.4856 6.40558 14.8414 5.74399 15.8372C5.66783 15.9518 5.69358 16.0615 5.73781 16.1057L6.37386 16.7418C6.42655 16.7945 6.51198 16.7945 6.56467 16.7418L13.6725 9.6658C13.5495 9.54285 13.5495 9.34352 13.6725 9.22057C13.7954 9.09762 13.9948 9.09762 14.1177 9.22057L16.7414 6.56508C16.7941 6.51239 16.7941 6.42696 16.7414 6.37427L16.1053 5.73822C16.0611 5.69399 15.9514 5.66824 15.8368 5.74441C14.841 6.40599 13.4851 6.29826 12.6071 5.4202C11.729 4.54215 11.6213 3.18628 12.2829 2.19053C12.359 2.0759 12.3333 1.9662 12.2891 1.92196L11.653 1.28592Z" fill="#141414"/>
</g>
</svg>
