<svg width="21" height="20" viewBox="0 0 21 20" fill="none" xmlns="http://www.w3.org/2000/svg">
<path d="M16.4106 0L13.8995 2.51109L16.4106 5.02219L17.0328 4.4L15.5839 2.95109H17.1617C18.3737 2.95109 19.3617 3.93909 19.3617 5.15109V7.35109H20.2417V5.15109C20.2417 3.45909 18.8537 2.07109 17.1617 2.07109H15.5839L17.0328 0.622187L16.4106 0ZM1.76172 2.06938C0.793941 2.06938 -8.8e-08 2.86332 0 3.83109V9.99109C0 10.9589 0.793941 11.7528 1.76172 11.7528H7.48V16.1511C7.48 17.1189 8.27394 17.9128 9.24172 17.9128H18.4817C19.4495 17.9128 20.2434 17.1189 20.2434 16.1511V9.99109C20.2434 9.02332 19.4495 8.22937 18.4817 8.22937H12.7634V3.83109C12.7634 2.86332 11.9695 2.06938 11.0017 2.06938H1.76172ZM1.76172 2.95281H11.0017C11.4921 2.95281 11.88 3.34071 11.88 3.83109V4.71109H0.883438V3.83109C0.883438 3.34071 1.27134 2.95281 1.76172 2.95281ZM0.883438 6.47109H11.88V8.22937H9.24172C8.39491 8.22937 7.68129 8.83759 7.51609 9.63789C7.49249 9.75222 7.48 9.87012 7.48 9.99109V10.8694H1.76172C1.27134 10.8694 0.883438 10.4815 0.883438 9.99109V6.47109ZM9.24172 9.11281H18.4817C18.9721 9.11281 19.36 9.50071 19.36 9.99109V10.8711H8.36344V9.99109C8.36344 9.9298 8.36992 9.86988 8.38148 9.81234C8.46244 9.40958 8.81263 9.11281 9.24172 9.11281ZM0.00171875 12.6311V14.8311C0.00171875 16.5231 1.38972 17.9111 3.08172 17.9111H4.65953L3.21063 19.36L3.83281 19.9822L6.34391 17.4711L3.83281 14.96L3.21063 15.5822L4.65953 17.0311H3.08172C1.86972 17.0311 0.881719 16.0431 0.881719 14.8311V12.6311H0.00171875ZM8.36344 12.6311H19.36V16.1511C19.36 16.6415 18.9721 17.0294 18.4817 17.0294H9.24172C8.75134 17.0294 8.36344 16.6415 8.36344 16.1511V12.6311Z" fill="#989898"/>
</svg>
