<svg width="87" height="38" viewBox="0 0 87 38" fill="none" xmlns="http://www.w3.org/2000/svg">
<g clip-path="url(#clip0)">
<path d="M35.2121 20.276L30.8621 32.2003L30.4042 29.7876C29.3053 26.8181 26.97 23.7094 24.2227 22.4567L28.2063 37.768H32.9227L39.9284 20.3224H35.2121V20.276Z" fill="#516AA6"/>
<path d="M38.9219 37.768L41.715 20.276H46.1566L43.4092 37.768H38.9219Z" fill="#516AA6"/>
<path d="M59.5717 20.6935C58.7017 20.3223 57.2822 19.9512 55.588 19.9512C51.1922 19.9512 48.0785 22.3175 48.0785 25.7045C48.0327 28.21 50.2764 29.6019 51.9706 30.4371C53.7106 31.2723 54.3059 31.8291 54.3059 32.6178C54.3059 33.7778 52.9322 34.3346 51.6501 34.3346C49.8643 34.3346 48.9027 34.0562 47.4375 33.4066L46.8422 33.1282L46.2012 37.0256C47.2543 37.4896 49.1775 37.9536 51.1464 37.9536C55.817 37.9536 58.8849 35.5873 58.8849 31.9683C58.8849 29.9731 57.6943 28.442 55.1301 27.2357C53.5733 26.4469 52.6117 25.8901 52.6117 25.0549C52.6117 24.3126 53.4359 23.5702 55.1759 23.5702C56.6412 23.5238 57.6943 23.895 58.5185 24.2198L58.9306 24.4054L59.5717 20.6935Z" fill="#516AA6"/>
<path d="M70.9745 20.276H67.5403C66.4871 20.276 65.6629 20.6008 65.205 21.7143L58.6113 37.7216H63.2819C63.2819 37.7216 64.0603 35.5873 64.1976 35.0769C64.7013 35.0769 69.2345 35.0769 69.9213 35.0769C70.0587 35.6801 70.4708 37.6752 70.4708 37.6752H74.5918L70.9745 20.276ZM65.4797 31.5507C65.8461 30.5299 67.2655 26.6789 67.2655 26.6789C67.2197 26.7253 67.6319 25.6581 67.8608 25.0086L68.1355 26.4933C68.1355 26.4933 69.0055 30.6691 69.1887 31.5507C68.5019 31.5507 66.3497 31.5507 65.4797 31.5507Z" fill="#516AA6"/>
<path d="M26.7875 20.276H19.5985L19.5527 20.5544C25.1391 22.0391 28.848 25.6117 30.3591 29.7876L28.8022 21.7607C28.5275 20.6472 27.7491 20.3224 26.7875 20.276Z" fill="#DD9D4E"/>
<path d="M6.13579 16.0538H3.29684L0 1.06719L3.15947 0.556808L5.40316 12.2491L11.0811 0.696003H14.1032L6.13579 16.0538Z" fill="#516AA6"/>
<path d="M20.8792 11.182H14.1024C13.9192 13.2699 14.8808 14.1515 16.4834 14.1515C17.8571 14.1515 19.0476 13.6411 20.3297 12.8059V14.8938C19.0934 15.6826 17.6282 16.193 15.9339 16.193C13.0034 16.193 11.0345 14.4762 11.6297 10.6252C12.1792 7.14535 14.5145 5.05743 17.3076 5.05743C20.4671 5.05743 21.5203 7.47013 21.0624 10.486C20.9708 10.7644 20.925 10.9964 20.8792 11.182ZM16.8955 6.91336C15.8424 6.91336 14.8808 7.74852 14.4229 9.51165H18.6355C18.6813 7.84132 18.1776 6.91336 16.8955 6.91336Z" fill="#516AA6"/>
<path d="M25.3227 9.83635L24.4069 15.9609H21.7969L23.3995 5.24295H25.6432V7.37726C26.5132 6.12451 27.7495 5.10375 29.3979 5.01096V7.65564C27.7037 7.84124 26.2385 8.7228 25.3227 9.83635Z" fill="#516AA6"/>
<path d="M29.3516 16.0073L30.9542 5.28937H33.5642L31.9616 16.0073H29.3516ZM32.5568 3.47985C31.6868 3.47985 31.0916 2.87667 31.2289 1.99511C31.3663 1.06715 32.1447 0.463974 33.0605 0.463974C33.8847 0.463974 34.48 1.06715 34.3426 1.99511C34.2052 2.87667 33.4268 3.47985 32.5568 3.47985Z" fill="#516AA6"/>
<path d="M40.8435 2.36635C39.9277 2.36635 39.424 2.78393 39.2408 3.71189L39.0119 5.28942H41.0266V7.47013H38.6914L37.4093 16.0074H34.7993L36.0814 7.47013H34.5703L34.8908 5.28942H36.4019L36.6766 3.4335C37.0429 1.0672 38.6456 0.185638 40.8435 0.185638C41.3014 0.185638 41.6677 0.232036 41.8966 0.278435V2.45914C41.6677 2.41274 41.3014 2.36635 40.8435 2.36635Z" fill="#516AA6"/>
<path d="M40.8887 16.0073L42.4913 5.28937H45.1013L43.4987 16.0073H40.8887ZM44.0939 3.47985C43.2239 3.47985 42.6287 2.87667 42.766 1.99511C42.9034 1.06715 43.6818 0.463974 44.5976 0.463974C45.4676 0.463974 46.0629 1.11355 45.9255 1.99511C45.7424 2.87667 44.9639 3.47985 44.0939 3.47985Z" fill="#516AA6"/>
<path d="M55.3148 11.182H48.5379C48.3548 13.2699 49.3163 14.1515 50.919 14.1515C52.2926 14.1515 53.4832 13.6411 54.7653 12.8059V14.8938C53.529 15.6826 52.0637 16.193 50.3695 16.193C47.439 16.193 45.47 14.4762 46.0653 10.6252C46.6148 7.14535 48.95 5.05743 51.7432 5.05743C54.9026 5.05743 55.9558 7.47013 55.4979 10.486C55.4063 10.7644 55.3148 10.9964 55.3148 11.182ZM51.3311 6.91336C50.2779 6.91336 49.3163 7.74852 48.8584 9.51165H53.0711C53.1169 7.84132 52.5674 6.91336 51.3311 6.91336Z" fill="#516AA6"/>
<path d="M63.0517 16.0073V14.5226C62.1817 15.4506 61.037 16.2393 59.5717 16.2393C57.3738 16.2393 55.8627 14.569 56.4122 10.9499C57.0075 6.95971 59.4343 5.19658 61.907 5.19658C62.9143 5.19658 63.6927 5.38217 64.288 5.61416L65.0664 0.46398L67.768 0L65.3412 16.0073H63.0517ZM63.9675 7.79487C63.3722 7.47009 62.8685 7.33089 61.9985 7.33089C60.6248 7.33089 59.4343 8.44444 59.068 10.8107C58.7475 12.8987 59.4801 13.873 60.6248 13.873C61.5864 13.873 62.4106 13.3162 63.2349 12.3883L63.9675 7.79487Z" fill="#516AA6"/>
<path d="M73.3557 16.1001C72.1193 16.1001 71.112 15.9145 70.1504 15.5433L71.8904 4.1758L73.9051 3.85101L73.1725 8.8156C73.7678 8.25883 74.592 7.74845 75.5993 7.74845C77.2935 7.74845 78.4383 9.0012 78.0262 11.7387C77.5683 14.7082 75.7367 16.1001 73.3557 16.1001ZM74.8209 9.51158C74.1799 9.51158 73.493 9.97556 72.8978 10.5787L72.3483 14.2442C72.7604 14.3834 72.9893 14.4762 73.5846 14.4762C74.8209 14.4762 75.7367 13.6874 76.0114 11.8779C76.2404 10.2539 75.7367 9.51158 74.8209 9.51158Z" fill="#516AA6"/>
<path d="M82.6968 16.4249C81.6894 18.4201 80.6821 19.0232 79.1252 19.0232C78.7589 19.0232 78.5757 18.9768 78.3926 18.9304V17.2601C78.6673 17.3065 78.9421 17.3993 79.3084 17.3993C79.9036 17.3993 80.4073 17.1209 80.7278 16.5641L81.0026 16.0074L79.3084 8.02689L81.4147 7.7485L82.3763 13.5019L85.0321 7.8413H87.001L82.6968 16.4249Z" fill="#516AA6"/>
</g>
<defs>
<clipPath id="clip0">
<rect width="87" height="38" fill="white"/>
</clipPath>
</defs>
</svg>
