<svg width="73" height="22" viewBox="0 0 73 22" fill="none" xmlns="http://www.w3.org/2000/svg">
<g clip-path="url(#clip0)">
<path d="M31.6323 21.6826H25.7188L29.4175 0.385986H35.3307L31.6323 21.6826Z" fill="#141414"/>
<path d="M53.071 0.90668C51.9046 0.475774 50.0545 0 47.767 0C41.9272 0 37.8149 2.89981 37.7897 7.04566C37.7412 10.1045 40.734 11.8034 42.9724 12.8233C45.2602 13.8655 46.0379 14.5457 46.0379 15.4747C46.0146 16.9014 44.1892 17.559 42.4866 17.559C40.1257 17.559 38.8607 17.22 36.9382 16.4262L36.1595 16.086L35.332 20.8666C36.719 21.455 39.2743 21.9771 41.9272 22C48.1321 22 52.1717 19.1451 52.2195 14.727C52.2431 12.3027 50.6628 10.445 47.2557 8.92707C45.1875 7.95264 43.9208 7.29559 43.9208 6.29858C43.9451 5.3922 44.9921 4.46384 47.3269 4.46384C49.2493 4.41837 50.6618 4.84867 51.7319 5.27928L52.2667 5.50542L53.071 0.90668Z" fill="#141414"/>
<path d="M60.9304 14.138C61.4174 12.9145 63.2914 8.17934 63.2914 8.17934C63.2668 8.22481 63.7774 6.93329 64.0694 6.14044L64.4827 7.97548C64.4827 7.97548 65.6025 13.0732 65.8457 14.138C64.9215 14.138 62.0984 14.138 60.9304 14.138ZM68.2299 0.385986H63.6558C62.2453 0.385986 61.1736 0.770821 60.565 2.15297L51.7812 21.6823H57.9861C57.9861 21.6823 59.0077 19.0538 59.2272 18.4877C59.9079 18.4877 65.944 18.4877 66.8197 18.4877C66.9894 19.2354 67.5253 21.6823 67.5253 21.6823H73.0006L68.2299 0.385986Z" fill="#141414"/>
<path d="M20.7796 0.385986L14.9884 14.9082L14.3555 11.9629C13.2848 8.56447 9.92693 4.87211 6.17969 3.03616L11.4843 21.66H17.7377L27.0327 0.385986H20.7796Z" fill="#141414"/>
<path opacity="0.7" d="M9.6116 0.385986H0.0973347L0 0.81629C7.42172 2.58358 12.337 6.84356 14.3564 11.9638L12.2882 2.17616C11.9476 0.815989 10.9012 0.430854 9.6116 0.385986Z" fill="#505050"/>
</g>
<defs>
<clipPath id="clip0">
<rect width="73" height="22" fill="white"/>
</clipPath>
</defs>
</svg>
