<svg width="83" height="28" viewBox="0 0 83 28" fill="none" xmlns="http://www.w3.org/2000/svg">
<g clip-path="url(#clip0)">
<path d="M35.9658 27.5959H29.2422L33.4476 0.491196H40.1708L35.9658 27.5959Z" fill="#00579F"/>
<path d="M60.3408 1.15384C59.0146 0.605416 56.9111 -0.000114441 54.3103 -0.000114441C47.6705 -0.000114441 42.9948 3.69055 42.9662 8.96709C42.911 12.8601 46.3138 15.0224 48.8588 16.3204C51.4601 17.6469 52.3443 18.5126 52.3443 19.6949C52.3178 21.5108 50.2423 22.3478 48.3066 22.3478C45.6222 22.3478 44.1839 21.9162 41.9981 20.906L41.1127 20.4729L40.1719 26.5574C41.7488 27.3062 44.6541 27.9708 47.6705 27.9999C54.7253 27.9999 59.3183 24.3663 59.3727 18.7433C59.3995 15.6578 57.6027 13.2936 53.729 11.3616C51.3773 10.1214 49.9372 9.28519 49.9372 8.01626C49.9648 6.86269 51.1553 5.68114 53.8098 5.68114C55.9956 5.62326 57.6016 6.17092 58.8183 6.71897L59.4264 7.00679L60.3408 1.15384Z" fill="#00579F"/>
<path d="M69.2755 17.9937C69.8292 16.4366 71.9599 10.41 71.9599 10.41C71.9319 10.4679 72.5125 8.82413 72.8445 7.81504L73.3144 10.1505C73.3144 10.1505 74.5876 16.6385 74.8641 17.9937C73.8133 17.9937 70.6036 17.9937 69.2755 17.9937ZM77.5749 0.491196H72.3743C70.7705 0.491196 69.552 0.980985 68.8601 2.74009L58.873 27.5956H65.9279C65.9279 27.5956 67.0894 24.2502 67.339 23.5297C68.113 23.5297 74.9759 23.5297 75.9715 23.5297C76.1646 24.4813 76.7738 27.5956 76.7738 27.5956H82.9992L77.5749 0.491196Z" fill="#00579F"/>
<path d="M23.6273 0.491196L17.0427 18.974L16.3231 15.2255C15.1058 10.9002 11.2879 6.20081 7.02734 3.86415L13.0586 27.5672H20.1686L30.7369 0.491196H23.6273Z" fill="#00579F"/>
<path d="M10.9283 0.491196H0.110668L0 1.03885C8.4384 3.28813 14.027 8.70992 16.3231 15.2266L13.9715 2.7696C13.5843 1.03847 12.3945 0.548299 10.9283 0.491196Z" fill="#FAA61A"/>
</g>
<defs>
<clipPath id="clip0">
<rect width="83" height="28" fill="white"/>
</clipPath>
</defs>
</svg>
