<svg width="22" height="22" viewBox="0 0 22 22" fill="none" xmlns="http://www.w3.org/2000/svg">
<mask id="mask0" mask-type="alpha" maskUnits="userSpaceOnUse" x="0" y="0" width="22" height="22">
<rect width="22" height="22" fill="#C4C4C4"/>
</mask>
<g mask="url(#mask0)">
<path d="M20.8886 15.8373C20.8632 15.7824 20.8395 15.7369 20.8175 15.7004C20.4531 15.0432 19.7569 14.2365 18.7291 13.2801L18.7074 13.2582L18.6965 13.2475L18.6855 13.2365H18.6745C18.2081 12.7911 17.9127 12.4917 17.789 12.3384C17.5627 12.0463 17.5119 11.7507 17.6356 11.4512C17.723 11.2249 18.0513 10.747 18.6197 10.0168C18.9187 9.62987 19.1555 9.31973 19.3303 9.08607C20.5914 7.40687 21.1382 6.33383 20.9705 5.86655L20.9053 5.75735C20.8616 5.69161 20.7486 5.63147 20.5666 5.57662C20.3841 5.52189 20.1509 5.51284 19.8666 5.54931L16.7177 5.5711C16.6667 5.55299 16.5939 5.55468 16.499 5.57662L16.3568 5.60957L16.302 5.63699L16.2585 5.66994C16.222 5.69173 16.1819 5.73004 16.1382 5.78481C16.0946 5.83939 16.0582 5.90345 16.0291 5.97644C15.6863 6.8598 15.2965 7.68111 14.859 8.44032C14.5893 8.89303 14.3416 9.28536 14.1154 9.61756C13.8895 9.94964 13.7 10.1943 13.547 10.3511C13.3938 10.5081 13.2556 10.6339 13.1314 10.7289C13.0074 10.824 12.9128 10.8641 12.8473 10.8494C12.7816 10.8347 12.7198 10.8202 12.6612 10.8056C12.5592 10.7398 12.4772 10.6504 12.4154 10.5373C12.3532 10.4241 12.3114 10.2817 12.2896 10.1102C12.2678 9.93848 12.2549 9.79081 12.2513 9.66665C12.2478 9.54265 12.2494 9.36725 12.2568 9.14095C12.2644 8.91454 12.2678 8.76135 12.2678 8.68103C12.2678 8.40357 12.2732 8.10244 12.284 7.77757C12.2951 7.4527 12.304 7.1953 12.3115 7.00567C12.3189 6.81585 12.3223 6.61502 12.3223 6.4033C12.3223 6.19157 12.3095 6.02553 12.284 5.90502C12.2589 5.78466 12.2204 5.66783 12.1695 5.55457C12.1184 5.44142 12.0436 5.35389 11.9454 5.29176C11.847 5.2297 11.7247 5.18045 11.5791 5.14386C11.1928 5.05629 10.7008 5.00892 10.1029 5.00156C9.614 4.9963 9.18811 5.00434 8.82525 5.02568C8.14755 5.06553 7.66059 5.71184 7.94885 6.32647C7.97322 6.37844 8.01452 6.45799 8.01452 6.45799C8.06561 6.55288 8.11662 6.72088 8.16767 6.96175C8.21864 7.20262 8.25154 7.46908 8.26601 7.76096C8.30239 8.29399 8.30239 8.75027 8.26601 9.12983C8.22952 9.50955 8.19505 9.80516 8.16216 10.0169C8.12926 10.2286 8.08009 10.4002 8.01452 10.5315C7.94885 10.6629 7.90515 10.7433 7.88324 10.7724C7.86138 10.8016 7.84315 10.8199 7.82867 10.8271C7.73393 10.8635 7.63539 10.882 7.53341 10.882C7.43127 10.882 7.30743 10.8309 7.16167 10.7286C7.01595 10.6263 6.86472 10.4859 6.70798 10.307C6.55123 10.1281 6.37446 9.87803 6.17758 9.55684C5.98085 9.23565 5.77673 8.85605 5.56534 8.41803L5.39044 8.10037C5.2811 7.89601 5.13175 7.59845 4.94222 7.20796C4.75258 6.8173 4.58496 6.43943 4.43924 6.0744C4.38099 5.92109 4.29349 5.80438 4.17688 5.72406L4.12215 5.69111C4.08577 5.66196 4.02737 5.63101 3.94725 5.59802C3.86702 5.56508 3.78331 5.54145 3.69576 5.52691L0.699899 5.5487C0.39376 5.5487 0.186042 5.61816 0.0766687 5.75689L0.0328963 5.82252C0.0110293 5.85907 0 5.91745 0 5.9978C0 6.07812 0.0218671 6.17669 0.0656395 6.29341C0.502981 7.32287 0.978579 8.3157 1.49244 9.27205C2.00629 10.2284 2.45282 10.9988 2.83176 11.5825C3.21078 12.1666 3.59711 12.7179 3.99076 13.2361C4.3844 13.7544 4.64497 14.0866 4.77246 14.2326C4.9001 14.3788 5.00036 14.4881 5.07323 14.5611L5.34663 14.8239C5.52156 14.9991 5.77846 15.209 6.11741 15.4535C6.45645 15.6982 6.83179 15.939 7.24362 16.1765C7.65554 16.4136 8.13474 16.607 8.68149 16.7567C9.22816 16.9064 9.76025 16.9665 10.2778 16.9375H11.5352C11.7902 16.9155 11.9835 16.8352 12.1148 16.6966L12.1583 16.6417C12.1875 16.5981 12.2149 16.5304 12.2402 16.4393C12.2658 16.3481 12.2785 16.2475 12.2785 16.1382C12.271 15.8243 12.2949 15.5414 12.3494 15.2896C12.4039 15.0378 12.466 14.848 12.5355 14.7202C12.6049 14.5925 12.6833 14.4847 12.7705 14.3973C12.8579 14.3097 12.9201 14.2567 12.9567 14.2384C12.993 14.2201 13.022 14.2076 13.0438 14.2001C13.2188 14.1417 13.4246 14.1983 13.6618 14.37C13.8987 14.5416 14.1209 14.7534 14.3288 15.0052C14.5366 15.2572 14.7862 15.5399 15.0777 15.8537C15.3694 16.1677 15.6244 16.4011 15.843 16.5546L16.0616 16.686C16.2076 16.7737 16.3972 16.854 16.6304 16.927C16.8633 17 17.0674 17.0182 17.2426 16.9818L20.0415 16.938C20.3184 16.938 20.5338 16.8921 20.6866 16.801C20.8397 16.7098 20.9306 16.6093 20.96 16.4999C20.9892 16.3904 20.9908 16.2662 20.9655 16.1274C20.9396 15.9889 20.9141 15.892 20.8886 15.8373Z" fill="#141414"/>
</g>
</svg>
